<?xml version="1.0" encoding="UTF-8"?>
<svg version="1.1" xmlns="http://www.w3.org/2000/svg" width="1000" height="2264">
<path d="M0 0 C330 0 660 0 1000 0 C1000 747.12 1000 1494.24 1000 2264 C670 2264 340 2264 0 2264 C0 1516.88 0 769.76 0 0 Z " fill="#FEFEFE" transform="translate(0,0)"/>
<path d="M0 0 C1.03125 0.43570313 2.0625 0.87140625 3.125 1.3203125 C8.81803385 3.87380562 13.4152282 6.09420001 16.29296875 11.828125 C20.93240276 26.07964604 11.88663563 43.42648377 5.90917969 56.04492188 C4.75835975 58.51961737 3.73382108 61.04216455 2.6875 63.5625 C-0.21561967 69.93188629 -4.17894612 75.6352731 -8.03125 81.45703125 C-11.01697569 85.98361865 -13.82893568 90.60467116 -16.625 95.25 C-19.71158704 100.36655335 -22.88052871 105.33477618 -26.375 110.1875 C-36.3008631 124.31953558 -44.06483487 139.94179111 -52 155.25 C-52.31519592 155.85706787 -52.63039185 156.46413574 -52.95513916 157.08959961 C-55.96493671 162.89909424 -58.90211045 168.70203103 -61.51171875 174.703125 C-64.05008689 180.3744526 -67.32894319 185.37058882 -70.8125 190.5 C-82.38994467 207.91064046 -92.7966674 225.99637392 -103.00317383 244.23535156 C-107.95951465 253.03821259 -113.20064496 261.66158682 -118.4699707 270.27880859 C-124.25986317 279.75046167 -129.93738781 289.28448566 -135.55981445 298.85644531 C-139.06377478 304.80418153 -142.65593519 310.67702582 -146.38818359 316.484375 C-147.82374658 318.72491438 -149.22924852 320.98065241 -150.625 323.24609375 C-152.54078235 326.32179807 -154.58268015 329.27794017 -156.69067383 332.22412109 C-163.14375623 341.28466752 -168.57785845 350.82825447 -173.95703125 360.5546875 C-176.40885858 364.98431436 -178.97862836 369.32819987 -181.59985352 373.65917969 C-183.67172629 377.1230186 -185.62020424 380.64989541 -187.5625 384.1875 C-188.43043868 385.7555134 -189.29895784 387.32320559 -190.16796875 388.890625 C-190.62478027 389.71498047 -191.0815918 390.53933594 -191.55224609 391.38867188 C-192.03000488 392.25041016 -192.50776367 393.11214844 -193 394 C-193.5048291 394.91072266 -194.0096582 395.82144531 -194.52978516 396.75976562 C-204.02911503 413.85445855 -213.60663393 430.75614993 -225.77734375 446.109375 C-228.43793443 449.56954565 -230.71442309 453.18424823 -233.01171875 456.890625 C-235.63812221 460.99792786 -238.3969614 465.00294652 -241.1875 469 C-241.69909668 469.74282227 -242.21069336 470.48564453 -242.73779297 471.25097656 C-246.54575885 476.66957375 -246.54575885 476.66957375 -249.3359375 478.69921875 C-251.2298739 479.89454921 -251.2298739 479.89454921 -251.49609375 482.26953125 C-251.37435802 487.55286209 -251.09606449 491.51604453 -248 496 C-245.73847644 498.04088712 -243.71850977 499.64074512 -241 501 C-241.01047363 502.25546631 -241.02094727 503.51093262 -241.03173828 504.80444336 C-241.06814116 509.49533193 -241.0909739 514.18620819 -241.10986328 518.87719727 C-241.11987483 520.90130722 -241.1334881 522.92540289 -241.15087891 524.94946289 C-241.17534141 527.87129256 -241.18653184 530.79292978 -241.1953125 533.71484375 C-241.20563507 534.60896469 -241.21595764 535.50308563 -241.22659302 536.42430115 C-241.22816672 545.38563302 -240.20490206 552.56376341 -234.3125 559.5 C-233.86406738 560.05478027 -233.41563477 560.60956055 -232.95361328 561.18115234 C-232.0571016 562.28951427 -231.15457943 563.39304624 -230.24560547 564.49121094 C-228.58260903 566.50558137 -226.97632117 568.56140367 -225.375 570.625 C-224.81683594 571.33140625 -224.25867188 572.0378125 -223.68359375 572.765625 C-222.49666491 574.34085306 -221.36837356 575.96110811 -220.28515625 577.609375 C-215.98079717 584.05226344 -211.35088269 588.31566941 -205.21142578 592.87451172 C-200.43317735 596.48414589 -196.86777613 600.47640652 -193.2109375 605.234375 C-188.18956379 611.51552798 -182.31311302 617.21705315 -176 622.1875 C-170.78517831 626.59590596 -167.33423491 632.50701135 -163.61328125 638.16015625 C-160.36981785 643.02625617 -156.95913685 647.44396935 -152.3125 651.0625 C-147.596387 655.06674689 -144.08712229 659.8966867 -140.41015625 664.8203125 C-137.4546884 668.71942244 -134.29597961 672.38751904 -131 676 C-126.90701915 674.86306087 -125.49779413 673.4214729 -123.3125 669.87890625 C-118.16041425 662.50345016 -110.97345729 657.13747468 -103.8125 651.875 C-96.84471556 646.73770899 -90.92777524 641.10501845 -85.1730957 634.64404297 C-79.30914405 628.06186828 -73.54184856 621.79252741 -65 619 C-63.68 619 -62.36 619 -61 619 C-61.66 618.34 -62.32 617.68 -63 617 C-63.33 617.33 -63.66 617.66 -64 618 C-70.74155744 618.47946789 -77.45313201 617.80308056 -84.125 616.875 C-84.96675781 616.7821875 -85.80851562 616.689375 -86.67578125 616.59375 C-93.27684283 615.67267164 -97.04825188 613.34218041 -102 609 C-102.89178955 608.31236572 -103.7835791 607.62473145 -104.70239258 606.91625977 C-112.89226922 600.23722494 -116.1947364 593.41675936 -119.8125 583.8125 C-120.33511589 582.49043623 -120.86050185 581.16946407 -121.38867188 579.84960938 C-122.43482781 577.22322166 -123.46019547 574.59013489 -124.46972656 571.94946289 C-125.49672542 569.2731032 -126.56225287 566.61729725 -127.66308594 563.97045898 C-130.34552324 557.50381479 -132.68074958 551.42072515 -133.625 544.4375 C-134.4276491 538.98948021 -135.53336472 533.89863685 -137.1875 528.625 C-139.02798278 522.57869916 -139.36875432 517.26954511 -139 511 C-139.58378418 511.01571045 -140.16756836 511.0314209 -140.76904297 511.04760742 C-143.47092595 511.11082028 -146.17265259 511.14925923 -148.875 511.1875 C-150.25171875 511.22520508 -150.25171875 511.22520508 -151.65625 511.26367188 C-158.4103975 511.3350185 -166.24075138 511.07032194 -171.70654297 506.60620117 C-174.71336096 502.8723666 -175.47747838 497.67194234 -175 493 C-170.23596642 486.63861399 -160.42144439 480.3553611 -152.78125 478.4453125 C-151.18950845 478.27669581 -149.59488208 478.13573465 -148 478 C-146.20614008 476.5420814 -146.20614008 476.5420814 -145 475 C-144.34 475 -143.68 475 -143 475 C-143.04133057 473.90836548 -143.04133057 473.90836548 -143.08349609 472.79467773 C-143.24487869 465.21879618 -142.42632326 458.41150005 -140.625 451.0625 C-140.36533447 449.9892749 -140.10566895 448.9160498 -139.83813477 447.81030273 C-137.21795545 437.69729068 -133.10954295 428.58229044 -128.23901367 419.3737793 C-126.91298192 416.83328536 -125.66968691 414.25938292 -124.421875 411.6796875 C-117.26922857 397.39521546 -101.03821478 388.83301487 -86.43847656 383.79150391 C-82.31439978 382.4480655 -78.17975326 381.15958214 -74 380 C-73.35514648 379.81356934 -72.71029297 379.62713867 -72.04589844 379.43505859 C-59.84500925 376.8405497 -45.30607078 378.63914813 -33.0625 380.3125 C-31.76143311 380.48894043 -31.76143311 380.48894043 -30.43408203 380.66894531 C-21.34577765 382.04388322 -13.07840066 384.61508427 -4.9375 388.875 C-3.90399414 389.40552979 -3.90399414 389.40552979 -2.84960938 389.94677734 C-0.89465693 390.95511639 1.05336 391.97573051 3 393 C3.90621094 393.46921875 4.81242187 393.9384375 5.74609375 394.421875 C7.87302207 395.55721975 9.94307633 396.74276208 12 398 C12.69480469 398.42410156 13.38960937 398.84820313 14.10546875 399.28515625 C26.65584246 407.73840984 33.54420213 427.77222731 37 442 C37.40378331 444.34616576 37.75678429 446.7015526 38.0625 449.0625 C38.14991455 449.71460449 38.2373291 450.36670898 38.32739258 451.03857422 C38.8660946 455.24746994 39.07638789 459.38758833 39.1875 463.625 C39.4797328 468.88519042 40.66284247 473.00662356 42.57250977 477.83959961 C46.57817754 488.09825801 47.72592804 497.65019303 47.75 508.5625 C47.76355026 509.5797818 47.76355026 509.5797818 47.77737427 510.61761475 C47.8821782 522.48544655 45.38629036 532.30205648 38.0625 541.8125 C37.38058594 542.70195313 36.69867187 543.59140625 35.99609375 544.5078125 C35.33738281 545.33023438 34.67867187 546.15265625 34 547 C33.41347656 547.73992188 32.82695313 548.47984375 32.22265625 549.2421875 C30.87684955 550.880847 29.4468366 552.44981793 28 554 C27.34 554 26.68 554 26 554 C26.66 560.93 27.32 567.86 28 575 C29.58554687 575.07605469 31.17109375 575.15210938 32.8046875 575.23046875 C39.14924872 575.81710256 44.33307267 577.75232149 50.125 580.3125 C51.1454541 580.75255371 52.1659082 581.19260742 53.21728516 581.64599609 C56.48981735 583.07258677 59.74642512 584.53072082 63 586 C64.11568359 586.50096191 65.23136719 587.00192383 66.38085938 587.51806641 C69.72302702 589.03149171 73.05120233 590.57168619 76.375 592.125 C77.38965332 592.59075439 78.40430664 593.05650879 79.44970703 593.53637695 C88.48776428 597.85485918 96.43993213 603.33526442 102.5625 611.375 C105.33587003 614.97982302 108.23995714 618.3173597 111.35546875 621.625 C116.09311642 626.86132177 119.47502041 632.39348353 122.75 638.625 C123.30929199 639.67389404 123.86858398 640.72278809 124.44482422 641.8034668 C128.72691688 650.03510528 131.75902116 658.007837 134 667 C134.23283691 667.76368896 134.46567383 668.52737793 134.70556641 669.31420898 C137.17267101 677.57475577 138.17778628 685.90318652 139.125 694.4375 C139.21126648 695.18811707 139.29753296 695.93873413 139.38641357 696.71209717 C140.48750151 706.29541356 141.36296153 715.83700777 141.7097168 725.48120117 C141.98908088 733.06827077 142.9565958 740.48135207 144 748 C144.3163937 750.49951021 144.62879975 752.99952796 144.9375 755.5 C145.10406616 756.82553347 145.27073731 758.15105374 145.4375 759.4765625 C145.86436323 762.88682856 146.27743519 766.29861245 146.6875 769.7109375 C146.87324585 771.23750977 146.87324585 771.23750977 147.06274414 772.79492188 C147.30207869 774.76198678 147.53853565 776.72940538 147.77124023 778.69726562 C148.31980069 783.17762259 148.92093397 787.63486589 149.71337891 792.07885742 C151.55041249 802.38822415 152.66913738 812.57607192 153.33612061 823.02474976 C153.61872852 827.40106744 153.93839623 831.77467528 154.2578125 836.1484375 C154.35142563 837.43396767 154.35142563 837.43396767 154.44692993 838.74546814 C156.04615679 860.3726411 158.63935784 881.67857229 166.68969727 901.95727539 C168.83677871 907.38950878 170.58495078 912.90237081 172.25 918.5 C172.61919556 919.73762085 172.61919556 919.73762085 172.99584961 921.00024414 C173.68044511 923.32909766 174.34175785 925.66358518 175 928 C175.29692749 928.97682739 175.29692749 928.97682739 175.59985352 929.97338867 C178.5071018 940.18589643 179.49621429 955.21957671 174.875 964.9375 C174.42253906 965.71996094 173.97007812 966.50242187 173.50390625 967.30859375 C171.50036188 970.89415757 170.19372235 974.64019853 168.8125 978.5 C167.46844184 982.24800467 166.22730924 985.65903614 164 989 C164.29304433 993.71382743 166.67847569 997.69549846 168.8125 1001.8125 C169.85862446 1003.86353202 170.90473931 1005.91456719 171.94995117 1007.96606445 C172.62808544 1009.27960469 173.32007188 1010.58612736 174.02856445 1011.88354492 C186.26603377 1034.86538812 187.16159999 1063.57463536 187.375 1089.0625 C187.38909912 1090.2803418 187.40319824 1091.49818359 187.41772461 1092.75292969 C187.35687519 1103.89684696 185.04361958 1113.11230707 180.25 1123.11328125 C178.42196198 1127.33490654 177.29970919 1131.68761105 176.09765625 1136.12109375 C174.24894134 1142.8255114 171.91413542 1149.38260284 169.67871094 1155.96533203 C169.09763327 1157.70731091 168.54935187 1159.46017091 168.0078125 1161.21484375 C164.73413772 1171.77461771 160.58974963 1183.40902786 153.0625 1191.6875 C147.50938374 1198.01521597 145.1163576 1206.04134342 142.08984375 1213.7734375 C139.84655503 1219.48197715 137.18828453 1224.76210399 134 1230 C133.3503125 1231.09828125 132.700625 1232.1965625 132.03125 1233.328125 C126.74495619 1242.15253784 126.74495619 1242.15253784 123.55859375 1245.77734375 C120.24283499 1249.6546882 118.28733381 1254.16528868 116.125 1258.75 C110.94439268 1269.45652468 110.94439268 1269.45652468 107.5 1273.9375 C102.66015852 1280.32930965 99.66799253 1287.82959611 96.33203125 1295.07421875 C94.42136267 1299.1953839 92.28088323 1303.07388952 90 1307 C88.88224287 1309.2641747 87.77805093 1311.5350965 86.6875 1313.8125 C84.57527417 1318.1475184 82.30795035 1322.17596104 79.4375 1326.0625 C75.35951428 1331.63665945 72.69886679 1337.6674634 70 1344 C69.36964844 1345.46953125 69.36964844 1345.46953125 68.7265625 1346.96875 C66.90505854 1351.28467021 65.14524775 1355.62303066 63.42578125 1359.98046875 C63.02359375 1360.99681396 63.02359375 1360.99681396 62.61328125 1362.03369141 C62.09024916 1363.35881234 61.57056615 1364.68526143 61.0546875 1366.01318359 C59.90540827 1368.93064445 58.74922931 1371.37615603 57 1374 C55.98390443 1386.59958504 60.13463791 1397.12248857 65.77514648 1408.11279297 C68.06573165 1412.64793102 69.57431112 1416.79837255 70.54077148 1421.78515625 C71.30986517 1425.49446932 72.53330882 1429.04221076 73.75 1432.625 C74.01167969 1433.40351318 74.27335937 1434.18202637 74.54296875 1434.98413086 C76.64834447 1441.15985768 79.02404372 1447.18725056 81.50390625 1453.22265625 C83.13767206 1457.26295803 84.532178 1461.37595795 85.9375 1465.5 C87.75888894 1470.81807562 89.80722992 1475.82982476 92.3125 1480.875 C97.32956097 1491.04092609 100.48730621 1501.97446684 103.94384766 1512.74243164 C105.30440258 1516.93889128 106.72466022 1521.11430297 108.15454102 1525.28759766 C110.78323448 1533.72097462 111.2342172 1542.01465196 110.92675781 1550.77416992 C110.8144213 1555.22364965 111.37567645 1559.05355045 112.4296875 1563.3684082 C113.67038653 1569.09336319 114.26115609 1574.94314867 115 1580.75 C116.40474789 1591.67004994 116.40474789 1591.67004994 118.03125 1602.55859375 C119.11071224 1609.45386961 119.82899199 1616.36706638 120.5 1623.3125 C120.69553467 1625.27908569 120.69553467 1625.27908569 120.89501953 1627.28540039 C121.48315711 1633.25085402 122.03509288 1639.21582602 122.4609375 1645.1953125 C123.37536603 1657.96503804 125.04954325 1670.46413761 127.32373047 1683.05639648 C130.1452249 1699.20560078 130.1452249 1699.20560078 129 1707 C127.55175781 1708.71411133 127.55175781 1708.71411133 125.9375 1709.875 C124.18772762 1711.14130695 124.18772762 1711.14130695 123 1713 C122.7471747 1717.29241168 123.32220821 1721.45211132 123.79638672 1725.71679688 C124.17225279 1729.93154448 124.17725292 1734.14610883 124.1875 1738.375 C124.19990723 1739.19436035 124.21231445 1740.0137207 124.22509766 1740.85791016 C124.2372861 1746.33938769 124.03995868 1751.84854836 122 1757 C106.86471014 1770.92666418 72.96585997 1773.82850056 53.625 1774.875 C43.14060418 1775.50928729 32.83775321 1776.58280533 22.4375 1778.0625 C10.93449613 1779.6822477 -0.38498438 1780.82207949 -12 1781 C-12.93908203 1781.01514648 -13.87816406 1781.03029297 -14.84570312 1781.04589844 C-17.81387617 1781.08574621 -20.78160059 1781.11016789 -23.75 1781.125 C-25.10834961 1781.13225098 -25.10834961 1781.13225098 -26.49414062 1781.13964844 C-30.97452293 1781.12793721 -35.25129652 1780.87453679 -39.6953125 1780.24511719 C-46.38622469 1779.53349898 -53.18743779 1779.62464657 -59.91015625 1779.48242188 C-61.11800781 1779.44826172 -62.32585937 1779.41410156 -63.5703125 1779.37890625 C-64.66102051 1779.3538501 -65.75172852 1779.32879395 -66.87548828 1779.30297852 C-70.17809792 1778.98273015 -72.88793063 1778.12135623 -76 1777 C-78.11918461 1776.66871308 -80.24501594 1776.37770997 -82.375 1776.125 C-91.75657342 1774.70871253 -97.18078655 1771.84279692 -103.30078125 1764.484375 C-107.93985707 1757.70172621 -109.34589019 1749.07534113 -108 1741 C-105.14578026 1736.67263458 -101.4135608 1735.05933805 -96.76171875 1733.16015625 C-94.06514996 1732.02736851 -91.45171962 1730.76661497 -88.82592773 1729.47998047 C-82.36306747 1726.34004138 -75.96135455 1723.92768332 -69.06787109 1721.91870117 C-63.32915969 1720.20630993 -57.95631501 1717.91441674 -52.50805664 1715.44311523 C-49.20885785 1713.95090244 -45.97432208 1712.58435944 -42.5 1711.5625 C-39.56948423 1710.67940792 -36.95699392 1709.49787086 -34.25390625 1708.08203125 C-33.56554687 1707.72230225 -32.8771875 1707.36257324 -32.16796875 1706.99194336 C-30.80682887 1706.2698637 -29.45324092 1705.53328182 -28.109375 1704.77954102 C-22.25718326 1701.66506673 -19.30443187 1701.73044319 -12 1701 C-12 1685.49 -12 1669.98 -12 1654 C-15.83625 1654.78375 -19.6725 1655.5675 -23.625 1656.375 C-24.82334473 1656.61782715 -26.02168945 1656.8606543 -27.25634766 1657.11083984 C-28.21589355 1657.30887207 -29.17543945 1657.5069043 -30.1640625 1657.7109375 C-31.13811035 1657.90993652 -32.1121582 1658.10893555 -33.11572266 1658.31396484 C-36.04656805 1658.96470723 -36.04656805 1658.96470723 -39.0090332 1660.01367188 C-53.71997531 1664.86488452 -70.52555914 1665.38087076 -85.9375 1665.4375 C-87.78420288 1665.45224365 -87.78420288 1665.45224365 -89.66821289 1665.46728516 C-90.81797607 1665.45616699 -91.96773926 1665.44504883 -93.15234375 1665.43359375 C-94.16288818 1665.42384521 -95.17343262 1665.41409668 -96.21459961 1665.40405273 C-99.43242516 1664.93727201 -101.27857063 1663.72642258 -104 1662 C-106.62034531 1661.70728688 -109.06720164 1661.54363038 -111.6875 1661.5 C-123.30895969 1661.00941552 -135.31266718 1657.93137346 -144.24609375 1650.0078125 C-150.46372257 1643.15678698 -151.46021093 1637.49895729 -151.31640625 1628.32421875 C-150.79620136 1622.85885631 -148.52789281 1620.44530401 -144.6875 1616.8125 C-139.57181982 1613.36239011 -134.47197333 1611.8348133 -128.5625 1610.25 C-122.45719226 1608.56555463 -116.9216298 1606.28140675 -111.1784668 1603.63769531 C-106.33428657 1601.4583666 -101.49858513 1599.88353034 -96.375 1598.5 C-88.32407161 1596.31961742 -81.3054278 1593.01740641 -74 1589 C-73.97494385 1588.30551758 -73.9498877 1587.61103516 -73.92407227 1586.89550781 C-73.80642049 1583.68022624 -73.68447795 1580.46512025 -73.5625 1577.25 C-73.50352539 1575.61224609 -73.50352539 1575.61224609 -73.44335938 1573.94140625 C-73.19278906 1567.42657818 -72.74231826 1561.01816701 -71.90600586 1554.54980469 C-72.02190426 1551.40579719 -73.01712407 1550.3667786 -75 1548 C-75.66015625 1544.8125 -75.66015625 1544.8125 -76.0625 1541 C-76.14064941 1540.30503418 -76.21879883 1539.61006836 -76.29931641 1538.89404297 C-76.73017644 1534.97831101 -77.08611073 1531.05737355 -77.42578125 1527.1328125 C-79.76276667 1500.50320342 -87.26027278 1472.2417477 -105.19140625 1451.55859375 C-110.3424265 1444.27151327 -113.23214232 1435.97296185 -116 1427.5625 C-117.94565029 1421.67413967 -119.95629888 1415.95138169 -122.6015625 1410.3359375 C-124.79171567 1405.64317042 -126.21741073 1401.0958084 -127.375 1396.0625 C-129.33261207 1388.07431025 -131.83120832 1380.38864806 -134.67724609 1372.67407227 C-138.50236743 1362.20062801 -138.94296836 1352.47687326 -136.49609375 1341.609375 C-135.97026575 1338.84360251 -135.77743063 1336.18567215 -135.625 1333.375 C-134.43113845 1316.44565183 -130.63774609 1299.79076319 -127 1283.25 C-126.7491011 1282.09732132 -126.7491011 1282.09732132 -126.49313354 1280.9213562 C-124.68884685 1272.67065169 -122.69333386 1264.65980425 -119.89746094 1256.67724609 C-118.52312779 1252.57742638 -117.58829508 1248.39876832 -116.625 1244.1875 C-114.50695832 1235.35776338 -111.56504742 1227.34257289 -108 1219 C-107.48132259 1217.67668235 -106.9684009 1216.35109587 -106.4609375 1215.0234375 C-102.26846008 1204.09730339 -102.26846008 1204.09730339 -99.25 1199.875 C-96.36446769 1195.67535585 -96.05492711 1191.23018845 -95.5546875 1186.24609375 C-95.02757385 1183.16136525 -94.04837999 1180.77559866 -92.75341797 1177.94848633 C-91.28708916 1174.15627305 -90.80569267 1170.11784816 -90.125 1166.125 C-88.56990236 1157.79653804 -86.53751078 1151.69066993 -81.40625 1144.88671875 C-77.39016484 1139.45587631 -74.41674392 1133.96812149 -71.6875 1127.8125 C-71.35000732 1127.05203369 -71.01251465 1126.29156738 -70.66479492 1125.50805664 C-69.1778007 1122.06071151 -67.87383897 1118.71789342 -66.95703125 1115.07421875 C-66 1112 -66 1112 -63 1110 C-62.59102948 1106.89681907 -62.38775665 1103.99261729 -62.3125 1100.875 C-62.28414062 1099.92592773 -62.25578125 1098.97685547 -62.2265625 1097.99902344 C-62.16983752 1095.86575897 -62.12173053 1093.73225427 -62.08056641 1091.59863281 C-62.02371359 1089.05920688 -61.94991263 1086.52510841 -61.85302734 1083.98730469 C-61.71832342 1080.44686275 -61.62304318 1076.90706062 -61.55111694 1073.36480713 C-61.51737301 1071.96875514 -61.47189267 1070.57293134 -61.41397095 1069.17767334 C-61.01151215 1059.03814627 -62.54646272 1053.73105971 -69 1046 C-70.95179216 1042.77267275 -72.54207918 1039.35354389 -74.2265625 1035.98046875 C-76.14176968 1032.76173951 -78.27382788 1030.55288056 -81 1028 C-82.24629504 1026.70375326 -83.47722613 1025.39244139 -84.6875 1024.0625 C-85.26886719 1023.43472656 -85.85023438 1022.80695313 -86.44921875 1022.16015625 C-89.98005919 1017.24188229 -90.44466109 1011.51238589 -91 1005.63671875 C-91.08121094 1004.84529984 -91.16242188 1004.05388092 -91.24609375 1003.23847961 C-91.50385932 1000.72208971 -91.75281727 998.20494989 -92 995.6875 C-92.24769215 993.1808264 -92.49753774 990.67445732 -92.75390625 988.1686554 C-92.91272764 986.61529198 -93.06672853 985.06142458 -93.21484375 983.50700378 C-93.58106813 979.9147572 -94.09621979 976.53409069 -95.02441406 973.04370117 C-96.72294444 965.69986114 -96.47532605 958.04085877 -96.609375 950.5390625 C-96.64664278 948.77755253 -96.68414487 947.01604751 -96.72186279 945.25454712 C-97.12936948 925.08405959 -97.2222499 904.9099089 -97.24023438 884.73583984 C-97.24581998 879.36641719 -97.27016352 873.99723533 -97.29820633 868.62788963 C-97.31688865 864.41199033 -97.32204019 860.19615035 -97.32357025 855.98021317 C-97.32655912 853.99893427 -97.33445665 852.01765543 -97.34775543 850.03641891 C-97.41737795 838.91994856 -96.99037015 828.7867631 -94 818 C-95.0725 818.433125 -96.145 818.86625 -97.25 819.3125 C-101.51946139 820.90800806 -105.82201413 821.99978339 -110.25 823.0625 C-113.97861072 823.99465268 -117.67443744 825.01152653 -121.37524414 826.04711914 C-126.24046795 827.40132998 -131.11818886 828.70701286 -136 830 C-137.06750488 830.28375488 -138.13500977 830.56750977 -139.23486328 830.85986328 C-150.32214695 833.75840304 -161.30285695 836.52576411 -172.8125 836.75 C-173.57651123 836.77755371 -174.34052246 836.80510742 -175.12768555 836.83349609 C-178.0326442 836.78382736 -180.32004359 836.55515038 -182.61474609 834.68164062 C-186 830.79587557 -186 830.79587557 -186 828 C-186.59167969 828.20496094 -187.18335938 828.40992188 -187.79296875 828.62109375 C-188.58316406 828.89050781 -189.37335938 829.15992188 -190.1875 829.4375 C-191.35345703 829.83775391 -191.35345703 829.83775391 -192.54296875 830.24609375 C-197.77071019 831.85015432 -202.90330689 832.24776935 -208.34375 832.5 C-209.14929321 832.54060547 -209.95483643 832.58121094 -210.78479004 832.62304688 C-213.35636686 832.75220319 -215.9281493 832.87642759 -218.5 833 C-221.86469994 833.16438229 -225.22924038 833.33177452 -228.59375 833.5 C-229.40489258 833.53907471 -230.21603516 833.57814941 -231.05175781 833.6184082 C-236.93831173 833.91225712 -242.7846279 834.38915434 -248.64648438 835.01171875 C-251 835 -251 835 -253 833 C-253.061875 831.7625 -253.12375 830.525 -253.1875 829.25 C-253.491021 826.08097051 -253.491021 826.08097051 -255.39526367 823.65478516 C-256.27275269 823.04062744 -256.27275269 823.04062744 -257.16796875 822.4140625 C-261.98850606 818.52180226 -264.34823001 813.56921832 -267.125 808.125 C-268.12528546 806.20972473 -269.12785598 804.29564097 -270.1328125 802.3828125 C-270.61250488 801.4640332 -271.09219727 800.54525391 -271.58642578 799.59863281 C-272.86819071 797.24231055 -274.23261392 794.99424913 -275.6875 792.7421875 C-277.88736486 789.30276488 -279.43028873 785.82976717 -280.875 782 C-282.70657108 777.21463405 -284.64112835 772.51283062 -286.76269531 767.84838867 C-289.6297864 761.53670109 -291.77568906 755.55315162 -293.26953125 748.75390625 C-294.00697993 745.97368528 -295.02351705 743.69076732 -296.3125 741.125 C-299.75857242 733.98374149 -301.48877741 726.33768446 -303.47265625 718.6953125 C-304.52925513 714.63245517 -305.73704837 710.64548904 -307.01953125 706.6484375 C-309.08743 700.00817939 -310.42786444 693.34415001 -311.625 686.5 C-311.82867187 685.37980469 -312.03234375 684.25960937 -312.2421875 683.10546875 C-314.10818648 672.73482056 -315.78934724 662.35052707 -316.9375 651.875 C-317.5861894 646.31527988 -318.64939053 641.08221851 -320.29296875 635.73046875 C-321.11949652 632.53851896 -321.44936905 629.40051452 -321.8125 626.125 C-322.49857861 620.86591887 -322.49857861 620.86591887 -325.875 617.0625 C-326.90625 616.381875 -327.9375 615.70125 -329 615 C-329.54785156 614.07058594 -330.09570312 613.14117188 -330.66015625 612.18359375 C-334.14684679 607.43959911 -338.7488554 605.46470164 -343.88867188 602.7890625 C-348.61591531 600.2008246 -351.20665799 598.34486246 -353 593 C-353.3984375 590.65625 -353.3984375 590.65625 -353.375 588.5 C-353.38273437 587.7884375 -353.39046875 587.076875 -353.3984375 586.34375 C-352.44081459 580.71067408 -349.29814619 577.16922421 -345.36328125 573.26953125 C-339.07229085 565.74556278 -339.90407284 558.00317999 -340.1875 548.6875 C-340.23412581 546.25498572 -340.26741264 543.82376503 -340.27839661 541.39082336 C-340.28784331 539.88903422 -340.3186671 538.38716772 -340.37480164 536.88639832 C-340.44484204 531.74600734 -339.19282125 528.9758956 -336 525 C-330.55292567 519.65450281 -324.98651159 518.98978177 -317.5625 518.9375 C-316.386875 518.958125 -315.21125 518.97875 -314 519 C-314.05220703 518.14728516 -314.05220703 518.14728516 -314.10546875 517.27734375 C-314.30234711 511.66162304 -313.59867192 507.98945008 -311 503 C-310.67 502.67 -310.34 502.34 -310 502 C-309.72771117 500.31595278 -309.48246288 498.62750511 -309.25 496.9375 C-308.32236726 491.62784094 -306.81938942 486.94599902 -303 483 C-300.39846422 481.90210417 -298.39276898 482.01233652 -295.5390625 482.0703125 C-291.33501159 482.12905173 -288.0799716 482.02332985 -284 481 C-281.59215116 478.41491274 -280.46310817 476.13298986 -279.17578125 472.859375 C-277.87787468 469.7030042 -276.15225905 467.63145684 -274 465 C-272.98794886 463.17459887 -272.03068376 461.31794509 -271.125 459.4375 C-270.61324219 458.38949219 -270.10148437 457.34148437 -269.57421875 456.26171875 C-269.05472656 455.18535156 -268.53523438 454.10898437 -268 453 C-265.02540792 446.89267297 -262.05219132 440.94731455 -258.34375 435.25390625 C-256.21693895 431.68655167 -254.4678708 427.92886665 -252.65649414 424.19482422 C-250.99688746 420.82712897 -249.23037638 417.76546886 -247 414.75 C-243.5760379 409.87289749 -241.74033816 404.47567 -239.67578125 398.93115234 C-237.40452241 392.88068813 -234.73079029 387.24847031 -231.75390625 381.5078125 C-229.82316034 377.64632067 -228.12247368 373.72275121 -226.4375 369.75 C-224.5297053 365.2685072 -222.56163741 361.05821577 -219.9375 356.9375 C-217.08601633 352.42958416 -215.15772188 347.69036461 -213.24755859 342.73583984 C-211.23003874 337.50916561 -208.95217566 332.44583938 -206.55859375 327.37890625 C-205.44253165 324.95937312 -204.3751373 322.54608129 -203.34765625 320.08984375 C-200.11497643 312.38818752 -196.55284536 305.39146452 -192.03515625 298.33203125 C-188.63944683 292.77245325 -185.85469724 286.92047688 -183.00878906 281.06591797 C-180.9936544 276.93908604 -178.92356206 272.83952952 -176.86376953 268.73486328 C-175.34940167 265.71285809 -173.84836215 262.68688243 -172.375 259.64453125 C-170.18549106 255.14577461 -167.99841485 250.85156797 -165.125 246.75 C-161.08058925 240.90456259 -158.13919071 234.4975451 -155.03662109 228.12158203 C-153.03480706 224.02460511 -150.98155786 219.95320378 -148.93457031 215.87866211 C-147.31609492 212.65165771 -145.71454894 209.41872623 -144.15234375 206.1640625 C-143.85271729 205.5467627 -143.55309082 204.92946289 -143.24438477 204.29345703 C-142.43583187 202.62549029 -141.63554419 200.95352389 -140.8359375 199.28125 C-139.36458959 196.65160693 -137.91303451 194.529479 -136.0703125 192.1796875 C-132.81112685 187.94547986 -130.66221442 183.48961513 -128.5 178.625 C-125.79373241 172.72046751 -123.0115197 167.08152275 -119.52734375 161.58984375 C-117.47818044 158.11517553 -115.75897274 154.5030617 -114 150.875 C-111.95443639 146.66710699 -110.03583137 142.72180021 -107 139.125 C-103.81874686 135.24731036 -102.07627178 130.88734624 -100.125 126.3125 C-97.27089696 119.63213627 -94.08269325 113.5405905 -90.140625 107.41796875 C-87.52581241 103.32462983 -85.21115109 99.06897252 -82.875 94.8125 C-80.25651303 90.04187927 -77.62574744 85.30977468 -74.75 80.6875 C-72.53310595 77.06947909 -70.74332846 73.36857166 -69 69.5 C-65.52520422 61.79227118 -61.18778051 54.84765856 -56.625 47.75 C-53.5421503 42.94538214 -50.70872045 38.03259568 -47.91723633 33.05615234 C-46.02556991 29.70925168 -44.03013768 26.51381026 -41.8125 23.375 C-39.46302001 19.98412888 -37.94177402 16.59010324 -36.4375 12.75 C-34.61044029 8.15024583 -32.93833373 5.15066699 -29 2 C-28.175 1.278125 -27.35 0.55625 -26.5 -0.1875 C-17.64868236 -6.60470529 -9.24662468 -4.32763539 0 0 Z " fill="#9B9B9B" transform="translate(618,204)"/>
<path d="M0 0 C2.3342215 2.94871728 4.1240857 5.95353102 5.85546875 9.2890625 C6.39623047 10.31386719 6.93699219 11.33867188 7.49414062 12.39453125 C8.60920353 14.52176775 9.71872972 16.65191718 10.82226562 18.78515625 C14.11364958 24.99575354 17.70642471 30.38076858 22.20825195 35.77539062 C24.555495 38.68969484 26.24079914 41.63507159 28 44.9375 C30.98782643 50.3955006 34.34405204 55.39066391 38.0703125 60.37109375 C43.91642663 68.33553668 48.83769753 76.97291386 53.87890625 85.4609375 C55.08644265 87.49002516 56.31386739 89.48892365 57.58984375 91.4765625 C62.68222219 99.4607348 66.26699384 108.20912474 70.04199219 116.86865234 C70.97427629 118.94277065 71.96824871 120.97379655 73 123 C72.32453125 123.38671875 71.6490625 123.7734375 70.953125 124.171875 C69.61507812 124.95304688 69.61507812 124.95304688 68.25 125.75 C67.36828125 126.26046875 66.4865625 126.7709375 65.578125 127.296875 C62.93086945 128.92207914 62.93086945 128.92207914 60.796875 131.203125 C60.20390625 131.79609375 59.6109375 132.3890625 59 133 C58.34 133 57.68 133 57 133 C55.58124987 130.81683708 54.27932016 128.63847619 53 126.375 C49.95946313 121.12985734 46.75756245 116.16434873 43.125 111.3125 C38.32594271 104.84975691 34.50615682 97.9516881 30.75439453 90.83911133 C28.46620128 86.52517145 26.13891998 82.76670397 23 79 C20.3315565 74.3845236 18.17133169 69.55429214 16.3125 64.5625 C13.65221575 57.68283048 10.0131574 51.27185265 6.53515625 44.78125 C6.12233398 43.99097412 5.70951172 43.20069824 5.28417969 42.38647461 C4.43104565 40.80104016 3.5301229 39.24037615 2.58300781 37.70922852 C-1.75553314 30.26304211 -1.61925175 23.39787541 -1.375 14.9375 C-1.35845289 13.5944266 -1.34411526 12.25132409 -1.33203125 10.90820312 C-1.18279221 1.18279221 -1.18279221 1.18279221 0 0 Z " fill="#FDFDFD" transform="translate(350,797)"/>
</svg>
