<?xml version="1.0" encoding="UTF-8"?>
<svg version="1.1" xmlns="http://www.w3.org/2000/svg" width="474" height="634">
<path d="M0 0 C156.42 0 312.84 0 474 0 C474 209.22 474 418.44 474 634 C317.58 634 161.16 634 0 634 C0 424.78 0 215.56 0 0 Z " fill="#FEFEFE" transform="translate(0,0)"/>
<path d="M0 0 C0.85078125 0.31582031 1.7015625 0.63164062 2.578125 0.95703125 C10.54894302 4.14297199 13.26801591 9.55723628 17 17 C17.99 18.485 17.99 18.485 19 20 C19.42016646 23.15663521 19.73593071 26.28674132 19.94726562 29.46289062 C20.31982435 33.18478913 20.70063795 34.72362971 23.4921875 37.30078125 C24.31976563 37.86152344 25.14734375 38.42226562 26 39 C27.3125 41.75 27.3125 41.75 28 44 C34.67663743 41.86347602 37.08947158 38.63398296 41 33 C46.31278641 25.96450314 52.53462526 20.82179158 61 18 C69.21984955 17.24079542 75.95184349 18.39129229 82.5 23.5625 C83.7375 24.7690625 83.7375 24.7690625 85 26 C85 26.66 85 27.32 85 28 C85.61875 28.2475 86.2375 28.495 86.875 28.75 C89 30 89 30 89.875 32.0625 C90.24625 32.701875 90.6175 33.34125 91 34 C91.928125 34.144375 92.85625 34.28875 93.8125 34.4375 C98.16060629 35.20481288 99.28421692 36.51822683 102 40 C103.40811041 42.82029051 104.67744369 45.66329278 105.88671875 48.57421875 C106.88207654 51.11388906 106.88207654 51.11388906 109 53 C109.50597087 54.47747058 109.94512055 55.9783076 110.34375 57.48828125 C111.91383121 62.97666184 114.09340978 68.02087645 116.5 73.1875 C117.28177334 74.88908257 118.06303327 76.59090113 118.84375 78.29296875 C119.21234131 79.09516846 119.58093262 79.89736816 119.96069336 80.72387695 C124.15163189 89.90219969 124.15163189 89.90219969 124.9375 93.9375 C125.77767921 97.53925186 127.15223146 100.49768255 128.87109375 103.7578125 C130.66734365 107.32545071 132.12884727 111.02514473 133.64453125 114.71875 C135.08367505 118.20255633 136.56906516 121.66414343 138.0625 125.125 C139.79406623 129.14470732 141.47682125 133.17071355 143.0625 137.25 C144.366637 140.57257309 145.84794616 143.71149266 147.5 146.875 C151.82503399 155.47183679 154.06757131 163.45100738 154.8125 173 C155.50961309 181.38457569 158.05748241 187.11043003 163 194 C169.14143954 202.65842296 171.09016153 212.22789501 173.5625 222.4375 C174.65014573 226.90100789 176.08953614 230.83171522 178 235 C178.82324125 237.75399598 179.12811231 240.21256828 179.1328125 243.08203125 C179.13410156 243.84966797 179.13539063 244.61730469 179.13671875 245.40820312 C179.13285156 246.20162109 179.12898438 246.99503906 179.125 247.8125 C179.12886719 248.59431641 179.13273437 249.37613281 179.13671875 250.18164062 C179.12884953 254.89136737 178.78139148 259.35506176 178 264 C176.68 264.33 175.36 264.66 174 265 C173.938125 266.175625 173.87625 267.35125 173.8125 268.5625 C173.26315096 273.38786318 171.88629047 277.71430617 170.29248047 282.28881836 C168.01305028 288.85233486 165.96848896 295.48083911 163.9375 302.125 C163.60935303 303.1967749 163.28120605 304.2685498 162.94311523 305.37280273 C162.45887085 306.95557007 162.45887085 306.95557007 161.96484375 308.5703125 C161.64112793 309.62379883 161.31741211 310.67728516 160.98388672 311.76269531 C160.3109558 313.9768551 159.65174992 316.19522024 159.00439453 318.41699219 C157.3708209 323.94834106 155.65503538 329.07678311 152.9375 334.16552734 C151.27172878 337.42505989 150.12336948 340.83509488 149 344.3125 C148.61545654 345.49912231 148.61545654 345.49912231 148.22314453 346.7097168 C145.63918504 355.25235499 144.48925093 363.98616187 143.46875 372.83520508 C142.64174296 379.50733793 141.86782956 384.13217044 137 389 C136.88966407 391.18810774 136.84400569 393.37951402 136.82421875 395.5703125 C136.80095615 396.95704535 136.77683655 398.34376404 136.75195312 399.73046875 C136.7173454 401.90422128 136.6878001 404.07747498 136.67407227 406.25146484 C136.57937454 418.80692632 134.55003862 429.67003263 129.9375 441.4375 C128.20066225 445.969561 127.26418119 450.4261658 126.4375 455.1875 C125.46524427 460.78478534 124.28652519 465.78672256 122 471 C121.46632813 472.22396484 121.46632813 472.22396484 120.921875 473.47265625 C119.96352379 475.65594229 118.98928688 477.83059933 118 480 C118.33 480.33 118.66 480.66 119 481 C119.23857539 484.2491696 119.39468641 487.49096203 119.51757812 490.74609375 C119.68566961 494.16501106 119.99046017 496.96932578 121.015625 500.265625 C122.4120123 505.56303079 122.34053513 510.66911939 122.3125 516.125 C122.30758545 517.2377832 122.3026709 518.35056641 122.29760742 519.49707031 C122.01511298 539.30934712 122.01511298 539.30934712 116.4375 545.25 C112.30185721 548.21917944 109.2029894 548.15140186 104.25 548.125 C103.46592773 548.12741699 102.68185547 548.12983398 101.87402344 548.13232422 C97.26847949 548.11882614 92.71620997 547.93100501 88.125 547.5625 C86.65885254 547.45591064 86.65885254 547.45591064 85.16308594 547.34716797 C83.25261806 547.20146517 81.34393395 547.02948383 79.43847656 546.82861328 C74.59185987 546.43154948 74.59185987 546.43154948 70.15014648 548.08935547 C66.56492121 551.44074963 64.55546272 555.41195631 62.5625 559.875 C59.71405418 565.97513304 56.28410271 572.85794865 50 576 C46.68233817 576.50799737 43.34522698 576.74341964 40 577 C39.28457031 577.07863281 38.56914062 577.15726563 37.83203125 577.23828125 C29.99699139 577.7527773 21.3844196 575.10491972 14.9921875 570.578125 C12.68357081 568.12439526 11.99557033 565.97391415 11.4375 562.6875 C12.54967156 555.39659756 15.30581694 549.7882903 21 545 C22.35359803 544.04086367 23.70780479 543.08258604 25.0625 542.125 C30.21003245 538.32493838 32.60434386 534.24296822 33.9375 527.9375 C34.89121813 523.52977568 36.82706811 521.17293189 40 518 C40.66 518 41.32 518 42 518 C41.71259058 516.62410383 41.41982258 515.24932678 41.125 513.875 C40.96257812 513.10929688 40.80015625 512.34359375 40.6328125 511.5546875 C40.02458758 508.92706099 40.02458758 508.92706099 39.00390625 506.16015625 C37.87610113 502.60998371 37.25553105 499.2619986 36.8125 495.5625 C36.63332031 494.30566406 36.45414062 493.04882812 36.26953125 491.75390625 C37.27237318 486.60026401 39.86031264 485.17919433 44.0378418 482.26538086 C44.685354 481.84780518 45.33286621 481.43022949 46 481 C45.8141333 480.29842773 45.6282666 479.59685547 45.43676758 478.87402344 C33.00667133 431.57453854 33.00667133 431.57453854 34.00805664 407.99145508 C34.21919078 402.33995623 33.92950408 398.99910398 31 394 C27.54969697 377.68798297 28.78464126 359.79795426 28.75976562 343.23803711 C28.74999097 339.30887211 28.71882468 335.38021654 28.6875 331.45117188 C28.63379099 318.56874754 28.92699251 306.53676592 32 294 C32.5054111 291.46271932 32.96983516 288.91967212 33.4375 286.375 C38.23341519 262.52163237 38.23341519 262.52163237 44 255 C44.95272244 252.03066181 45.11757107 249.34108619 45.09765625 246.234375 C45.09282227 244.90019531 45.09282227 244.90019531 45.08789062 243.5390625 C45.07951172 242.61867188 45.07113281 241.69828125 45.0625 240.75 C45.05573242 239.34621094 45.05573242 239.34621094 45.04882812 237.9140625 C45.03706918 235.60930959 45.02063426 233.30468773 45 231 C43.90429688 230.87367188 42.80859375 230.74734375 41.6796875 230.6171875 C38 230 38 230 35.125 228.125 C32.44649323 224.18601946 32.5752856 221.40538043 32.37109375 216.74609375 C31.97408265 213.80821159 31.32158798 212.58015422 29.5625 210.25 C25.55043198 204.73050757 25.57586615 197.60097322 25 191 C23.35310365 191.97737769 21.70751146 192.9569532 20.0625 193.9375 C19.14597656 194.48277344 18.22945312 195.02804688 17.28515625 195.58984375 C15.11587323 196.80732173 15.11587323 196.80732173 14 198 C7.54733418 198.79012235 3.92009536 196.84583873 -1 193 C-4.72045442 189.68175687 -5.37853853 186.60676846 -6.375 181.875 C-7.30636679 177.10532849 -7.30636679 177.10532849 -10.875 174 C-11.90625 173.67 -12.9375 173.34 -14 173 C-18.24480487 170.14791761 -20.16079164 167.35365509 -22.3125 162.75 C-22.82425781 161.67234375 -23.33601562 160.5946875 -23.86328125 159.484375 C-24.23839844 158.66453125 -24.61351562 157.8446875 -25 157 C-25.67836914 157.1451001 -26.35673828 157.2902002 -27.05566406 157.43969727 C-46.62185885 161.58242426 -66.26538163 164.88715121 -86.0246582 167.96243286 C-86.94077881 168.10502533 -87.85689941 168.2476178 -88.80078125 168.39453125 C-89.69982178 168.53430389 -90.5988623 168.67407654 -91.52514648 168.81808472 C-98.40838824 169.89369109 -105.26971664 171.07089262 -112.125 172.3125 C-119.12105133 173.57287687 -126.08098275 174.51556822 -133.15429688 175.2121582 C-140.36944903 175.95741172 -147.46914584 177.25116984 -154.60449219 178.53686523 C-161.41103429 179.75345778 -168.18932187 180.70777525 -175.05859375 181.50390625 C-179.49742748 182.0626098 -183.89867042 182.77415032 -188.3125 183.5 C-195.00658518 184.57410483 -201.70646414 185.56123727 -208.4375 186.375 C-209.23647705 186.48392578 -210.0354541 186.59285156 -210.85864258 186.70507812 C-214.1909715 187.08192939 -216.44608538 187.2852704 -219.47265625 185.7265625 C-222.46447236 182.34450951 -222.28958252 178.62560251 -222.19921875 174.34375 C-221.87824424 170.56757934 -221.03714417 168.21004536 -219 165 C-212.11733749 159.4766886 -204.05521577 158.71463367 -195.5625 157.8125 C-194.15618515 157.64907598 -192.74993637 157.48508254 -191.34375 157.32055664 C-179.6460988 155.99748166 -167.92501894 155.31741669 -156.17211914 154.71582031 C-145.00782681 154.13347029 -134.00597942 152.92574493 -122.93359375 151.39550781 C-117.62985705 150.68045676 -112.31572982 150.05606479 -107 149.4375 C-105.38073608 149.24812866 -105.38073608 149.24812866 -103.72875977 149.05493164 C-96.30764186 148.20860036 -88.88470733 147.56519778 -81.4375 147 C-73.95388557 146.42916978 -66.68293085 145.54476183 -59.31835938 144.11206055 C-53.55219304 143.01936923 -47.77855525 142.36670495 -41.9375 141.8125 C-41.06843018 141.72871094 -40.19936035 141.64492187 -39.30395508 141.55859375 C-34.18068112 141.09918721 -29.1433865 140.92270055 -24 141 C-23.92652344 140.16082031 -23.92652344 140.16082031 -23.8515625 139.3046875 C-23.59315383 136.53347727 -23.29589182 133.76745878 -23 131 C-22.90074219 129.90300781 -22.80148438 128.80601562 -22.69921875 127.67578125 C-21.35746322 115.57287532 -16.85109781 104.94817865 -9 95.625 C-6.47164014 92.30652768 -4.75820527 88.76891875 -3 85 C-3.83402344 84.99742188 -4.66804687 84.99484375 -5.52734375 84.9921875 C-13.64050103 84.71338484 -18.89833935 83.4621853 -25 78 C-27.1875 75.625 -27.1875 75.625 -29 73 C-30.03675569 71.60051517 -31.07879313 70.2049336 -32.125 68.8125 C-32.62257812 68.13832031 -33.12015625 67.46414062 -33.6328125 66.76953125 C-35.02468088 64.89050136 -35.02468088 64.89050136 -37 63 C-37.40047444 60.67724823 -37.7397104 58.34260643 -38 56 C-38.825 56.165 -39.65 56.33 -40.5 56.5 C-44.41272317 57.05896045 -48.05183173 57.06807187 -52 57 C-53.125 55.375 -53.125 55.375 -54 53 C-53.649375 52.05125 -53.29875 51.1025 -52.9375 50.125 C-51.63304781 46.9982098 -51.63304781 46.9982098 -53.25 44.125 C-53.8275 43.09375 -54.405 42.0625 -55 41 C-57.69147551 33.06723006 -59.06889157 22.69121421 -55.625 14.8125 C-51.04581277 7.33693639 -45.08284961 -0.41597971 -36.30078125 -2.6328125 C-35.54152344 -2.75398438 -34.78226563 -2.87515625 -34 -3 C-32.9275 -3.17660156 -31.855 -3.35320313 -30.75 -3.53515625 C-19.90293013 -4.87974095 -9.8729515 -5.12372138 0 0 Z " fill="#9B9B9B" transform="translate(248,31)"/>
<path d="M0 0 C0.33 0 0.66 0 1 0 C1.90326139 3.86716165 2.13706433 7.47179654 2.16113281 11.43920898 C2.17074036 12.72081406 2.1803479 14.00241913 2.19024658 15.32286072 C2.19509428 16.71393657 2.19937318 18.10501451 2.203125 19.49609375 C2.20595238 20.20113604 2.20877975 20.90617832 2.21169281 21.63258553 C2.22664453 25.36126196 2.2359002 29.08990009 2.24023438 32.81860352 C2.24572311 36.65970049 2.26977073 40.50044372 2.29820633 44.34142971 C2.31687121 47.30549636 2.32204027 50.26947827 2.32357025 53.23359871 C2.32658699 54.64932254 2.33458236 56.06504523 2.34775543 57.48071098 C2.36489999 59.46420084 2.36107876 61.44783795 2.35644531 63.43139648 C2.36009094 64.55770981 2.36373657 65.68402313 2.36749268 66.84446716 C1.94298359 70.4895802 0.90003833 72.87502782 -1 76 C-3.6875 77.875 -3.6875 77.875 -6 79 C-9.14239074 66.274616 -8.14984475 52.44953425 -4 40 C-3.88336755 37.74931871 -3.82135226 35.49565744 -3.7890625 33.2421875 C-3.76096677 31.88019687 -3.73230217 30.51821789 -3.703125 29.15625 C-3.66211577 27.02376985 -3.62520559 24.89150052 -3.59863281 22.75878906 C-3.48947267 14.68470262 -3.1406084 7.54081911 0 0 Z " fill="#FCFCFC" transform="translate(338,426)"/>
</svg>
