<?xml version="1.0" encoding="UTF-8"?>
<svg version="1.1" xmlns="http://www.w3.org/2000/svg" width="474" height="634">
<path d="M0 0 C156.42 0 312.84 0 474 0 C474 209.22 474 418.44 474 634 C317.58 634 161.16 634 0 634 C0 424.78 0 215.56 0 0 Z " fill="#FEFEFE" transform="translate(0,0)"/>
<path d="M0 0 C2.97967981 1.97666772 4.9434528 4.09771297 7 7 C7.71542969 7.90685547 7.71542969 7.90685547 8.4453125 8.83203125 C14.28174079 16.48609006 14.83179329 23.49798484 14 33 C12.96029412 37.45521025 11.57810094 41.70934003 10 46 C8.74458443 49.76624671 9.62938042 51.37188934 11 55 C7.44181064 57.26273207 4.87452049 57.07331744 0.75 56.625 C-0.32765625 56.51414063 -1.4053125 56.40328125 -2.515625 56.2890625 C-3.33546875 56.19367188 -4.1553125 56.09828125 -5 56 C-5.020625 56.99 -5.04125 57.98 -5.0625 59 C-5.68036918 63.49772419 -8.1973146 65.8908781 -11.2421875 69.08984375 C-13.18699166 71.0832268 -13.18699166 71.0832268 -14.9375 74.125 C-18.02842697 78.43356487 -22.25358064 81.62679032 -27 84 C-29.204364 84.22950319 -31.41392173 84.41075933 -33.625 84.5625 C-35.40777344 84.68818359 -35.40777344 84.68818359 -37.2265625 84.81640625 C-38.14179688 84.87699219 -39.05703125 84.93757813 -40 85 C-36.21236815 92.64017811 -36.21236815 92.64017811 -31 99.3125 C-21.50411647 109.88009742 -18.60600513 127.16640226 -19 141 C-17.85789063 141.02578125 -16.71578125 141.0515625 -15.5390625 141.078125 C-5.80767148 141.38670124 3.64348848 142.27983921 13.25 143.875 C23.35578966 145.54916106 33.42786323 146.72247794 43.625 147.625 C44.66450302 147.71729889 44.66450302 147.71729889 45.7250061 147.8114624 C47.75805813 147.99170948 49.79113313 148.17169479 51.82421875 148.3515625 C60.37787488 149.10871744 68.87092061 150.15552109 77.37792969 151.32763672 C91.13818944 153.20123204 104.86987615 154.40126191 118.72158813 155.31295776 C145.9243982 157.10395821 145.9243982 157.10395821 157.125 158.375 C158.02806885 158.46458984 158.9311377 158.55417969 159.86157227 158.64648438 C165.94651827 159.4054086 171.04278778 161.31810647 176 165 C179.17190046 169.99814618 179.82640795 175.19367918 179 181 C177.72800238 184.27852908 177.05762161 184.96158559 174 187 C171.5300293 187.01513672 171.5300293 187.01513672 168.57421875 186.6796875 C167.47835449 186.55843506 166.38249023 186.43718262 165.25341797 186.31225586 C163.48828857 186.09581421 163.48828857 186.09581421 161.6875 185.875 C160.47723145 185.73392822 159.26696289 185.59285645 158.02001953 185.44750977 C149.49858475 184.41323558 141.08255229 183.03668295 132.65576172 181.41381836 C126.53698189 180.24267646 120.44995511 179.378324 114.25708008 178.71850586 C108.17952363 178.06039889 102.17066419 177.09457251 96.14013672 176.10083008 C90.9145522 175.25668093 85.704884 174.63453488 80.4375 174.125 C72.34906228 173.30767371 64.47509196 171.78002858 56.51147461 170.1706543 C43.16803238 167.53684323 29.71589333 165.58028707 16.2644043 163.5871582 C4.71570748 161.85581655 -6.63965551 159.70772408 -18 157 C-18.73343628 158.43811035 -18.73343628 158.43811035 -19.48168945 159.90527344 C-25.999707 172.68570001 -25.999707 172.68570001 -32.72265625 174.89453125 C-35.26671834 175.80266369 -35.26671834 175.80266369 -35.93359375 178.57421875 C-36.09988281 179.60160156 -36.26617187 180.62898437 -36.4375 181.6875 C-38.00306211 189.02277416 -40.72406756 192.8392786 -46.9375 196.9375 C-50.739991 198.25673157 -52.99031358 198.61164708 -57 198 C-60.18865009 196.23785127 -63.06901451 194.15496082 -66 192 C-66.66 191.67 -67.32 191.34 -68 191 C-68.12955078 192.485 -68.12955078 192.485 -68.26171875 194 C-68.95956902 200.87569826 -69.644861 206.38518545 -73.91015625 212.03515625 C-75.34646852 214.62463679 -75.37103011 216.74464162 -75.5 219.6875 C-75.70578648 223.59202771 -75.84931787 224.77840863 -78.125 228.125 C-81.48809359 230.31832191 -84.05581251 230.54525838 -88 231 C-88.08797281 234.18732254 -88.14071341 237.37432788 -88.1875 240.5625 C-88.21263672 241.45775391 -88.23777344 242.35300781 -88.26367188 243.27539062 C-88.32656015 248.99822407 -87.74258826 252.94646569 -85 258 C-84.34 258.66 -83.68 259.32 -83 260 C-82.27433856 262.62648311 -81.64010276 265.21602075 -81.0625 267.875 C-80.71163235 269.42984446 -80.36006674 270.98453158 -80.0078125 272.5390625 C-79.83668945 273.30250977 -79.66556641 274.06595703 -79.48925781 274.85253906 C-78.84892767 277.66308994 -78.14893494 280.45668175 -77.4375 283.25 C-76.39155951 287.41089986 -75.36593642 291.5756205 -74.375 295.75 C-74.13523438 296.75546875 -73.89546875 297.7609375 -73.6484375 298.796875 C-72.00405522 306.91972722 -71.8531601 314.78891775 -71.8671875 323.0546875 C-71.86623077 324.31024445 -71.86527405 325.56580139 -71.86428833 326.85940552 C-71.86360944 329.51372758 -71.8649344 332.16795689 -71.86962891 334.82226562 C-71.87637813 338.826844 -71.86969726 342.8313582 -71.86328125 346.8359375 C-71.85000992 392.27501488 -71.85000992 392.27501488 -77 400 C-77.1948486 402.25617048 -77.1948486 402.25617048 -77.01953125 404.77734375 C-76.98690186 405.75147217 -76.95427246 406.72560059 -76.9206543 407.72924805 C-76.88496338 408.78797119 -76.84927246 409.84669434 -76.8125 410.9375 C-76.57351335 425.37039846 -78.99131119 438.93151828 -82 453 C-82.22945312 454.08200684 -82.45890625 455.16401367 -82.6953125 456.27880859 C-86.48121857 473.93821096 -86.48121857 473.93821096 -89 481 C-88.33871094 481.33128906 -87.67742187 481.66257812 -86.99609375 482.00390625 C-84.06903249 483.78695578 -82.1041502 485.27598993 -80 488 C-78.89379848 496.11214446 -80.82781723 503.59824019 -84 511 C-84.48152347 513.34011406 -84.75206252 515.61980019 -85 518 C-84.4225 518.20625 -83.845 518.4125 -83.25 518.625 C-77.87732397 521.90830202 -76.60773859 527.27243126 -75 533 C-72.74202322 538.3995097 -70.34444628 540.63476166 -65.5 543.9375 C-59.2707045 548.20664385 -57.36846869 551.89459392 -55 559 C-54.53302021 563.12498816 -54.6975765 565.41841635 -56.625 569.125 C-61.70386018 574.47722659 -70.17224127 576.5558701 -77.265625 577.37890625 C-80.22139057 577.4357479 -83.05901441 577.2848818 -86 577 C-87.20269531 576.96132812 -87.20269531 576.96132812 -88.4296875 576.921875 C-93.75146227 576.36944163 -96.22778488 574.13250335 -99.6875 570.125 C-103.35450884 565.28658555 -106.04928363 560.3061319 -108.41796875 554.7265625 C-110.41997874 551.27618478 -112.37540649 548.70634003 -116 547 C-119.73506648 546.54385449 -123.32480616 546.85191852 -127.0625 547.1875 C-129.12619143 547.32459271 -131.18999417 547.46002025 -133.25390625 547.59375 C-134.24406738 547.6659375 -135.23422852 547.738125 -136.25439453 547.8125 C-152.30948941 548.90891765 -152.30948941 548.90891765 -159 546 C-166.0579642 538.13641209 -165.28165968 526.02474216 -165.3125 516.125 C-165.31789795 515.04323486 -165.3232959 513.96146973 -165.32885742 512.84692383 C-165.2781452 507.15436653 -164.70989953 502.4638169 -163 497 C-162.64329054 494.25519678 -162.49876124 491.51400099 -162.375 488.75 C-162.33632812 488.04359375 -162.29765625 487.3371875 -162.2578125 486.609375 C-161.99216877 481.60009323 -161.85142138 478.00226416 -163.8125 473.375 C-166.81745855 466.01073539 -169.03511517 459.11442072 -170.375 451.25 C-171.4692431 444.85570376 -173.23214321 439.14179936 -175.81640625 433.16015625 C-179.55999115 423.16490811 -179.35275272 413.08531252 -179.38085938 402.5546875 C-179.39039426 400.42650159 -179.4241353 398.2997399 -179.4609375 396.171875 C-179.46915527 394.9147168 -179.47737305 393.65755859 -179.48583984 392.36230469 C-180.08906262 388.4175829 -181.42192674 386.96231719 -184 384 C-184.78955078 381.67919922 -184.78955078 381.67919922 -185.1953125 379.3046875 C-185.35241699 378.42989746 -185.50952148 377.55510742 -185.67138672 376.65380859 C-185.8210791 375.73680176 -185.97077148 374.81979492 -186.125 373.875 C-186.37854248 372.4511499 -186.37854248 372.4511499 -186.63720703 370.99853516 C-187.29474658 367.28608345 -187.91247143 363.57034743 -188.484375 359.84375 C-189.43576998 353.83093371 -191.0744131 348.1180892 -192.875 342.3125 C-193.24214111 341.11729736 -193.24214111 341.11729736 -193.61669922 339.89794922 C-194.82556739 336.11718845 -196.1424593 332.57433083 -197.984375 329.0546875 C-200.36290128 324.48177526 -201.86274705 319.72853206 -203.375 314.8125 C-203.67317627 313.86141357 -203.97135254 312.91032715 -204.27856445 311.93041992 C-206.62680398 304.37632454 -208.80351888 296.77693886 -210.92773438 289.15722656 C-212.46581421 283.69012807 -214.27755345 278.41041913 -216.3203125 273.109375 C-217.20842524 270.35316304 -217.31011574 267.86857058 -217 265 C-218.32 264.67 -219.64 264.34 -221 264 C-222.77018222 251.01382713 -223.01926206 240.05005593 -218.36328125 227.6953125 C-216.95861663 223.88782616 -215.93453397 220.18252444 -214.9375 216.25 C-212.54919388 207.13447307 -210.13681122 198.96059809 -204.5625 191.265625 C-200.30360854 185.09023239 -198.51895415 181.03605889 -198.125 173.625 C-197.06230276 160.86073724 -192.82871829 149.69846796 -186.43359375 138.65234375 C-183.39390519 133.02850579 -181.42154388 126.92449629 -179.24902344 120.92675781 C-178.72256139 119.47784555 -178.19357826 118.0298469 -177.66210938 116.58276367 C-177.14900076 115.18428805 -176.64217239 113.78348724 -176.14257812 112.38012695 C-174.82983059 108.79569679 -173.40846341 105.95252402 -171 103 C-169.25201278 99.36418659 -168.05786493 96.25057106 -167.1484375 92.3125 C-166.02227728 87.69721133 -164.18045892 83.54868486 -162.1875 79.25 C-161.46904696 77.6671225 -160.75160065 76.08378767 -160.03515625 74.5 C-159.68727051 73.73429687 -159.33938477 72.96859375 -158.98095703 72.1796875 C-155.20714399 63.79592243 -155.20714399 63.79592243 -152.1015625 55.15234375 C-150.77540766 51.35728363 -149.09726051 47.87658469 -147.25 44.3125 C-146.92773438 43.64927734 -146.60546875 42.98605469 -146.2734375 42.30273438 C-143.94569102 37.82317574 -141.93380029 35.76112925 -137 34 C-136.01 34 -135.02 34 -134 34 C-133.76539063 33.43410156 -133.53078125 32.86820313 -133.2890625 32.28515625 C-129.81407659 26.12495396 -122.89436841 20.34990291 -116.05078125 18.375 C-106.75641949 16.67545956 -100.82288265 18.76071147 -93 24 C-89.18860431 26.79111439 -86.36237351 29.7968558 -83.4375 33.5 C-78.43116587 40.53940003 -78.43116587 40.53940003 -71 44 C-70.6596875 42.88625 -70.6596875 42.88625 -70.3125 41.75 C-69 39 -69 39 -66.4765625 37.2734375 C-63.15568736 34.22493698 -63.32195469 32.30848894 -63.0625 27.875 C-62.42928767 20.63301817 -60.18585541 15.85806737 -56 10 C-55.60554687 9.17242187 -55.21109375 8.34484375 -54.8046875 7.4921875 C-52.2129414 3.91310955 -49.00528109 2.58549343 -45.0625 0.75 C-44.34642578 0.399375 -43.63035156 0.04875 -42.89257812 -0.3125 C-29.68089425 -6.67957657 -13.47117191 -5.24650452 0 0 Z " fill="#9B9B9B" transform="translate(269,31)"/>
<path d="M0 0 C4.28109985 4.28109985 4.25574027 10.49116563 4.34375 16.25390625 C4.3583728 16.91784897 4.37299561 17.58179169 4.38806152 18.26585388 C4.44962711 21.07280301 4.48980458 23.87995592 4.53173828 26.68725586 C4.56568974 28.7513612 4.61072917 30.8150287 4.65625 32.87890625 C4.67494141 34.1016626 4.69363281 35.32441895 4.71289062 36.58422852 C5.00320331 40.03811017 5.81485856 42.75851481 7 46 C7.4635176 48.6157572 7.86792264 51.18076009 8.1875 53.8125 C8.27427002 54.51955078 8.36104004 55.22660156 8.45043945 55.95507812 C9.03428745 61.19347544 8.93935522 65.8437567 8 71 C7.80520468 72.51991614 7.61746273 74.04075636 7.4375 75.5625 C7.293125 76.696875 7.14875 77.83125 7 79 C2.61117004 76.42394764 0.45510762 74.89652338 -1 70 C-1.24723816 66.96472168 -1.24723816 66.96472168 -1.24291992 63.54492188 C-1.24599655 62.26008911 -1.24907318 60.97525635 -1.25224304 59.65148926 C-1.24534443 58.25724101 -1.2380774 56.86299455 -1.23046875 55.46875 C-1.22927551 54.03055869 -1.22882409 52.59236659 -1.2290802 51.1541748 C-1.22751895 48.14488827 -1.21925718 45.1357213 -1.20581055 42.12646484 C-1.18882133 38.27642349 -1.18499648 34.42651335 -1.18575573 30.5764389 C-1.1854833 27.6081213 -1.17999044 24.63983216 -1.17275429 21.67152405 C-1.16958077 20.25220454 -1.1676033 18.83288182 -1.16686058 17.41355896 C-1.16468303 15.42738683 -1.15512592 13.44122696 -1.14526367 11.45507812 C-1.14145187 10.32654419 -1.13764008 9.19801025 -1.13371277 8.03527832 C-1.01070264 5.24294987 -0.63603644 2.71629648 0 0 Z " fill="#FCFCFC" transform="translate(135,426)"/>
</svg>
