<?xml version="1.0" encoding="UTF-8"?>
<svg version="1.1" xmlns="http://www.w3.org/2000/svg" width="1000" height="1939">
<path d="M0 0 C330 0 660 0 1000 0 C1000 639.87 1000 1279.74 1000 1939 C670 1939 340 1939 0 1939 C0 1299.13 0 659.26 0 0 Z " fill="#FEFEFE" transform="translate(0,0)"/>
<path d="M0 0 C0.70640625 0.51175781 1.4128125 1.02351562 2.140625 1.55078125 C2.85734375 2.04964844 3.5740625 2.54851562 4.3125 3.0625 C8.50428045 6.6948511 10.80409467 10.37851319 12.703125 15.55078125 C14.78624449 20.78101357 17.36909965 24.99147539 20.703125 29.50390625 C22.77121006 32.39539555 24.41797244 35.41551994 26.08984375 38.546875 C27.51025948 41.07632403 29.09156984 43.45140525 30.703125 45.86328125 C33.69851439 50.4925194 36.05113293 55.23389698 38.328125 60.23828125 C41.80562073 67.8690784 45.88071365 74.78535197 50.390625 81.86328125 C55.70340129 90.62430769 60.3709032 99.60990641 64.82421875 108.83203125 C66.46321331 112.0037514 68.28888541 114.97533609 70.203125 117.98828125 C74.39736787 124.70041169 77.89110417 131.65362814 81.31201172 138.78369141 C86.0502501 148.74156894 86.0502501 148.74156894 92.015625 157.98828125 C95.59109029 162.80421408 97.67301272 167.9471434 99.92578125 173.48046875 C101.60385306 177.35569591 103.64591772 180.80528271 105.890625 184.37109375 C107.55451041 187.13557003 108.97442198 189.96449069 110.390625 192.86328125 C112.20259751 196.56233393 114.09343407 200.11429262 116.265625 203.61328125 C120.85845766 211.10055532 124.55304291 219.0745597 128.41552734 226.95410156 C129.42454675 229.00891998 130.43735751 231.06179062 131.453125 233.11328125 C131.7833667 233.78093506 132.1136084 234.44858887 132.45385742 235.13647461 C134.497798 239.21982597 136.7067628 243.14470629 139.078125 247.05078125 C142.10570974 252.11048636 144.19837383 257.2421759 146.2109375 262.7734375 C147.60982585 266.43741327 149.32845296 269.84549453 151.13671875 273.3203125 C153.01190032 277.12325083 154.54023248 281.05604781 156.08203125 285.00390625 C157.33418936 287.95164726 157.33418936 287.95164726 159.328125 290.70703125 C161.72174012 294.36998772 163.24726282 298.05228847 164.828125 302.11328125 C167.06203357 307.70282853 169.41823007 313.11716276 172.20703125 318.45703125 C174.06836969 322.24113844 175.56466884 326.16902118 177.08203125 330.1015625 C178.50544941 333.10561217 180.31583043 335.27469067 182.390625 337.86328125 C183.60950916 340.14868904 184.77408748 342.46366522 185.890625 344.80078125 C187.59241348 348.35519856 189.26328063 351.67406334 191.46484375 354.9453125 C193.34784667 357.79846297 194.51622747 360.41944789 195.703125 363.61328125 C197.79289087 368.84418588 200.39706228 373.06892759 203.83984375 377.51171875 C205.60889686 380.19426276 206.49181367 382.79049769 207.390625 385.86328125 C208.34324219 385.80527344 209.29585937 385.74726562 210.27734375 385.6875 C220.42115401 385.32261474 220.42115401 385.32261474 224.640625 387.67578125 C226.74808826 391.51437504 227.34409012 394.91752943 227.8359375 399.2421875 C228.45718618 402.17780628 229.59867118 403.51074294 231.390625 405.86328125 C231.930962 409.27255041 231.95578618 412.73295889 230.390625 415.86328125 C231.25945312 415.816875 232.12828125 415.77046875 233.0234375 415.72265625 C243.61275642 415.39099973 243.61275642 415.39099973 247.015625 417.61328125 C252.222736 422.54633378 252.222736 422.54633378 252.82299805 427.25488281 C252.84918213 428.57456055 252.87536621 429.89423828 252.90234375 431.25390625 C252.92927055 432.31082672 252.92927055 432.31082672 252.95674133 433.38909912 C253.01074358 435.63043304 253.04470588 437.8715553 253.078125 440.11328125 C253.11130718 441.63674814 253.14579769 443.16018714 253.18164062 444.68359375 C253.26646238 448.40995285 253.33332224 452.13638588 253.390625 455.86328125 C254.380625 456.19328125 255.370625 456.52328125 256.390625 456.86328125 C260.11464443 460.92255304 262.78844851 465.0746519 262.890625 470.67578125 C262.75137515 473.86112149 262.18737356 476.20365648 260.390625 478.86328125 C258.10546875 480.21484375 258.10546875 480.21484375 255.328125 481.48828125 C249.70403447 484.36692759 246.16605309 487.95232033 242.16796875 492.7890625 C240.390625 494.86328125 240.390625 494.86328125 238.390625 495.86328125 C237.76722972 498.86348265 237.76722972 498.86348265 237.390625 502.42578125 C236.84973455 506.91227434 236.06313003 511.13911933 234.92138672 515.50805664 C233.74961224 520.70773849 233.16697634 526.02281147 232.453125 531.30078125 C228.16766887 561.8245303 228.16766887 561.8245303 223.578125 572.8203125 C222.407031 575.82124088 221.61219073 578.72693021 220.890625 581.86328125 C219.60587068 587.37248198 217.72536869 592.48831779 215.6328125 597.73828125 C214.55430616 600.45150475 213.55012618 603.17321154 212.578125 605.92578125 C203.30499264 631.38950359 203.30499264 631.38950359 197.04296875 640.40625 C195.2375072 643.09096706 193.79724036 645.85728879 192.328125 648.73828125 C190.5561137 652.10558036 189.08952279 654.42254938 186.015625 656.67578125 C185.149375 657.39765625 184.283125 658.11953125 183.390625 658.86328125 C183.05664713 661.98915 183.05664713 661.98915 183.390625 664.86328125 C181.390625 666.86328125 181.390625 666.86328125 178.47998047 666.93847656 C176.63750732 666.81617676 176.63750732 666.81617676 174.7578125 666.69140625 C174.09280228 666.64960739 173.42779205 666.60780853 172.74263 666.56474304 C170.58272044 666.42540874 168.424334 666.27004667 166.265625 666.11328125 C164.79600228 666.01342214 163.32635705 665.91389377 161.85668945 665.81469727 C137.09844014 664.09921963 137.09844014 664.09921963 130.390625 661.86328125 C129.854375 662.85328125 129.318125 663.84328125 128.765625 664.86328125 C126.63562475 667.46593285 125.54542098 667.84087411 122.15234375 668.33203125 C116.06014746 668.38349648 111.14234555 667.8707445 105.390625 665.86328125 C103.10454523 665.43636274 100.81194086 665.04368562 98.515625 664.67578125 C89.08330314 663.04877395 80.01080463 660.24400621 70.859375 657.484375 C66.39605386 656.14027153 61.92363529 654.94796585 57.390625 653.86328125 C57.5323262 654.54667068 57.6740274 655.23006012 57.82002258 655.93415833 C59.44294454 664.52445599 59.66751072 672.91925606 59.62109375 681.625 C59.61989511 683.14305074 59.61945022 684.66110225 59.6197052 686.17915344 C59.61814911 689.35865961 59.60994599 692.53805185 59.59643555 695.7175293 C59.57974936 699.6835456 59.57571793 703.6494353 59.576231 707.61548233 C59.57584331 722.95599615 59.4670001 738.29472473 59.059412 753.63035011 C59.00624592 755.64568645 58.95930139 757.66118401 58.91264343 759.67668152 C58.54150258 771.91810029 56.81168429 783.80463964 54.82568359 795.87890625 C54.26316353 799.73762973 53.95134496 803.59573849 53.69775391 807.48583984 C52.75800296 814.76031892 48.01694601 820.42874252 42.390625 824.86328125 C41.730625 824.86328125 41.070625 824.86328125 40.390625 824.86328125 C40.28621094 825.59289062 40.18179688 826.3225 40.07421875 827.07421875 C39.3304697 830.10871488 38.24119748 831.94388471 36.453125 834.48828125 C35.92847656 835.24367188 35.40382813 835.9990625 34.86328125 836.77734375 C34.37730469 837.46570312 33.89132812 838.1540625 33.390625 838.86328125 C31.33433469 841.94771671 31.13745296 842.61444515 31.1159668 846.10351562 C31.10643478 846.95449829 31.09690277 847.80548096 31.08708191 848.68225098 C31.08799332 849.59792847 31.08890472 850.51360596 31.08984375 851.45703125 C31.08341606 852.87163635 31.08341606 852.87163635 31.07685852 854.31481934 C31.07111568 856.30866696 31.07061462 858.30253554 31.07495117 860.29638672 C31.07811291 863.35159902 31.05464524 866.40584483 31.02929688 869.4609375 C31.02702411 871.39713419 31.02632028 873.33333349 31.02734375 875.26953125 C31.01352913 876.64304749 31.01352913 876.64304749 30.99943542 878.04431152 C31.00566422 878.89529419 31.01189301 879.74627686 31.01831055 880.62304688 C31.01768112 881.37122681 31.0170517 882.11940674 31.0164032 882.89025879 C31.49106818 885.39285127 32.5159946 886.20257739 34.390625 887.86328125 C35.3125 889.8515625 35.3125 889.8515625 36.140625 892.17578125 C37.80985715 896.53362396 39.69384322 900.74628434 41.765625 904.92578125 C42.06678223 905.53583008 42.36793945 906.14587891 42.67822266 906.77441406 C44.36506162 910.10490891 46.19802383 913.01086019 48.515625 915.92578125 C54.33123701 924.19170445 55.21380822 936.07438469 57.19140625 945.80078125 C58.43822887 951.70751636 59.93950244 956.41322576 63.0703125 961.578125 C70.17887059 973.88139862 73.90495701 988.53888945 77.4296875 1002.21484375 C78.3223594 1005.60409395 79.31295177 1008.9466489 80.328125 1012.30078125 C84.78980023 1027.97788325 87.58321934 1043.96962696 89.703125 1060.11328125 C89.87457031 1061.39710693 90.04601562 1062.68093262 90.22265625 1064.00366211 C91.92343912 1077.61081092 91.68071355 1087.82653795 87.140625 1100.86328125 C86.74488281 1102.0440625 86.34914063 1103.22484375 85.94140625 1104.44140625 C85.15368879 1106.78647986 84.35831863 1109.12899822 83.55493164 1111.46875 C82.43289701 1114.74003739 81.33519567 1118.01840231 80.24609375 1121.30078125 C78.0632246 1127.86135261 75.78384233 1134.37582135 73.390625 1140.86328125 C73.02324219 1141.88550781 72.65585937 1142.90773438 72.27734375 1143.9609375 C69.90152629 1150.15765727 66.89039883 1155.16140975 62.98071289 1160.51367188 C48.82051158 1180.46042348 44.12380179 1203.79135499 42.12451172 1227.67016602 C41.59707325 1233.49006918 41.59707325 1233.49006918 40.37329102 1235.70239258 C36.79398736 1243.57330355 39.22694398 1258.71924763 41.390625 1266.86328125 C43.79721693 1270.73521598 47.03162254 1271.71748543 51.328125 1273.01171875 C51.99328125 1273.14932617 52.6584375 1273.28693359 53.34375 1273.42871094 C55.44141505 1273.87406444 57.41878886 1274.47651381 59.453125 1275.15234375 C62.14656052 1276.04594811 64.84578374 1276.88599743 67.5703125 1277.6796875 C72.029866 1279.06132831 76.2320276 1280.80891936 80.50390625 1282.6796875 C83.57016263 1283.93689411 86.65778509 1284.90175307 89.828125 1285.86328125 C94.64975002 1287.40948299 97.27685519 1288.89054046 100.390625 1292.86328125 C100.720625 1293.19328125 101.050625 1293.52328125 101.390625 1293.86328125 C102.78729599 1307.88302933 102.78729599 1307.88302933 99.390625 1313.36328125 C91.21937469 1322.1483344 77.93385975 1324.66614294 66.5234375 1325.57421875 C63.48851925 1325.66302461 63.48851925 1325.66302461 61.390625 1326.86328125 C43.7354934 1328.10130915 26.62382829 1326.69054115 9.390625 1322.86328125 C8.62556641 1322.69538086 7.86050781 1322.52748047 7.07226562 1322.35449219 C4.84394413 1321.86241255 2.61726845 1321.36289913 0.390625 1320.86328125 C-2.579375 1320.20328125 -5.549375 1319.54328125 -8.609375 1318.86328125 C-8.609375 1331.07328125 -8.609375 1343.28328125 -8.609375 1355.86328125 C-5.309375 1356.52328125 -2.009375 1357.18328125 1.390625 1357.86328125 C5.04296875 1359.44921875 5.04296875 1359.44921875 8.328125 1361.23828125 C13.40098462 1363.92106351 18.45648245 1366.11124559 23.88671875 1367.96875 C26.2569629 1368.81552989 28.48915816 1369.79321789 30.765625 1370.86328125 C34.41842201 1372.54212512 38.09738034 1373.72741171 41.953125 1374.86328125 C46.39388677 1376.18364712 50.4064583 1377.65588052 54.4765625 1379.85546875 C57.40635868 1381.39809613 60.45833113 1382.6479239 63.5078125 1383.93359375 C65.390625 1384.86328125 65.390625 1384.86328125 67.390625 1386.86328125 C68.40581854 1394.31159595 67.96141275 1400.71130248 63.8046875 1407.0625 C57.56781029 1415.00504253 47.86689758 1416.52867983 38.390625 1417.86328125 C34.26754113 1418.18302256 30.14915723 1418.31972692 26.015625 1418.42578125 C23.924371 1418.4859336 21.83321463 1418.54960678 19.7421875 1418.6171875 C18.37827881 1418.65307983 18.37827881 1418.65307983 16.98681641 1418.68969727 C14.37640526 1418.864232 11.94926843 1419.33387962 9.390625 1419.86328125 C6.87823281 1419.95947645 4.40195586 1420.00563119 1.890625 1419.98828125 C0.78509277 1419.98211792 0.78509277 1419.98211792 -0.34277344 1419.97583008 C-14.1984124 1419.84165948 -27.80073046 1419.16523692 -41.50048828 1417.02246094 C-49.36640784 1415.81773094 -57.24020477 1415.14510677 -65.17700195 1414.59790039 C-81.17916171 1413.43263462 -104.90193668 1410.75133753 -116.609375 1398.86328125 C-116.99666202 1396.09049986 -117.08290728 1393.95632295 -116.921875 1391.2109375 C-116.90294189 1390.47379013 -116.88400879 1389.73664276 -116.86450195 1388.97715759 C-116.78296643 1385.83207048 -116.64233045 1382.69026919 -116.50683594 1379.54711914 C-116.41620484 1377.24771279 -116.35588257 1374.94883804 -116.296875 1372.6484375 C-116.2553833 1371.94308365 -116.2138916 1371.2377298 -116.17114258 1370.51100159 C-116.07248075 1366.52407095 -116.34226718 1365.14542503 -119.13354492 1362.19702148 C-119.95056885 1361.42688721 -120.76759277 1360.65675293 -121.609375 1359.86328125 C-121.94262695 1357.35546875 -121.94262695 1357.35546875 -121.53515625 1354.73828125 C-121.32947021 1353.28808594 -121.32947021 1353.28808594 -121.11962891 1351.80859375 C-120.86705322 1350.35066406 -120.86705322 1350.35066406 -120.609375 1348.86328125 C-120.47321777 1347.99445313 -120.33706055 1347.125625 -120.19677734 1346.23046875 C-119.90856702 1344.43208999 -119.6100632 1342.63534006 -119.30297852 1340.84008789 C-117.10440898 1327.90851127 -115.80631963 1314.98425979 -114.671875 1301.92578125 C-113.10091086 1283.86486 -110.82471799 1265.99902681 -108.09521484 1248.08032227 C-107.22631724 1242.32682294 -106.56033867 1236.70589462 -106.42041016 1230.87695312 C-106.1413878 1221.38572874 -103.99588268 1213.71462065 -100.609375 1204.86328125 C-100.12060964 1203.3872585 -99.63995266 1201.90849431 -99.171875 1200.42578125 C-97.76228517 1196.20502078 -96.22211089 1192.03395932 -94.671875 1187.86328125 C-94.31041382 1186.88403687 -94.31041382 1186.88403687 -93.94165039 1185.88500977 C-92.6134488 1182.34269744 -91.18674875 1178.87368626 -89.62890625 1175.42578125 C-87.62511694 1170.97312791 -85.89649235 1166.4528542 -84.234375 1161.86328125 C-83.93764893 1161.04947998 -83.64092285 1160.23567871 -83.33520508 1159.3972168 C-82.42247006 1156.88737769 -81.51544159 1154.37553439 -80.609375 1151.86328125 C-80.3220752 1151.07131348 -80.03477539 1150.2793457 -79.73876953 1149.46337891 C-78.91981318 1147.20260466 -78.10708352 1144.9397035 -77.296875 1142.67578125 C-77.05469238 1142.00611328 -76.81250977 1141.33644531 -76.56298828 1140.64648438 C-75.40660626 1137.38543811 -74.42454096 1134.17661152 -73.66015625 1130.80078125 C-72.71663753 1126.86634169 -71.06141535 1123.60332926 -69.109375 1120.05078125 C-65.96553766 1114.08030809 -64.24384654 1108.58188163 -63.609375 1101.86328125 C-63.465 1100.85265625 -63.320625 1099.84203125 -63.171875 1098.80078125 C-63.74523961 1094.95104744 -65.37285298 1092.09552644 -67.1953125 1088.6796875 C-68.66569883 1085.75110036 -69.80049134 1082.81636497 -70.921875 1079.73828125 C-74.82773272 1069.34722582 -79.67182201 1059.39031084 -86.05859375 1050.30078125 C-88.92134433 1045.80114306 -91.13778994 1040.94254176 -93.484375 1036.16015625 C-97.0176853 1028.96967421 -100.811459 1021.91655382 -104.609375 1014.86328125 C-105.0734375 1013.99960938 -105.5375 1013.1359375 -106.015625 1012.24609375 C-107.47788297 1009.53158295 -108.94848897 1006.82176586 -110.421875 1004.11328125 C-110.87796143 1003.26733398 -111.33404785 1002.42138672 -111.80395508 1001.54980469 C-114.12459203 997.30962854 -116.55367032 993.62049011 -119.609375 989.86328125 C-121.47533742 987.00147126 -123.20520302 984.06654151 -124.921875 981.11328125 C-125.40825439 980.27925781 -125.89463379 979.44523437 -126.39575195 978.5859375 C-129.87977053 972.47228552 -132.60665038 966.28623761 -135.11425781 959.72436523 C-137.23865895 954.33640055 -140.12839686 950.15429377 -143.6953125 945.58203125 C-149.73186588 937.00766155 -152.53565346 926.38083837 -155.515625 916.4296875 C-156.35232078 913.70146162 -157.24408829 911.07353983 -158.296875 908.42578125 C-159.31428683 905.66423486 -159.98013125 903.27904287 -160.546875 900.42578125 C-161.36426952 896.421235 -162.76212957 893.03129569 -164.609375 889.39453125 C-167.27772687 882.64026557 -167.94569613 875.88213252 -167.859375 868.67578125 C-167.85115723 867.81702393 -167.84293945 866.9582666 -167.83447266 866.07348633 C-167.4183536 841.30992812 -164.52132356 814.99956119 -149.74609375 794.24609375 C-148.33020377 791.93920104 -148.33020377 791.93920104 -149.203125 789.6171875 C-149.6671875 788.70839844 -150.13125 787.79960938 -150.609375 786.86328125 C-151.1746614 785.44006932 -151.72539305 784.01103475 -152.265625 782.578125 C-152.71615234 781.41120117 -152.71615234 781.41120117 -153.17578125 780.22070312 C-153.79948906 778.60402117 -154.42187979 776.98683049 -155.04296875 775.36914062 C-155.34332031 774.59248047 -155.64367187 773.81582031 -155.953125 773.015625 C-156.22318359 772.31429443 -156.49324219 771.61296387 -156.77148438 770.89038086 C-157.58718705 768.82917356 -157.58718705 768.82917356 -158.68969727 766.80737305 C-164.56616549 754.38520249 -156.36675157 736.06347032 -152.37890625 724.234375 C-145.35314725 703.27392956 -142.69856891 683.78680343 -140.98660278 661.8659668 C-140.12761357 650.8874038 -138.89566474 640.06641037 -137.16699219 629.18530273 C-135.66052341 619.58264446 -134.50188892 609.95885118 -133.421875 600.30078125 C-133.29499802 599.19138184 -133.29499802 599.19138184 -133.16555786 598.05957031 C-132.13864961 589.04480172 -131.36145973 580.05730882 -130.96040344 570.99131775 C-130.71057435 565.60574679 -130.05377427 560.36302714 -129.109375 555.05078125 C-128.69169719 552.38808519 -128.42254313 549.78783497 -128.1953125 547.10546875 C-126.00228139 524.61219567 -115.44355034 504.62288433 -99.609375 488.86328125 C-98.41027455 487.41447123 -97.22138023 485.95710044 -96.046875 484.48828125 C-86.28926038 473.41145532 -68.37339007 467.54071297 -54.859375 462.30078125 C-54.2288623 462.04941406 -53.59834961 461.79804687 -52.94873047 461.5390625 C-48.37212188 459.83340275 -45.83613875 459.86328125 -40.609375 459.86328125 C-39.949375 454.25328125 -39.289375 448.64328125 -38.609375 442.86328125 C-39.929375 442.20328125 -41.249375 441.54328125 -42.609375 440.86328125 C-54.86506893 427.98522786 -56.14508137 416.51934462 -55.96875 399.42578125 C-55.74590302 392.74037173 -54.35984287 387.81100691 -51.8359375 381.62109375 C-50.28832476 376.87968147 -49.95047479 372.37900906 -49.609375 367.42578125 C-48.62100278 354.36172288 -45.21184863 343.4980965 -39.359375 331.80078125 C-39.02542725 331.11016602 -38.69147949 330.41955078 -38.34741211 329.70800781 C-33.40214914 320.40860329 -24.40993168 315.84205118 -15.171875 311.55078125 C-14.29466797 311.12216797 -13.41746094 310.69355469 -12.51367188 310.25195312 C5.88745188 301.55989688 31.57220632 300.6112844 50.69140625 307.3828125 C55.90969585 309.47123041 60.67293258 311.8093857 65.390625 314.86328125 C66.34839844 315.47171875 67.30617188 316.08015625 68.29296875 316.70703125 C77.24351618 322.76216669 81.69953566 329.32838528 85.39453125 339.35546875 C86.38587148 341.85131357 87.58391779 344.08244612 88.890625 346.42578125 C93.73251424 355.90034229 95.74533908 367.29491179 96.01953125 377.859375 C96.14199219 378.52066406 96.26445313 379.18195313 96.390625 379.86328125 C99.23169341 382.01358864 99.23169341 382.01358864 102.390625 382.55078125 C109.25312662 384.3798062 116.99853643 389.28188603 121.390625 394.86328125 C121.62803629 398.44140853 120.77744231 401.5709995 119.390625 404.86328125 C113.63117097 409.18287178 106.47125016 409.01340056 99.515625 408.92578125 C98.82726562 408.92126953 98.13890625 408.91675781 97.4296875 408.91210938 C95.74996165 408.90044461 94.07028125 408.88251396 92.390625 408.86328125 C92.4834375 410.78140625 92.4834375 410.78140625 92.578125 412.73828125 C92.578125 417.2233288 91.63143907 420.78079348 90.2109375 425.00390625 C89.28773299 428.22193341 88.90165055 431.35811605 88.453125 434.67578125 C87.11588956 443.23301399 83.72396559 451.0556764 80.390625 458.98828125 C80.12146271 459.62883453 79.85230042 460.26938782 79.57498169 460.92935181 C72.09496792 478.63389377 72.09496792 478.63389377 65.390625 483.86328125 C64.545 484.72953125 63.699375 485.59578125 62.828125 486.48828125 C55.13379303 493.98532266 44.57789756 494.11522292 34.31640625 494.03125 C32.390625 493.86328125 32.390625 493.86328125 30.390625 492.86328125 C30.390625 493.52328125 30.390625 494.18328125 30.390625 494.86328125 C31.256875 494.94578125 32.123125 495.02828125 33.015625 495.11328125 C40.34843049 496.74279358 45.15063 502.31380956 50.265625 507.48828125 C50.95398438 508.16890625 51.64234375 508.84953125 52.3515625 509.55078125 C53.00125 510.20304687 53.6509375 510.8553125 54.3203125 511.52734375 C54.91054199 512.1198291 55.50077148 512.71231445 56.10888672 513.32275391 C57.390625 514.86328125 57.390625 514.86328125 57.390625 516.86328125 C58.18533203 517.21519531 58.18533203 517.21519531 58.99609375 517.57421875 C62.12257691 519.25731735 64.89393343 521.33256905 67.703125 523.48828125 C68.5681665 524.15162476 68.5681665 524.15162476 69.45068359 524.82836914 C73.42243889 527.94343842 76.84689126 531.22999508 80.0234375 535.171875 C81.38416461 536.85528883 82.83603619 538.35928556 84.390625 539.86328125 C88.671575 538.33083956 90.76042682 535.09365423 93.328125 531.55078125 C96.43405593 527.31192962 99.59568564 523.52968234 103.390625 519.86328125 C107.75495017 515.24633047 111.72520322 510.492862 115.390625 505.30078125 C119.5732423 499.43361278 124.1939403 494.32265013 129.9140625 489.921875 C132.36073515 487.8881266 133.9737878 485.93280161 135.828125 483.36328125 C139.24393603 478.94661822 142.95871235 475.59746685 147.265625 472.11328125 C153.91127511 466.67111146 158.57524759 460.69281007 163.26025391 453.54296875 C165.6428025 450.00259417 168.30075166 446.65267319 170.89453125 443.265625 C173.88908409 438.45713936 173.52672165 433.22847792 173.48828125 427.71875 C173.4868663 426.94896317 173.48545135 426.17917633 173.48399353 425.38606262 C173.47842106 422.94092837 173.46587371 420.49588757 173.453125 418.05078125 C173.44810644 416.38737112 173.44354415 414.72395955 173.43945312 413.06054688 C173.42846066 408.99475597 173.4112151 404.92903442 173.390625 400.86328125 C174.18984375 400.57324219 174.9890625 400.28320312 175.8125 399.984375 C178.48902004 399.10376099 178.48902004 399.10376099 179.640625 396.92578125 C181.24290684 392.51950618 182.19169915 388.54863353 181.390625 383.86328125 C179.58188559 381.6508142 179.58188559 381.6508142 178.00390625 380.37890625 C171.77875914 374.53058403 167.27597931 366.29436109 162.640625 359.17578125 C160.71815582 356.27486627 158.64127762 353.50044366 156.56640625 350.70703125 C152.49795031 345.13560882 148.99214893 339.35200917 145.578125 333.36328125 C144.98136963 332.3280835 144.38461426 331.29288574 143.76977539 330.22631836 C142.55567669 328.11956188 141.34397527 326.01142191 140.13476562 323.90185547 C138.50481295 321.06221507 136.86466463 318.22884885 135.21875 315.3984375 C131.32208759 308.69538382 127.44390859 301.98787448 123.68774414 295.20483398 C117.43306697 283.91392325 111.22519727 272.71629426 103.72265625 262.19921875 C95.64038078 250.78523805 88.60923318 238.65224918 81.74633789 226.48144531 C78.79767155 221.26823786 75.74412393 216.15727385 72.515625 211.11328125 C68.26010241 204.44960811 64.40513625 197.59305571 60.578125 190.67578125 C56.03795702 182.48340225 51.38492965 174.38932055 46.453125 166.42578125 C45.94612061 165.60505127 45.43911621 164.78432129 44.91674805 163.9387207 C42.31874458 159.78455273 39.61538591 155.74891619 36.76171875 151.765625 C33.83685526 147.62555804 31.47242563 143.47748356 29.390625 138.86328125 C29.11234863 138.25468262 28.83407227 137.64608398 28.54736328 137.01904297 C27.98133212 135.77482688 27.41732484 134.52968831 26.85522461 133.28369141 C23.22342568 125.30061403 19.14451806 117.62173595 14.828125 109.98828125 C14.29840088 109.05040771 13.76867676 108.11253418 13.22290039 107.14624023 C9.47427256 100.58772821 5.47868598 94.21426057 1.390625 87.86328125 C0.391221 86.2851241 -0.60626798 84.70575209 -1.6015625 83.125 C-2.07416504 82.37581299 -2.54676758 81.62662598 -3.03369141 80.85473633 C-4.04059617 79.25558449 -5.04532671 77.65506239 -6.04833984 76.0534668 C-8.31395522 72.44595318 -10.58121629 68.85672994 -13.03125 65.37109375 C-18.0450074 58.09936759 -21.63635711 50.68663388 -25.046875 42.55078125 C-25.47242676 41.53604736 -25.89797852 40.52131348 -26.33642578 39.47583008 C-34.59810193 19.09914644 -34.59810193 19.09914644 -30.79296875 9.88671875 C-27.65650761 5.42291512 -23.15291923 3.46723502 -18.234375 1.42578125 C-17.61038818 1.16635742 -16.98640137 0.90693359 -16.34350586 0.63964844 C-10.84747052 -1.43303614 -5.53338887 -2.41050324 0 0 Z " fill="#000000" transform="translate(420.609375,198.13671875)"/>
<path d="M0 0 C0.33 0 0.66 0 1 0 C3.38210309 19.84213346 -1.4643676 32.81636707 -11.12182617 49.64086914 C-13.74040644 54.32422361 -16.08500095 59.1234585 -18.43115234 63.94775391 C-20.22442582 67.436628 -22.29645192 70.59401184 -24.54296875 73.80078125 C-26.16555951 76.24989277 -27.51311981 78.77237721 -28.875 81.375 C-31.54851196 86.39222061 -34.69486326 90.86048432 -38.09765625 95.40625 C-40.60592605 98.82614968 -42.80871547 102.370685 -45 106 C-49.20233434 103.58047417 -53.07927649 100.84444647 -57 98 C-53.61621574 87.07570158 -48.50015143 76.45853523 -41.640625 67.3125 C-39.88665149 64.84023258 -38.51661524 62.31647564 -37.125 59.625 C-34.31898346 54.2980702 -30.84062389 49.73294693 -27.1640625 44.98046875 C-24.59518554 41.44246672 -22.59434853 37.78645923 -20.6796875 33.86328125 C-19.17560885 31.29935184 -17.58705134 29.19309496 -15.72265625 26.890625 C-11.64982094 21.75091647 -8.61485562 16.22433732 -5.5625 10.4375 C-5.02173828 9.42880859 -4.48097656 8.42011719 -3.92382812 7.38085938 C-2.60832459 4.92447667 -1.30059365 2.46429958 0 0 Z " fill="#F9F9F9" transform="translate(615,672)"/>
</svg>
