<?xml version="1.0" encoding="UTF-8"?>
<svg version="1.1" xmlns="http://www.w3.org/2000/svg" width="362" height="727">
<path d="M0 0 C119.46 0 238.92 0 362 0 C362 239.91 362 479.82 362 727 C242.54 727 123.08 727 0 727 C0 487.09 0 247.18 0 0 Z " fill="#FEFEFE" transform="translate(0,0)"/>
<path d="M0 0 C4.48500741 4.31720101 5.50743141 9.14122278 5.81298828 15.21069336 C6.06142139 21.7360868 6.06142139 21.7360868 9.140625 27.265625 C11.40902576 28.68185994 11.40902576 28.68185994 13.83203125 29.859375 C16.74670971 31.45759805 18.62142225 33.32405605 20.859375 35.7734375 C21.52066406 36.49660156 22.18195313 37.21976563 22.86328125 37.96484375 C24.57190313 40.64183988 24.75595248 42.09129736 24.296875 45.2109375 C21.67112811 47.51841204 19.67149179 48.14977558 16.234375 48.7109375 C10.47221578 47.97923474 5.54432848 45.62355979 0.296875 43.2109375 C0.626875 43.8709375 0.956875 44.5309375 1.296875 45.2109375 C2.55267434 56.4648316 0.43054929 69.6240433 -6.30078125 78.8046875 C-6.99494141 79.50078125 -6.99494141 79.50078125 -7.703125 80.2109375 C-8.363125 80.2109375 -9.023125 80.2109375 -9.703125 80.2109375 C-9.909375 81.1390625 -10.115625 82.0671875 -10.328125 83.0234375 C-11.703125 86.2109375 -11.703125 86.2109375 -14.203125 88.0234375 C-22.03859461 90.6819004 -29.59668525 90.33204087 -37.703125 89.2109375 C-36.61644531 90.15453125 -36.61644531 90.15453125 -35.5078125 91.1171875 C-29.90366359 96.07872734 -24.78732916 100.89068861 -20.703125 107.2109375 C-20.11789063 108.06945312 -19.53265625 108.92796875 -18.9296875 109.8125 C-9.74748539 124.18632692 -8.41231246 140.50537253 -8.703125 157.2109375 C-7.89488281 156.78941406 -7.08664063 156.36789063 -6.25390625 155.93359375 C-5.18527344 155.38574219 -4.11664063 154.83789062 -3.015625 154.2734375 C-1.95988281 153.72816406 -0.90414062 153.18289062 0.18359375 152.62109375 C2.98078112 151.35411177 5.30291132 150.74581166 8.296875 150.2109375 C8.14541016 149.56656738 7.99394531 148.92219727 7.83789062 148.25830078 C7.14620049 145.28669353 6.47147469 142.3114691 5.796875 139.3359375 C5.55839844 138.32273438 5.31992188 137.30953125 5.07421875 136.265625 C2.81481305 126.19513103 2.25178423 117.82926444 6.296875 108.2109375 C6.73 107.0146875 7.163125 105.8184375 7.609375 104.5859375 C11.06182826 99.01493338 18.11816487 95.84656685 24.296875 94.2109375 C30.34223507 93.57188103 36.54239282 94.29277677 42.296875 96.2109375 C43.296875 97.2109375 44.296875 98.2109375 45.296875 99.2109375 C46.06 99.6234375 46.823125 100.0359375 47.609375 100.4609375 C51.18060363 102.7863887 53.85155704 105.72362838 56.296875 109.2109375 C56.296875 109.8709375 56.296875 110.5309375 56.296875 111.2109375 C56.874375 111.43394531 57.451875 111.65695313 58.046875 111.88671875 C65.82338957 116.4635216 72.1199017 128.99591921 74.7578125 137.50390625 C77.48794745 151.21393177 74.38617382 163.90782759 67.96875 175.99609375 C66.42832423 178.95817414 65.0431212 181.94409635 63.68188477 184.98999023 C56.35123463 201.31560087 56.35123463 201.31560087 49.296875 205.2109375 C46.53906165 205.29213495 44.08155889 205.22397441 41.359375 204.9609375 C40.65619141 204.90808594 39.95300781 204.85523438 39.22851562 204.80078125 C36.23208407 204.55926943 33.48135332 204.26877105 30.60546875 203.3671875 C28.06817606 202.93525671 28.06817606 202.93525671 25.796875 205.1953125 C24.971875 206.10796875 24.146875 207.020625 23.296875 207.9609375 C20.13137346 211.42320481 17.34317 213.86476645 13.296875 216.2109375 C12.575 217.1390625 11.853125 218.0671875 11.109375 219.0234375 C8.36872745 222.46185728 5.15906824 224.2984245 1.359375 226.44140625 C-0.96729232 227.78576887 -3.2070984 229.16785811 -5.453125 230.63671875 C-12.82695744 235.43903472 -19.76378187 239.41858953 -28.12890625 242.2734375 C-30.88785373 243.16329688 -30.88785373 243.16329688 -33.703125 245.2109375 C-34.28793621 248.09689696 -34.28793621 248.09689696 -34.390625 251.3359375 C-34.48923828 252.97949219 -34.48923828 252.97949219 -34.58984375 254.65625 C-34.62722656 255.49929688 -34.66460937 256.34234375 -34.703125 257.2109375 C-35.363125 257.2109375 -36.023125 257.2109375 -36.703125 257.2109375 C-37.24582031 258.31953125 -37.78851563 259.428125 -38.34765625 260.5703125 C-39.07009774 262.03396019 -39.79276592 263.497496 -40.515625 264.9609375 C-40.87205078 265.69054687 -41.22847656 266.42015625 -41.59570312 267.171875 C-43.38881465 270.79099918 -45.19555482 274.02564565 -47.703125 277.2109375 C-48.033125 278.0978125 -48.363125 278.9846875 -48.703125 279.8984375 C-49.033125 280.6615625 -49.363125 281.4246875 -49.703125 282.2109375 C-50.693125 282.5409375 -51.683125 282.8709375 -52.703125 283.2109375 C-52.97125 284.0978125 -53.239375 284.9846875 -53.515625 285.8984375 C-54.72154855 289.26232951 -55.1771019 289.77809466 -57.76171875 291.89453125 C-60.50954024 294.55590443 -60.6875959 295.09164582 -61.21875 299.171875 C-61.15739979 300.64461356 -61.06756239 302.11637063 -60.953125 303.5859375 C-60.88726518 305.17414701 -60.83016653 306.76274088 -60.78125 308.3515625 C-60.75611328 309.15400391 -60.73097656 309.95644531 -60.70507812 310.78320312 C-60.70194477 314.67795759 -61.1693289 318.48297972 -61.703125 322.3359375 C-61.79883789 323.02864746 -61.89455078 323.72135742 -61.99316406 324.43505859 C-62.22060396 326.02836067 -62.46035085 327.61989974 -62.703125 329.2109375 C-63.363125 329.2109375 -64.023125 329.2109375 -64.703125 329.2109375 C-64.703125 332.1809375 -64.703125 335.1509375 -64.703125 338.2109375 C-65.363125 338.2109375 -66.023125 338.2109375 -66.703125 338.2109375 C-64.64259806 350.49730929 -61.94692366 362.3678752 -58.35473633 374.29882812 C-56.36753837 380.90389053 -54.50864177 387.52095814 -52.828125 394.2109375 C-52.62517822 395.00508057 -52.42223145 395.79922363 -52.21313477 396.61743164 C-50.51826129 403.46360669 -49.55211575 410.13019723 -49.640625 417.2109375 C-49.64964844 418.1596875 -49.65867188 419.1084375 -49.66796875 420.0859375 C-49.68537109 421.1378125 -49.68537109 421.1378125 -49.703125 422.2109375 C-49.043125 422.2109375 -48.383125 422.2109375 -47.703125 422.2109375 C-49.03964443 439.21638864 -51.90762398 454.7903587 -57.59667969 470.88525391 C-58.87755011 474.53581922 -59.90615038 478.06373939 -60.6328125 481.8671875 C-61.49659999 486.0394778 -63.31548823 488.67033545 -65.703125 492.2109375 C-66.87957295 495.40352859 -67.72143293 498.67018075 -68.578125 501.9609375 C-69.09193384 503.84200036 -69.60892071 505.72219771 -70.12890625 507.6015625 C-70.38881348 508.54193359 -70.6487207 509.48230469 -70.91650391 510.45117188 C-73.60521115 519.8841783 -76.84970526 529.15393241 -80.453125 538.2734375 C-85.69515798 551.85889919 -87.14808734 566.94846304 -82.16796875 580.9140625 C-77.94829644 590.41113831 -73.00719686 599.73295916 -65.703125 607.2109375 C-65.04183594 607.97083984 -65.04183594 607.97083984 -64.3671875 608.74609375 C-57.73310265 614.58595717 -47.4030356 614.5881229 -39.0859375 614.9296875 C-34.97890993 615.27114938 -32.26497419 616.21282698 -28.703125 618.2109375 C-28.675932 619.79417438 -28.65664194 621.37754812 -28.640625 622.9609375 C-28.62902344 623.84265625 -28.61742187 624.724375 -28.60546875 625.6328125 C-28.69486302 627.9928213 -29.03399679 629.95592274 -29.703125 632.2109375 C-28.960625 632.4171875 -28.218125 632.6234375 -27.453125 632.8359375 C-23.76666323 634.67916838 -22.56440654 636.55731077 -20.703125 640.2109375 C-19.80586598 645.59449163 -21.08631646 648.99247344 -24.09375 653.3515625 C-31.02269498 661.35684845 -41.43711914 662.28791659 -51.390625 663.3359375 C-52.18863525 663.42012939 -52.98664551 663.50432129 -53.80883789 663.59106445 C-60.42031056 664.21954596 -67.0014591 664.39293923 -73.640625 664.3984375 C-74.58188232 664.39924316 -75.52313965 664.40004883 -76.49291992 664.40087891 C-83.16374432 664.34608524 -83.16374432 664.34608524 -85.66162109 663.72021484 C-88.10361536 663.11103043 -90.38736411 662.99593273 -92.90234375 662.89453125 C-93.93504395 662.85279785 -94.96774414 662.81106445 -96.03173828 662.76806641 C-97.1401709 662.72858887 -98.24860352 662.68911133 -99.390625 662.6484375 C-100.53515137 662.60380371 -101.67967773 662.55916992 -102.85888672 662.51318359 C-108.81022168 662.30217801 -114.74421001 662.18915047 -120.69921875 662.25390625 C-121.81272705 662.26558838 -122.92623535 662.27727051 -124.07348633 662.28930664 C-126.19206853 662.31966064 -128.31051331 662.36370956 -130.4284668 662.42358398 C-136.61120496 662.51860821 -141.08848169 661.87050538 -146.703125 659.2109375 C-149.08527684 656.82878566 -148.95896831 656.31084819 -148.96875 653.0703125 C-148.97261719 651.83474609 -148.97261719 651.83474609 -148.9765625 650.57421875 C-148.96496094 649.28064453 -148.96496094 649.28064453 -148.953125 647.9609375 C-148.96472656 646.69056641 -148.96472656 646.69056641 -148.9765625 645.39453125 C-148.96165796 640.6027214 -148.55575626 636.71018485 -146.703125 632.2109375 C-148.683125 631.5509375 -150.663125 630.8909375 -152.703125 630.2109375 C-152.24490032 626.74152204 -151.81180817 623.53698701 -150.703125 620.2109375 C-150.3404618 612.77634181 -150.71888196 605.34241748 -151.18359375 597.921875 C-151.5656617 591.45998712 -151.81917839 585.0069543 -151.94921875 578.53515625 C-151.96587585 577.74054489 -151.98253296 576.94593353 -151.99969482 576.12724304 C-152.06584135 572.88739869 -152.12880362 569.64759009 -152.17993164 566.4074707 C-152.21959302 563.99145158 -152.27100416 561.57590965 -152.32421875 559.16015625 C-152.3326329 558.43309982 -152.34104706 557.7060434 -152.34971619 556.95695496 C-152.44893632 552.88910957 -153.14238924 549.92970886 -154.703125 546.2109375 C-155.02197266 543.27929688 -155.02197266 543.27929688 -155.1171875 540.0546875 C-155.15585938 538.86617187 -155.19453125 537.67765625 -155.234375 536.453125 C-155.2653125 535.21820312 -155.29625 533.98328125 -155.328125 532.7109375 C-155.38613281 530.90496094 -155.38613281 530.90496094 -155.4453125 529.0625 C-155.5185722 526.62923127 -155.57998739 524.19557867 -155.62988281 521.76171875 C-155.67635812 519.50859597 -155.74122909 517.25571743 -155.83105469 515.00390625 C-155.99605996 508.76864822 -155.40366325 503.11015689 -154.18359375 497.02734375 C-152.39640436 487.96804108 -152.56577031 479.33354487 -153.015625 470.1484375 C-153.11093671 467.86851308 -153.20099798 465.58842685 -153.29025269 463.30825806 C-153.34881823 461.81694351 -153.40942841 460.3257077 -153.47219849 458.83456421 C-153.77643439 451.29262824 -153.76669295 443.75754425 -153.703125 436.2109375 C-154.363125 436.2109375 -155.023125 436.2109375 -155.703125 436.2109375 C-155.71121185 435.44974106 -155.71929871 434.68854462 -155.72763062 433.90428162 C-155.80576132 426.71012027 -155.8931068 419.51615636 -155.99065208 412.32223415 C-156.04047309 408.62428432 -156.08680358 404.9263611 -156.125 401.22827148 C-156.16203319 397.65549209 -156.20844037 394.08294334 -156.26118851 390.51036263 C-156.27963714 389.15134819 -156.29477981 387.79228449 -156.30646896 386.43319511 C-156.38275348 376.63761514 -156.38275348 376.63761514 -158.703125 367.2109375 C-158.9403125 366.11136719 -159.1775 365.01179688 -159.421875 363.87890625 C-162.39944458 350.61383379 -169.10685821 339.37211897 -176.703125 328.2109375 C-179.16690205 324.41261454 -180.94524653 320.47546372 -182.7265625 316.328125 C-183.68457939 314.09612405 -183.68457939 314.09612405 -185.328125 311.8359375 C-191.55137164 299.95519392 -188.92715552 284.61008708 -185.703125 272.2109375 C-182.80661381 263.31981524 -178.38306563 252.89087813 -171.703125 246.2109375 C-171.30548237 244.22272437 -170.96537151 242.22149411 -170.703125 240.2109375 C-172.683125 240.2109375 -174.663125 240.2109375 -176.703125 240.2109375 C-177.43360815 229.31456387 -174.82763142 220.18912396 -171.6875 209.875 C-170.48974772 205.41669985 -169.6523732 200.93809138 -168.828125 196.3984375 C-167.14037949 187.31500715 -165.2411017 178.29746561 -163.17480469 169.29321289 C-162.8346286 167.79147279 -162.50299346 166.28778901 -162.17675781 164.78295898 C-162.00241211 163.97930908 -161.82806641 163.17565918 -161.6484375 162.34765625 C-161.49133301 161.61506592 -161.33422852 160.88247559 -161.17236328 160.12768555 C-160.703125 158.2109375 -160.703125 158.2109375 -159.703125 155.7734375 C-158.79669096 153.45070028 -158.37320973 151.52662977 -157.953125 149.0859375 C-156.34191549 140.58585581 -153.41112529 132.41078307 -150.703125 124.2109375 C-150.48221191 123.52821777 -150.26129883 122.84549805 -150.03369141 122.14208984 C-147.4413331 114.16201113 -144.38719437 107.17405284 -139.703125 100.2109375 C-139.14496094 99.3446875 -138.58679688 98.4784375 -138.01171875 97.5859375 C-134.44173053 92.21897535 -130.88308121 88.07051272 -125.703125 84.2109375 C-125.043125 84.2109375 -124.383125 84.2109375 -123.703125 84.2109375 C-122.713125 82.2309375 -122.713125 82.2309375 -121.703125 80.2109375 C-121.043125 80.2109375 -120.383125 80.2109375 -119.703125 80.2109375 C-119.703125 79.5509375 -119.703125 78.8909375 -119.703125 78.2109375 C-116.30116935 75.03872431 -112.59845011 72.59227968 -108.328125 70.7734375 C-104.13367706 68.9654858 -100.76137411 66.58248891 -97.0703125 63.91796875 C-95.16279979 62.54241916 -93.24155541 61.23398719 -91.265625 59.9609375 C-88.75252757 58.36062877 -88.75252757 58.36062877 -87.078125 56.5859375 C-85.703125 55.2109375 -85.703125 55.2109375 -83.71875 54.37109375 C-81.20374606 52.92350427 -80.90103694 52.01482488 -80.078125 49.2734375 C-79.83707031 48.47164062 -79.59601563 47.66984375 -79.34765625 46.84375 C-78.68137495 44.12209185 -78.20868431 41.41466864 -77.765625 38.6484375 C-76.92185169 33.52810374 -75.25251029 29.71485151 -72.703125 25.2109375 C-72.043125 25.2109375 -71.383125 25.2109375 -70.703125 25.2109375 C-70.66574219 24.46070313 -70.62835938 23.71046875 -70.58984375 22.9375 C-69.51082936 6.13872698 -69.51082936 6.13872698 -64.78515625 1.2109375 C-62.49929297 -0.61460564 -60.17217225 -2.22147677 -57.703125 -3.7890625 C-56.95675781 -4.28535156 -56.21039063 -4.78164063 -55.44140625 -5.29296875 C-37.93337943 -16.65215066 -16.08546389 -10.64615963 0 0 Z " fill="#9B9B9B" transform="translate(242.703125,40.7890625)"/>
<path d="M0 0 C-0.06929505 3.46475274 -0.19826601 6.0684222 -2.51953125 8.765625 C-5.3126274 11.1882684 -7.4616208 12.82054027 -11 14 C-9.80043092 9.41982715 -5.93559494 0 0 0 Z " fill="#F7F7F7" transform="translate(252,217)"/>
</svg>
