<?xml version="1.0" encoding="UTF-8"?>
<svg version="1.1" xmlns="http://www.w3.org/2000/svg" width="1000" height="1496">
<path d="M0 0 C330 0 660 0 1000 0 C1000 493.68 1000 987.36 1000 1496 C670 1496 340 1496 0 1496 C0 1002.32 0 508.64 0 0 Z " fill="#FEFEFE" transform="translate(0,0)"/>
<path d="M0 0 C6.07082334 3.41498502 11.52410126 7.3065434 16.8515625 11.8046875 C17.45871094 12.25199219 18.06585937 12.69929688 18.69140625 13.16015625 C23.84591971 17.00308868 27.82549382 22.72648146 29.8515625 28.8046875 C29.9884159 30.35731666 30.07602989 31.9145538 30.1328125 33.47216797 C30.18791992 34.88911453 30.18791992 34.88911453 30.24414062 36.33468628 C30.29731445 37.8628447 30.29731445 37.8628447 30.3515625 39.421875 C30.39216797 40.47118195 30.43277344 41.52048889 30.47460938 42.60159302 C30.60442593 45.96081491 30.7286137 49.32020767 30.8515625 52.6796875 C31.01362309 57.09393946 31.18106559 61.50794183 31.3515625 65.921875 C31.40473633 67.44396072 31.40473633 67.44396072 31.45898438 68.99679565 C31.5140918 70.4231987 31.5140918 70.4231987 31.5703125 71.87841797 C31.60060547 72.71098114 31.63089844 73.54354431 31.66210938 74.40133667 C31.86160095 76.93203259 32.33889364 79.32060416 32.8515625 81.8046875 C32.9967142 84.15283116 33.09792161 86.50388607 33.16796875 88.85546875 C33.18874985 89.51427536 33.20953094 90.17308197 33.23094177 90.85185242 C33.29591739 92.94019935 33.35507825 95.02866362 33.4140625 97.1171875 C33.45729729 98.5397253 33.5009131 99.96225156 33.54492188 101.38476562 C33.65154466 104.85795047 33.75295598 108.33126476 33.8515625 111.8046875 C39.92254341 109.96922398 39.92254341 109.96922398 45.5703125 107.1484375 C50.00658125 104.53529289 54.88723903 105.18560716 59.8515625 105.8046875 C80.43069467 111.47000153 90.2684905 124.24280323 101.30151367 141.40771484 C102.37322208 143.06498893 103.46320573 144.71053556 104.56762695 146.34619141 C109.23606913 153.38318617 112.71011779 160.62603061 115.9140625 168.4296875 C116.30300186 169.36844727 116.30300186 169.36844727 116.69979858 170.32617188 C121.08864238 180.98890772 124.05808444 191.70049454 126.5 202.96484375 C127.72812492 208.53716317 129.40548399 213.8607553 131.2890625 219.2421875 C135.47274952 231.25203477 138.676179 243.49592018 141.8515625 255.8046875 C142.05910156 256.60310059 142.26664063 257.40151367 142.48046875 258.22412109 C143.65118459 262.74017792 144.75809876 267.26919006 145.8515625 271.8046875 C146.19215477 273.10951962 146.53331764 274.41420291 146.875 275.71875 C152.1824714 296.74478894 152.88519004 318.78157144 154.15283203 340.35888672 C154.61978135 348.26777989 155.14755311 356.16313687 155.8515625 364.0546875 C155.9225415 364.88033203 155.99352051 365.70597656 156.06665039 366.55664062 C156.46574735 370.84288063 157.07182615 375.0147481 157.87890625 379.24365234 C159.02672155 386.0790096 159.07129798 392.72516392 158.9765625 399.640625 C158.96385247 401.63332296 158.95116234 403.62602118 158.93937683 405.61872482 C158.92563315 407.70954156 158.90745892 409.80027967 158.88818359 411.89105225 C158.82348258 419.12255321 158.79938398 426.35417247 158.7890625 433.5859375 C158.78796478 434.29831448 158.78686707 435.01069145 158.78573608 435.74465561 C158.77591947 447.41513476 159.10299497 459.03226889 159.8515625 470.6796875 C162.98817886 520.82436832 162.98817886 520.82436832 156.8515625 541.8046875 C156.5009375 543.06539062 156.1503125 544.32609375 155.7890625 545.625 C153.59346302 552.56248446 150.42932697 558.42272281 146.36499023 564.40893555 C143.42031519 568.77391882 141.01176018 573.25168928 138.7265625 577.9921875 C134.19988287 587.33041156 128.68811739 595.84176765 122.64453125 604.2734375 C121.42294686 605.99802722 120.2391154 607.74983867 119.08984375 609.5234375 C114.97160184 615.67058265 110.62885469 619.80740756 104.72045898 624.09667969 C97.07590151 629.70380368 88.48838775 637.65374777 85.98046875 647.078125 C84.81919535 650.91153269 83.28948105 653.81905771 81.2265625 657.2421875 C78.15117834 662.43074942 75.36408406 667.69352467 72.7265625 673.1171875 C69.84041866 679.01325698 66.66010616 684.44653582 62.8515625 689.8046875 C59.89172094 694.05775214 57.63724779 698.21822933 55.72265625 703.05078125 C53.40711528 708.88206504 51.5917142 712.58174352 46.58203125 716.30859375 C39.19623881 722.69405313 37.73305835 732.67218164 36.31958008 741.81103516 C35.46686687 747.00387225 34.40775462 749.77802638 30.8515625 753.8046875 C29.35244481 757.72084841 28.46293963 761.50799509 27.8515625 765.6484375 C27.6865625 766.72996094 27.5215625 767.81148437 27.3515625 768.92578125 C27.1865625 770.04082031 27.0215625 771.15585937 26.8515625 772.3046875 C26.52313065 774.52416834 26.18994411 776.7429518 25.8515625 778.9609375 C25.7071875 779.93869141 25.5628125 780.91644531 25.4140625 781.92382812 C24.81347997 784.99972823 23.8606763 787.8411258 22.8515625 790.8046875 C22.23712621 796.99422953 22.88126971 802.72856839 24.40234375 808.7265625 C25.07437276 811.83542714 25.04968946 814.63465611 24.8515625 817.8046875 C23.8515625 818.8046875 23.8515625 818.8046875 21.2890625 818.8671875 C20.4846875 818.8465625 19.6803125 818.8259375 18.8515625 818.8046875 C19.05837646 819.56612061 19.26519043 820.32755371 19.47827148 821.11206055 C20.41690568 824.57164319 21.35300954 828.03190561 22.2890625 831.4921875 C22.61455078 832.69037109 22.94003906 833.88855469 23.27539062 835.12304688 C23.58798828 836.27998047 23.90058594 837.43691406 24.22265625 838.62890625 C24.6546936 840.22351685 24.6546936 840.22351685 25.09545898 841.8503418 C30.75939491 863.98120672 29.64229679 889.88983252 23.8515625 911.8046875 C23.64305664 912.60261719 23.43455078 913.40054688 23.21972656 914.22265625 C21.57887516 920.4264232 19.81427955 926.59135191 17.97265625 932.73828125 C16.06020897 939.31669939 14.90678796 945.94057433 13.85302734 952.70117188 C13.3627424 955.83953802 12.85820795 958.78475116 11.8515625 961.8046875 C11.49671372 965.14684821 11.41799555 968.50962226 11.2890625 971.8671875 C11.2473291 972.94742188 11.2055957 974.02765625 11.16259766 975.140625 C10.73694354 988.19170154 10.74054457 1001.24786312 10.7265625 1014.3046875 C10.7239743 1015.44624298 10.72138611 1016.58779846 10.71871948 1017.76394653 C10.71287211 1021.03797547 10.71444589 1024.31190784 10.71875 1027.5859375 C10.71677109 1028.58692978 10.71479218 1029.58792206 10.7127533 1030.61924744 C10.71741356 1031.99591331 10.71741356 1031.99591331 10.72216797 1033.40039062 C10.72296356 1034.20577271 10.72375916 1035.01115479 10.72457886 1035.84094238 C10.72893651 1037.88323954 10.72893651 1037.88323954 11.8515625 1039.8046875 C11.8515625 1041.82552083 11.8515625 1043.84635417 11.8515625 1045.8671875 C12.20037108 1051.48549707 13.31035299 1054.06607572 17.3515625 1057.9921875 C18.84740396 1059.26791305 20.34649886 1060.53985517 21.8515625 1061.8046875 C23.08179095 1064.26514441 23.02471344 1065.99978596 23.09765625 1068.75 C23.13052734 1069.74515625 23.16339844 1070.7403125 23.19726562 1071.765625 C23.25778092 1073.85147147 23.31514628 1075.93741204 23.36914062 1078.0234375 C23.57109887 1083.9526266 24.26463283 1089.09656786 25.8515625 1094.8046875 C26.97516299 1100.8042901 26.96807851 1106.66330921 26.9140625 1112.7421875 C26.90955078 1113.71220703 26.90503906 1114.68222656 26.90039062 1115.68164062 C26.888694 1118.0560551 26.87230336 1120.43033771 26.8515625 1122.8046875 C26.1915625 1122.8046875 25.5315625 1122.8046875 24.8515625 1122.8046875 C25.1815625 1123.7946875 25.5115625 1124.7846875 25.8515625 1125.8046875 C26.5115625 1126.1346875 27.1715625 1126.4646875 27.8515625 1126.8046875 C28.0390625 1129.1796875 28.0390625 1129.1796875 27.8515625 1131.8046875 C26.8615625 1132.4646875 25.8715625 1133.1246875 24.8515625 1133.8046875 C24.5834375 1134.9390625 24.3153125 1136.0734375 24.0390625 1137.2421875 C22.8515625 1140.8046875 22.8515625 1140.8046875 19.9765625 1142.7421875 C16.8515625 1143.8046875 16.8515625 1143.8046875 12.8515625 1143.8046875 C12.5215625 1141.4946875 12.1915625 1139.1846875 11.8515625 1136.8046875 C11.19800781 1137.11148437 10.54445313 1137.41828125 9.87109375 1137.734375 C6.10859004 1139.06804385 2.49137558 1139.49878295 -1.4609375 1139.9296875 C-2.20150391 1140.01605469 -2.94207031 1140.10242187 -3.70507812 1140.19140625 C-5.51882185 1140.40203455 -7.33354293 1140.60421736 -9.1484375 1140.8046875 C-9.055625 1141.9803125 -9.055625 1141.9803125 -8.9609375 1143.1796875 C-9.0228125 1144.0459375 -9.0846875 1144.9121875 -9.1484375 1145.8046875 C-12.55567402 1148.07617851 -14.00586964 1148.12959314 -18.0234375 1148.1796875 C-19.05210937 1148.20804688 -20.08078125 1148.23640625 -21.140625 1148.265625 C-24.1484375 1147.8046875 -24.1484375 1147.8046875 -26.4337616 1145.79852295 C-29.78613443 1143.33632119 -31.47420553 1143.34494236 -35.59106445 1143.44238281 C-36.87201492 1143.46270569 -38.15296539 1143.48302856 -39.47273254 1143.50396729 C-40.86074144 1143.54647743 -42.24873665 1143.58943629 -43.63671875 1143.6328125 C-45.06443214 1143.66273216 -46.49218449 1143.69084327 -47.91996765 1143.71722412 C-51.66713887 1143.79130097 -55.41327712 1143.88985877 -59.159729 1143.99359131 C-62.98702398 1144.0952045 -66.81478799 1144.17356539 -70.64257812 1144.25390625 C-78.14518168 1144.41479465 -85.6468461 1144.60155831 -93.1484375 1144.8046875 C-93.4784375 1146.4546875 -93.8084375 1148.1046875 -94.1484375 1149.8046875 C-96.37699324 1149.8861097 -98.60641405 1149.94406829 -100.8359375 1149.9921875 C-102.07730469 1150.02699219 -103.31867188 1150.06179688 -104.59765625 1150.09765625 C-109.35022948 1149.70552975 -111.83047586 1148.12264914 -115.1484375 1144.8046875 C-118.50587862 1144.56090867 -118.50587862 1144.56090867 -122.2734375 1144.6796875 C-124.19542969 1144.70675781 -124.19542969 1144.70675781 -126.15625 1144.734375 C-127.14367187 1144.75757813 -128.13109375 1144.78078125 -129.1484375 1144.8046875 C-128.4884375 1145.4646875 -127.8284375 1146.1246875 -127.1484375 1146.8046875 C-127.5234375 1148.9296875 -127.5234375 1148.9296875 -128.1484375 1150.8046875 C-133.825367 1150.90351219 -139.4815126 1150.87048689 -145.1484375 1150.4921875 C-146.0353125 1150.43417969 -146.9221875 1150.37617187 -147.8359375 1150.31640625 C-150.52243583 1149.72192773 -151.51035484 1148.98700158 -153.1484375 1146.8046875 C-153.1484375 1146.1446875 -153.1484375 1145.4846875 -153.1484375 1144.8046875 C-153.80070313 1144.71832031 -154.45296875 1144.63195313 -155.125 1144.54296875 C-162.82815652 1143.30455568 -166.55098674 1141.10163128 -171.32421875 1135.04296875 C-176.25735802 1127.97980389 -178.00112872 1123.06707774 -176.94140625 1114.484375 C-176.10195493 1111.64760848 -175.53571891 1110.50828738 -173.1484375 1108.8046875 C-171.0771622 1108.32931284 -169.0029845 1107.8640651 -166.91796875 1107.453125 C-157.29448911 1105.19995487 -148.04847316 1101.05603029 -138.91796875 1097.3125 C-136.47003363 1096.31516975 -134.03622693 1095.41751798 -131.53515625 1094.546875 C-120.99279862 1090.76476174 -112.30183325 1085.01407835 -103.3046875 1078.39160156 C-101.96727989 1077.40732286 -100.62223068 1076.43323133 -99.265625 1075.47558594 C-87.16475472 1066.91794993 -82.33865914 1055.42389507 -77.05859375 1042 C-76.1484375 1039.8046875 -76.1484375 1039.8046875 -75.1484375 1038.8046875 C-68.4284375 1039.5246875 -68.4284375 1039.5246875 -67.1484375 1040.8046875 C-64.73361337 1041.30528666 -64.73361337 1041.30528666 -62.1484375 1040.8046875 C-60.2859937 1038.39610036 -60.2859937 1038.39610036 -59.1484375 1035.8046875 C-60.4684375 1035.4746875 -61.7884375 1035.1446875 -63.1484375 1034.8046875 C-62.8184375 1033.8146875 -62.4884375 1032.8246875 -62.1484375 1031.8046875 C-60.8284375 1031.8046875 -59.5084375 1031.8046875 -58.1484375 1031.8046875 C-57.23107522 1027.9032941 -57.02182984 1024.28071986 -57.01904297 1020.27709961 C-57.01589081 1018.97481918 -57.01273865 1017.67253876 -57.00949097 1016.33079529 C-57.01128229 1014.91454027 -57.01333362 1013.49828555 -57.015625 1012.08203125 C-57.01495041 1010.61576827 -57.01397909 1009.1495054 -57.01272583 1007.6832428 C-57.01125292 1004.60921159 -57.0133882 1001.53520946 -57.01806641 998.46118164 C-57.02372818 994.5535468 -57.0205048 990.64598119 -57.01449394 986.73834896 C-57.0108471 983.70713295 -57.01204626 980.67593281 -57.01462173 977.64471626 C-57.0152815 976.20606032 -57.01449646 974.76740287 -57.01214218 973.3287487 C-57.00122626 964.77482165 -57.26984493 956.31939547 -58.1484375 947.8046875 C-59.10284729 947.62360947 -59.10284729 947.62360947 -60.07653809 947.43887329 C-62.1484375 946.8046875 -62.1484375 946.8046875 -63.29882812 944.65771484 C-67.76601637 929.65669134 -67.59938754 914.70719731 -67.6484375 899.1796875 C-67.70623854 879.40365499 -67.70623854 879.40365499 -69.4296875 859.71875 C-69.5371228 858.85873383 -69.64455811 857.99871765 -69.75524902 857.11264038 C-70.55032432 851.6912057 -72.09217244 846.96014456 -74.26405334 841.93127441 C-76.739521 835.97877392 -76.44833875 829.28371621 -76.7109375 822.9296875 C-76.75412109 821.95515625 -76.79730469 820.980625 -76.84179688 819.9765625 C-76.94726024 817.58605948 -77.04937925 815.19546306 -77.1484375 812.8046875 C-77.77492188 812.53986572 -78.40140625 812.27504395 -79.046875 812.00219727 C-79.86414063 811.64955811 -80.68140625 811.29691895 -81.5234375 810.93359375 C-82.74160156 810.41261108 -82.74160156 810.41261108 -83.984375 809.88110352 C-86.5618833 808.59903739 -87.82791733 807.36319533 -89.1484375 804.8046875 C-94.71876643 788.09370072 -86.9852571 767.25590099 -82.18359375 751.23828125 C-80.56935868 745.65208699 -79.33583066 740.06743139 -78.25390625 734.35546875 C-78.09606659 733.52403351 -77.93822693 732.69259827 -77.77560425 731.83596802 C-77.13091592 728.41221501 -76.49282544 724.98750448 -75.87475586 721.55883789 C-73.81402236 710.20468568 -70.96318789 699.68799618 -66.71557617 688.94873047 C-61.52645819 675.70572488 -60.97235145 661.929539 -60.63085938 647.88671875 C-60.45670441 642.32033168 -60.06704039 636.95660121 -59.15234375 631.4609375 C-57.55142282 621.02191659 -57.67951064 610.46950198 -57.5234375 599.9296875 C-57.48517047 597.77732946 -57.446114 595.6249853 -57.40625 593.47265625 C-57.31121647 588.25012506 -57.22590622 583.02750725 -57.1484375 577.8046875 C-58.04900879 578.08324585 -58.04900879 578.08324585 -58.96777344 578.36743164 C-62.30675872 579.03694828 -64.34802303 577.65743793 -67.3984375 576.2421875 C-68.65750348 575.67537551 -69.91797756 575.11168319 -71.1796875 574.55078125 C-71.83324219 574.25929199 -72.48679687 573.96780273 -73.16015625 573.66748047 C-76.36743931 572.27571496 -79.62401146 571.028582 -82.8984375 569.8046875 C-83.89194214 569.4331958 -83.89194214 569.4331958 -84.90551758 569.05419922 C-90.67566046 566.92701478 -96.51428847 565.02849068 -102.36181641 563.12719727 C-108.34088224 561.15021703 -114.1081698 558.80015761 -119.90087891 556.33789062 C-125.15974142 554.1336207 -130.46121151 552.40166213 -135.92504883 550.78662109 C-141.40813955 549.12653541 -146.66606134 547.04812116 -151.9609375 544.8671875 C-160.93201706 541.17571771 -170.02113101 538.19622204 -179.30419922 535.39941406 C-181.1484375 534.8046875 -181.1484375 534.8046875 -183.74609375 533.703125 C-186.83750373 532.54698794 -189.88096441 532.1890961 -193.1484375 531.8046875 C-192.86638902 535.74293674 -192.5709965 539.68008222 -192.2734375 543.6171875 C-192.19480469 544.71740234 -192.11617187 545.81761719 -192.03515625 546.95117188 C-191.64897246 551.98641443 -191.19155021 556.8674092 -190.1171875 561.8046875 C-188.38405682 570.72844951 -188.67163124 579.93461701 -188.5234375 588.9921875 C-188.48514798 590.87827106 -188.44609041 592.76433919 -188.40625 594.65039062 C-188.31328113 599.20502083 -188.24331083 603.75959555 -188.18478394 608.31478882 C-188.15130158 610.60848489 -188.10203156 612.9012681 -188.04907227 615.19458008 C-187.88122793 624.36061998 -188.7785204 633.08771964 -190.3359375 642.1171875 C-190.44759247 642.78689575 -190.55924744 643.456604 -190.67428589 644.14660645 C-192.27432606 653.74314667 -194.30114285 663.12219518 -196.96875 672.4765625 C-198.25810316 677.04016676 -199.1736116 681.65362356 -200.0859375 686.3046875 C-201.57146965 693.76085691 -203.62541894 700.90954274 -205.99438477 708.13012695 C-208.01490119 714.28909748 -209.7097386 720.48198444 -211.1484375 726.8046875 C-210.1584375 727.1346875 -209.1684375 727.4646875 -208.1484375 727.8046875 C-208.25285156 728.536875 -208.35726562 729.2690625 -208.46484375 730.0234375 C-209.21182808 739.98322862 -206.36612159 747.34096514 -202.72119141 756.47338867 C-196.28023459 772.7639492 -190.20329043 790.78460607 -197.1484375 807.8046875 C-199.01273013 811.40470086 -200.14207102 813.26468597 -203.7109375 815.1796875 C-208.53824125 816.05737909 -213.25688185 815.96135654 -218.1484375 815.8046875 C-218.2928125 816.5884375 -218.4371875 817.3721875 -218.5859375 818.1796875 C-219.1484375 820.8046875 -219.1484375 820.8046875 -220.1484375 822.8046875 C-221.60952813 822.54914696 -223.06731846 822.27468378 -224.5234375 821.9921875 C-225.33554687 821.84136719 -226.14765625 821.69054687 -226.984375 821.53515625 C-229.1484375 820.8046875 -229.1484375 820.8046875 -231.1484375 817.8046875 C-234.08441289 817.42084241 -236.82871123 817.2008445 -239.7734375 817.1171875 C-240.57523438 817.08302734 -241.37703125 817.04886719 -242.203125 817.01367188 C-244.18440068 816.93111872 -246.16639787 816.86622834 -248.1484375 816.8046875 C-248.1071875 817.5884375 -248.0659375 818.3721875 -248.0234375 819.1796875 C-248.1484375 821.8046875 -248.1484375 821.8046875 -250.1484375 823.8046875 C-252.3125 824 -252.3125 824 -254.7734375 823.9296875 C-255.59070313 823.91164063 -256.40796875 823.89359375 -257.25 823.875 C-257.87648438 823.85179687 -258.50296875 823.82859375 -259.1484375 823.8046875 C-259.8084375 822.1546875 -260.4684375 820.5046875 -261.1484375 818.8046875 C-265.4384375 818.4746875 -269.7284375 818.1446875 -274.1484375 817.8046875 C-274.6434375 820.2796875 -274.6434375 820.2796875 -275.1484375 822.8046875 C-277.1484375 824.8046875 -277.1484375 824.8046875 -280.6484375 825.0546875 C-284.1484375 824.8046875 -284.1484375 824.8046875 -286.1484375 822.8046875 C-286.1484375 820.8246875 -286.1484375 818.8446875 -286.1484375 816.8046875 C-309.9084375 816.8046875 -333.6684375 816.8046875 -358.1484375 816.8046875 C-358.4784375 818.1246875 -358.8084375 819.4446875 -359.1484375 820.8046875 C-360.4684375 820.8046875 -361.7884375 820.8046875 -363.1484375 820.8046875 C-363.1484375 819.4846875 -363.1484375 818.1646875 -363.1484375 816.8046875 C-367.4384375 816.8046875 -371.7284375 816.8046875 -376.1484375 816.8046875 C-376.1484375 817.4646875 -376.1484375 818.1246875 -376.1484375 818.8046875 C-377.1384375 818.8046875 -378.1284375 818.8046875 -379.1484375 818.8046875 C-379.1484375 818.1446875 -379.1484375 817.4846875 -379.1484375 816.8046875 C-380.293125 816.959375 -380.293125 816.959375 -381.4609375 817.1171875 C-382.3478125 817.0140625 -383.2346875 816.9109375 -384.1484375 816.8046875 C-385.8984375 814.4296875 -385.8984375 814.4296875 -387.1484375 811.8046875 C-387.4784375 811.1446875 -387.8084375 810.4846875 -388.1484375 809.8046875 C-388.35254804 806.85091638 -388.47226295 803.94868061 -388.5234375 800.9921875 C-388.56082031 800.18458984 -388.59820312 799.37699219 -388.63671875 798.54492188 C-388.69868279 794.34169471 -388.63835917 792.43143414 -385.98046875 789.03125 C-385.04589844 788.29648437 -384.11132812 787.56171875 -383.1484375 786.8046875 C-382.25769531 786.01449219 -381.36695313 785.22429688 -380.44921875 784.41015625 C-372.27408534 777.79524438 -363.9028895 773.69896699 -354.22119141 769.69091797 C-351.33884719 768.45853758 -348.55950056 767.0522108 -345.7734375 765.6171875 C-342.03557507 763.70729341 -338.29094242 762.00025584 -334.3984375 760.4296875 C-329.38615985 758.38101846 -324.50710127 756.12748981 -319.6484375 753.7421875 C-318.96555664 753.4136377 -318.28267578 753.08508789 -317.57910156 752.74658203 C-313.83131445 750.88015047 -310.77103545 749.10221875 -308.1484375 745.8046875 C-307.3611697 743.6664909 -307.3611697 743.6664909 -307.1484375 741.8046875 C-314.78832045 743.35630783 -320.41712347 745.89628322 -326.73828125 750.4765625 C-329.1484375 751.8046875 -329.1484375 751.8046875 -331.46484375 751.5078125 C-332.02042969 751.27578125 -332.57601562 751.04375 -333.1484375 750.8046875 C-334.06898922 747.8756593 -334.33887814 746.29759268 -333.21875 743.3984375 C-330.23053411 739.65471042 -326.68434042 738.32400871 -322.3359375 736.4921875 C-321.14387695 735.95368164 -321.14387695 735.95368164 -319.92773438 735.40429688 C-315.50955945 733.48573456 -312.0598745 732.33806144 -307.1484375 732.8046875 C-307.1484375 732.1446875 -307.1484375 731.4846875 -307.1484375 730.8046875 C-307.9321875 730.5571875 -308.7159375 730.3096875 -309.5234375 730.0546875 C-312.47160858 728.65079651 -313.0509152 727.79793013 -314.1484375 724.8046875 C-313.1484375 723.8046875 -313.1484375 723.8046875 -310.6484375 723.3671875 C-305.54331006 724.00532843 -302.20384119 726.77665275 -298.1484375 729.8046875 C-294.72284112 728.3854057 -293.08707295 726.75375725 -290.9609375 723.7421875 C-288.1484375 719.8046875 -288.1484375 719.8046875 -287.1484375 718.8046875 C-285.14885386 718.76387967 -283.14798496 718.76214394 -281.1484375 718.8046875 C-277.84168734 712.48970874 -276.5417769 707.35423666 -276.58203125 700.25390625 C-276.57397461 699.34186935 -276.56591797 698.42983246 -276.55761719 697.49015808 C-276.54224697 694.49027277 -276.56147238 691.49199656 -276.5859375 688.4921875 C-276.58820343 687.45733215 -276.59046936 686.42247681 -276.59280396 685.35626221 C-276.670336 662.72770304 -278.78865522 640.35377786 -281.28819275 617.88212585 C-281.8797459 612.52460332 -282.37049617 607.18378171 -282.71484375 601.8046875 C-283.02048729 597.04039229 -283.62843826 592.59108403 -284.6484375 587.9296875 C-285.79556192 582.41017061 -286.41395825 577.06052028 -286.6484375 571.4296875 C-286.90967797 565.87288494 -287.65276426 561.15149613 -289.44921875 555.90234375 C-291.31659506 550.30021482 -291.25066517 544.63166441 -291.1484375 538.8046875 C-292.2621875 538.835625 -292.2621875 538.835625 -293.3984375 538.8671875 C-296.1484375 537.8046875 -296.1484375 537.8046875 -297.3359375 535.83984375 C-300.13512022 529.49022706 -301.38317546 523.9279025 -301.7109375 516.9921875 C-301.7519458 516.13633057 -301.7929541 515.28047363 -301.83520508 514.39868164 C-302.3342826 503.35387909 -302.28086486 492.673567 -300.92822266 481.69824219 C-300.37842566 477.17896844 -299.99976971 472.69850865 -299.8046875 468.15014648 C-299.27056485 455.85558899 -297.05197132 445.94425843 -291.3984375 434.9921875 C-290.78947632 433.80906982 -290.78947632 433.80906982 -290.16821289 432.60205078 C-286.41719836 425.67249503 -281.58735074 418.11087116 -274.1484375 414.8046875 C-273.1584375 414.8046875 -272.1684375 414.8046875 -271.1484375 414.8046875 C-270.8184375 413.1546875 -270.4884375 411.5046875 -270.1484375 409.8046875 C-269.5709375 409.66804688 -268.9934375 409.53140625 -268.3984375 409.390625 C-266.19467492 408.84801022 -266.19467492 408.84801022 -264.2734375 408.15625 C-255.85475698 405.27780409 -247.06089986 404.32745516 -238.27978516 403.14599609 C-236.15682799 402.84103651 -236.15682799 402.84103651 -234.15087891 402.28393555 C-214.29221749 397.53112497 -189.88515936 400.60329633 -169.51507568 400.78509521 C-167.27388385 400.80364899 -165.03274482 400.81593959 -162.79150391 400.82666016 C-149.7293512 400.90504564 -137.57441299 401.12589313 -125.17578125 405.47265625 C-120.58824494 407.07215966 -115.91221449 408.01071071 -111.1484375 408.9296875 C-110.31207764 409.09170654 -109.47571777 409.25372559 -108.61401367 409.4206543 C-102.38209248 410.60575485 -96.13632965 411.72371369 -89.87890625 412.76611328 C-86.5935401 413.32280032 -83.37060817 413.97998415 -80.1484375 414.8203125 C-69.73245637 417.49646516 -58.86072919 418.16987926 -48.1484375 417.8046875 C-47.8184375 417.1446875 -47.4884375 416.4846875 -47.1484375 415.8046875 C-47.92445313 415.79010498 -48.70046875 415.77552246 -49.5 415.76049805 C-53.04995523 415.68556984 -56.59901593 415.58905637 -60.1484375 415.4921875 C-61.36917969 415.46962891 -62.58992188 415.44707031 -63.84765625 415.42382812 C-74.09273247 415.11924478 -80.43314651 414.17745309 -87.62670898 406.66430664 C-88.23200439 406.00938232 -88.8372998 405.35445801 -89.4609375 404.6796875 C-93.82632988 400.12698129 -98.14638017 395.7954427 -103.0859375 391.8671875 C-110.9209638 385.63609147 -117.16634433 378.76143287 -123.20507812 370.81567383 C-127.30024961 365.45391571 -131.88627108 360.99116466 -137.0234375 356.6171875 C-142.83902053 351.40470197 -146.82397454 345.5917339 -150.88671875 338.97265625 C-154.01201139 333.90704889 -157.0249484 329.75172187 -161.3684082 325.69360352 C-167.88333676 318.78014827 -171.96402701 308.8392166 -176.4609375 300.5546875 C-177.09322266 299.41 -177.72550781 298.2653125 -178.37695312 297.0859375 C-179.27897461 295.42304687 -179.27897461 295.42304687 -180.19921875 293.7265625 C-180.74231689 292.73237305 -181.28541504 291.73818359 -181.8449707 290.71386719 C-183.1484375 287.8046875 -183.1484375 287.8046875 -183.69604492 284.50097656 C-183.91997925 283.16631348 -183.91997925 283.16631348 -184.1484375 281.8046875 C-186.39587506 280.65448225 -186.39587506 280.65448225 -189.1484375 279.8046875 C-190.0146875 278.9384375 -190.8809375 278.0721875 -191.7734375 277.1796875 C-193.73071273 275.47196486 -194.64650943 274.81483678 -197.2734375 274.76171875 C-198.0984375 274.83777344 -198.9234375 274.91382813 -199.7734375 274.9921875 C-209.48845287 275.5438712 -221.14822363 270.13816341 -229.1484375 264.8046875 C-228.8184375 263.1546875 -228.4884375 261.5046875 -228.1484375 259.8046875 C-227.1584375 259.4746875 -226.1684375 259.1446875 -225.1484375 258.8046875 C-225.67953125 258.18722656 -226.210625 257.56976563 -226.7578125 256.93359375 C-232.50527921 250.04292654 -235.93407303 243.75146689 -238.5859375 235.2421875 C-239.85538496 231.23746651 -241.70891911 227.99743277 -244.0625 224.53125 C-252.52061721 211.08345213 -245.16759268 182.3774141 -242.18652344 167.42651367 C-241.24407514 162.63292275 -240.70686445 157.91459525 -240.45703125 153.0390625 C-240.10297768 150.47553539 -239.64135924 148.92835733 -238.1484375 146.8046875 C-237.36339844 146.51851562 -236.57835937 146.23234375 -235.76953125 145.9375 C-232.09014352 144.34730262 -231.16783232 142.12926488 -229.2109375 138.6796875 C-228.50572538 137.49370808 -227.79869513 136.30880786 -227.08984375 135.125 C-225.99650144 133.25509866 -224.91278709 131.37922748 -223.86328125 129.484375 C-218.88184955 121.57174716 -209.20589859 117.7064236 -201.02319336 113.78662109 C-197.03322041 111.86692152 -193.78878799 109.90503677 -190.4609375 106.9296875 C-183.26753018 101.02910454 -174.5479988 95.68715648 -164.93359375 96.34375 C-158.5524297 97.39981923 -152.35755056 99.02231052 -146.1484375 100.8046875 C-145.07980469 101.10503906 -144.01117188 101.40539062 -142.91015625 101.71484375 C-133.01120205 104.7435304 -121.95238455 108.79856276 -116.1484375 117.8046875 C-115.78621094 118.35769531 -115.42398437 118.91070312 -115.05078125 119.48046875 C-113.73040041 122.8814497 -113.85310737 126.21004722 -113.8984375 129.8046875 C-113.90593018 130.59214355 -113.91342285 131.37959961 -113.92114258 132.19091797 C-114.2216941 149.25351313 -114.68136656 169.10790832 -126.1484375 182.8046875 C-126.4784375 183.7946875 -126.8084375 184.7846875 -127.1484375 185.8046875 C-126.45878906 185.95164062 -125.76914062 186.09859375 -125.05859375 186.25 C-118.96125695 187.70533142 -114.62529878 189.59308416 -109.58984375 193.27734375 C-106.72855822 195.06736398 -103.9056156 196.03734894 -100.7109375 197.1171875 C-94.81438369 199.24593184 -91.43357764 202.04301685 -87.02734375 206.3984375 C-82.80044448 209.93136823 -78.06790766 212.23634605 -73.12402344 214.62207031 C-68.62590723 216.83279808 -65.48901751 219.05063688 -62.1484375 222.8046875 C-55.89805579 220.3491804 -53.73135972 215.07640118 -51.20556641 209.29907227 C-50.19124261 206.90568978 -49.2144517 204.50134566 -48.25390625 202.0859375 C-42.05735295 186.56261326 -42.05735295 186.56261326 -36.3984375 180.3984375 C-34.83986753 178.74883955 -34.83986753 178.74883955 -35.1484375 175.8046875 C-35.68210937 175.65773438 -36.21578125 175.51078125 -36.765625 175.359375 C-50.39121863 171.2575527 -60.76902393 162.8520362 -67.703125 150.43359375 C-77.25898637 131.99606345 -79.17889721 113.15037967 -79.66601562 92.69140625 C-79.70017578 91.62019531 -79.73433594 90.54898438 -79.76953125 89.4453125 C-79.7945874 88.48141602 -79.81964355 87.51751953 -79.84545898 86.52441406 C-80.1659876 83.64714676 -80.95488816 81.42995882 -82.1484375 78.8046875 C-83.0353125 78.9696875 -83.9221875 79.1346875 -84.8359375 79.3046875 C-99.13445585 81.23454887 -99.13445585 81.23454887 -104.1328125 78.86328125 C-105.5234375 77.6171875 -105.5234375 77.6171875 -107.1484375 74.8046875 C-107.2734375 72.2421875 -107.2734375 72.2421875 -106.1484375 69.8046875 C-105.4471875 69.2478125 -104.7459375 68.6909375 -104.0234375 68.1171875 C-100.51488084 65.29508758 -98.45092145 62.13930459 -95.9765625 58.40625 C-94.1484375 55.8046875 -94.1484375 55.8046875 -92.3203125 53.890625 C-86.67959709 47.93108654 -85.59967235 41.3161595 -83.90820312 33.53808594 C-80.53873648 18.14649315 -71.63009966 7.29075074 -59.1484375 -2.1953125 C-55.16095669 -4.16155304 -51.69103155 -4.50198234 -47.2734375 -4.6953125 C-11.77947201 -6.25548681 -11.77947201 -6.25548681 0 0 Z " fill="#9B9B9B" transform="translate(580.1484375,176.1953125)"/>
<path d="M0 0 C10.35140682 0.8150714 18.44757204 4.90807976 25.40625 12.69140625 C26.88615313 14.56473433 28.35236303 16.44896109 29.8046875 18.34375 C32.608334 21.73606249 35.74448173 24.23757406 39.23828125 26.88671875 C42.56043922 29.42885095 45.7490054 32.10592511 48.9375 34.8125 C49.4934082 35.28107422 50.04931641 35.74964844 50.62207031 36.23242188 C52.09096119 37.47706148 53.54615114 38.73782266 55 40 C55.61359375 40.53238281 56.2271875 41.06476563 56.859375 41.61328125 C58.94042893 44.14332969 58.26794685 46.8918165 58 50 C57.33333333 51.66666667 56.66666667 53.33333333 56 55 C55.52587047 59.93929535 55.52587047 59.93929535 57.53125 64.3046875 C59.39418446 67.72337041 59.1879863 69.78178727 58.8125 73.625 C58.71582031 74.75164062 58.61914062 75.87828125 58.51953125 77.0390625 C58 80 58 80 56 83 C50.54230276 82.61531649 48.3014212 80.90714552 44.5625 77 C44.07861816 76.50234131 43.59473633 76.00468262 43.09619141 75.49194336 C40.40232217 72.67324947 38.07281629 69.77378654 35.875 66.5625 C31.97789441 61.27153913 26.63314422 58.03252038 21.2734375 54.37573242 C9.65597904 46.41670522 -2.63521367 33.95851297 -5.48046875 19.5703125 C-5.90670674 12.35882649 -3.07407408 6.38968255 0 0 Z " fill="#FDFDFD" transform="translate(435,408)"/>
<path d="M0 0 C0.70461365 0.02502594 1.40922729 0.05005188 2.13519287 0.07583618 C4.3770971 0.15775395 6.61808267 0.25444945 8.859375 0.3515625 C10.38277545 0.40983111 11.90621317 0.46713376 13.4296875 0.5234375 C17.15674719 0.66328897 20.88312678 0.81639587 24.609375 0.9765625 C23.949375 2.2965625 23.289375 3.6165625 22.609375 4.9765625 C11.13017136 5.63044119 -0.07326857 3.68051045 -11.390625 1.9765625 C-7.70243608 -0.42485829 -4.23146151 -0.20055123 0 0 Z " fill="#F7F7F7" transform="translate(509.390625,590.0234375)"/>
<path d="M0 0 C0 0.66 0 1.32 0 2 C-3.63 1.67 -7.26 1.34 -11 1 C-6.46780033 -1.26609984 -4.82227075 -0.92735976 0 0 Z " fill="#ECECEC" transform="translate(509,591)"/>
</svg>
