<?xml version="1.0" encoding="UTF-8"?>
<svg version="1.1" xmlns="http://www.w3.org/2000/svg" width="362" height="727">
<path d="M0 0 C119.46 0 238.92 0 362 0 C362 239.91 362 479.82 362 727 C242.54 727 123.08 727 0 727 C0 487.09 0 247.18 0 0 Z " fill="#FEFEFE" transform="translate(0,0)"/>
<path d="M0 0 C1.08925781 0.03222656 2.17851562 0.06445312 3.30078125 0.09765625 C14.22474967 0.97602744 23.28451226 6.28451226 31 14 C31.79412631 16.58525791 32.49020729 19.12619012 33.125 21.75 C33.30675781 22.45382813 33.48851562 23.15765625 33.67578125 23.8828125 C34.69623338 28.01065645 35.20215533 31.71430694 35 36 C35.99 36.33 36.98 36.66 38 37 C41.50414803 42.94832245 42.51471621 49.5713485 43.515625 56.29296875 C44.11924994 59.66645329 45.04592157 62.17744226 47 65 C49.35774595 66.68134288 49.35774595 66.68134288 52 68 C52.76441406 68.61488281 53.52882812 69.22976562 54.31640625 69.86328125 C56.97164075 71.97741993 59.681701 73.77151648 62.5625 75.5625 C67.68215373 78.75074484 67.68215373 78.75074484 70.02734375 80.58984375 C71.98455555 82.10828887 71.98455555 82.10828887 74.46875 82.98046875 C80.9431835 85.58822669 86.20094259 91.07465161 91 96 C92.12426493 96.87594428 93.24932983 97.75086233 94.375 98.625 C99.07843441 102.57876036 101.91777604 107.75869342 105 113 C105.51046875 113.83917969 106.0209375 114.67835938 106.546875 115.54296875 C107.94794896 117.91198897 109.25004871 120.29817246 110.5 122.75 C111.10328125 123.91789062 111.10328125 123.91789062 111.71875 125.109375 C113.43771217 128.98752136 114.71918973 132.95908816 116 137 C116.25346191 137.79857422 116.50692383 138.59714844 116.76806641 139.41992188 C122.41624162 157.4394344 122.41624162 157.4394344 123.578125 165.7109375 C124.10762865 168.58398508 125.07211888 171.22985308 126 174 C126.67505634 176.64283192 127.32359232 179.28078787 127.9375 181.9375 C128.11079834 182.68257812 128.28409668 183.42765625 128.46264648 184.1953125 C130.46719955 192.90481368 132.29195694 201.64938189 133.74609375 210.46875 C133.93546509 211.60086914 133.93546509 211.60086914 134.12866211 212.75585938 C134.36824117 214.2037297 134.60010349 215.65290815 134.82250977 217.10351562 C135.60705291 221.85553996 137.02836878 225.65616869 139 230 C141.26649462 236.92068677 141.21989813 243.78001133 141 251 C139.02 251 137.04 251 135 251 C136.13298295 255.9439256 137.80739842 259.48091712 140.5703125 263.70703125 C150.27582947 279.27298333 155.55688111 297.48519963 151.75 315.6875 C150.47009677 320.82513974 148.82004965 324.55628539 146 329 C144.99440519 331.24595883 144.04739438 333.50778354 143.125 335.7890625 C142 338 142 338 140.125 340.31640625 C137.62646243 343.47172851 135.84446715 346.74965232 134 350.3125 C133.67 350.93833984 133.34 351.56417969 133 352.20898438 C132.32924575 353.4862996 131.6650008 354.76705274 131.00708008 356.05102539 C130.33404495 357.35353191 129.64357009 358.64716938 128.9362793 359.93139648 C126.23683161 364.97049108 124.89823474 369.84390454 123.8125 375.4375 C122.10491071 383.89508929 122.10491071 383.89508929 121 385 C120.87642922 386.93223995 120.82205542 388.86893799 120.79467773 390.80493164 C120.77473251 392.04614273 120.75478729 393.28735382 120.73423767 394.56617737 C120.71725207 395.9308357 120.70037331 397.29549537 120.68359375 398.66015625 C120.66303064 400.04878875 120.64203434 401.4374149 120.62062073 402.82603455 C120.56533353 406.48714059 120.51595374 410.14830373 120.46777344 413.80950928 C120.41760679 417.54297997 120.36189554 421.27636738 120.30664062 425.00976562 C120.19897782 432.3397733 120.09755106 439.66985005 120 447 C119.34 447 118.68 447 118 447 C117.7781872 454.0937607 117.58410578 461.18791898 117.40795898 468.28295898 C117.34511026 470.68905231 117.27625633 473.09499747 117.20092773 475.50073242 C116.64478227 493.05920293 116.64478227 493.05920293 118.90940857 510.41368103 C120.23313621 516.69371756 120.25471018 522.61474624 120 529 C119.9503662 531.40624682 119.90089197 533.81249693 119.8515625 536.21875 C119.77848677 538.64590818 119.70295524 541.07299364 119.625 543.5 C119.5940625 544.73492188 119.563125 545.96984375 119.53125 547.2421875 C119.47324219 549.02496094 119.47324219 549.02496094 119.4140625 550.84375 C119.3826416 551.90787109 119.3512207 552.97199219 119.31884766 554.06835938 C119 557 119 557 117.99780273 559.32446289 C116.55635245 563.18960938 116.66274662 566.87042417 116.62109375 570.96484375 C116.60409927 571.83460342 116.5871048 572.7043631 116.56959534 573.60047913 C116.51663798 576.37941224 116.47634411 579.15833681 116.4375 581.9375 C116.37875418 585.57171553 116.31441254 589.20579602 116.24609375 592.83984375 C116.23003586 593.72010223 116.21397797 594.60036072 116.19743347 595.5072937 C116.06775155 601.74555362 115.71749171 607.93013917 115.22045898 614.15063477 C114.95272491 617.61101613 114.83315768 621.02951037 114.8125 624.5 C114.79832031 625.6034375 114.78414062 626.706875 114.76953125 627.84375 C115.01409031 631.19296563 115.90230095 633.84140351 117 637 C117 638.32 117 639.64 117 641 C115.02 641.66 113.04 642.32 111 643 C111.32355469 643.79019531 111.64710938 644.58039062 111.98046875 645.39453125 C113.25801507 649.9124441 113.33036078 654.01869131 113.3125 658.6875 C113.32861328 659.54150391 113.34472656 660.39550781 113.36132812 661.27539062 C113.36197266 662.09587891 113.36261719 662.91636719 113.36328125 663.76171875 C113.36626221 664.50381592 113.36924316 665.24591309 113.37231445 666.01049805 C112.89027687 668.58631726 112.06482665 669.42104956 110 671 C102.71834056 673.29588222 95.68518405 673.21217255 88.09759521 673.09347534 C84.65246234 673.0410384 81.20718297 673.02445615 77.76171875 673.0078125 C76.75060028 673.00221565 76.75060028 673.00221565 75.71905518 672.99650574 C70.25912026 672.97662997 64.82504118 673.11821886 59.375 673.4375 C58.67898682 673.47689697 57.98297363 673.51629395 57.26586914 673.55688477 C54.65643933 673.72820596 52.140844 673.96973788 49.58203125 674.51953125 C37.85326563 676.70203983 24.92146665 674.989158 13.1875 673.6875 C12.08510986 673.56987305 10.98271973 673.45224609 9.84692383 673.33105469 C0.96958388 672.26476487 -5.41594843 670.43441403 -12 664 C-14.87001488 659.59931051 -15.73305976 656.22305077 -15 651 C-13.66816482 648.34161471 -12.18073427 646.03152613 -10 644 C-7.828125 643.3046875 -7.828125 643.3046875 -6 643 C-6.16371094 642.44828125 -6.32742187 641.8965625 -6.49609375 641.328125 C-7.05760414 638.73385993 -7.09739008 636.40164589 -7.0625 633.75 C-7.05347656 632.85796875 -7.04445313 631.9659375 -7.03515625 631.046875 C-7.02355469 630.37140625 -7.01195312 629.6959375 -7 629 C-2.55447795 626.62216262 0.89051356 625.83215243 5.9375 625.625 C11.39973344 625.30182842 16.33686475 624.34955692 21.5625 622.8125 C22.58041626 622.53623779 22.58041626 622.53623779 23.61889648 622.25439453 C28.64856166 620.67935334 30.46510108 618.50841612 33 614 C33.92796679 612.8257364 34.86460404 611.65823599 35.8125 610.5 C46.40937104 596.46049066 50.40775675 581.34642644 49 564 C48.10440476 558.22405969 46.43379873 553.033227 44.203125 547.65234375 C41.35160314 540.60486125 39.21677312 533.32737863 37 526.0625 C32.53734531 510.61947812 32.53734531 510.61947812 26.40234375 495.81640625 C24.64548887 492.28801524 23.61666021 488.72457269 22.5625 484.9375 C22.12990525 483.41508036 21.69630243 481.89294683 21.26171875 480.37109375 C20.94340088 479.25323486 20.94340088 479.25323486 20.61865234 478.11279297 C19.77146506 475.219518 18.8174482 472.36345374 17.875 469.5 C14.21270464 457.5900964 12.23851023 445.46586952 13 433 C13.0319043 432.34966797 13.06380859 431.69933594 13.09667969 431.02929688 C14.15899833 411.43541963 20.17228264 392.66729091 25.99755859 374.0480957 C28.49184823 365.83537819 29.83119226 357.48923514 31 349 C30.34 349 29.68 349 29 349 C29 346.03 29 343.06 29 340 C28.34 340 27.68 340 27 340 C26.65571875 336.77190546 26.32563187 333.54252712 26 330.3125 C25.90098389 329.35456543 25.80196777 328.39663086 25.69995117 327.40966797 C25.17924749 322.05836693 24.99190238 316.98715235 25.3125 311.625 C25.40012947 308.23373941 25.44080195 306.62939247 23.484375 303.8359375 C21.60671879 301.99166601 21.60671879 301.99166601 19.625 300.43359375 C18 299 18 299 17.0625 296.0625 C17.041875 295.381875 17.02125 294.70125 17 294 C16.01 293.67 15.02 293.34 14 293 C12.640625 290.98828125 12.640625 290.98828125 11.25 288.3125 C10.734375 287.33152344 10.21875 286.35054688 9.6875 285.33984375 C8.48643458 282.96273511 7.29831505 280.58209603 6.125 278.19140625 C5.81272461 277.5574292 5.50044922 276.92345215 5.17871094 276.27026367 C4.28282168 274.44198073 3.39898685 272.60780603 2.515625 270.7734375 C1.29243117 267.90854203 1.29243117 267.90854203 -1 267 C-1.27649088 264.21696061 -1.31533312 261.45980729 -1.36328125 258.6640625 C-1.75071342 255.81981973 -1.75071342 255.81981973 -4.2421875 254.24609375 C-6.75565908 253.11040333 -9.17473268 252.23090718 -11.8125 251.4375 C-19.26930122 248.82761957 -25.57702935 244.45732939 -32.15527344 240.17480469 C-34.61507577 238.60829213 -37.14802209 237.18272037 -39.6875 235.75 C-43.68824575 233.3801739 -46.10156797 230.6611773 -49 227 C-50.94272347 225.44333055 -52.94245631 224.01574193 -54.98828125 222.59765625 C-57.10266386 220.91846695 -58.43361972 219.13973734 -60.0625 217 C-61.68249769 215.09965955 -61.68249769 215.09965955 -64 214 C-68.01156399 214.00439864 -71.44207941 214.5387117 -75.37890625 215.31640625 C-80.6306939 216.30784405 -83.7089561 216.76506305 -88.375 214 C-93.55598406 209.17356452 -96.13200595 202.31188244 -99.06103516 195.99365234 C-100.38321615 193.18633826 -101.82078313 190.4415325 -103.25 187.6875 C-109.7080854 174.77132919 -113.48974551 161.57068674 -110.09375 147.15234375 C-108.05975658 141.0568827 -105.90035766 135.99388697 -101.3515625 131.3984375 C-99.76985678 129.86869318 -99.76985678 129.86869318 -98.25 127.0625 C-97.8375 126.381875 -97.425 125.70125 -97 125 C-96.34 125 -95.68 125 -95 125 C-94.505 123.515 -94.505 123.515 -94 122 C-93.34 122 -92.68 122 -92 122 C-91.7525 121.443125 -91.505 120.88625 -91.25 120.3125 C-88.12015593 114.52228846 -84.61368458 112.07163873 -79 109 C-78.67 108.34 -78.34 107.68 -78 107 C-69.39453246 104.13151082 -60.65176126 103.78701812 -52.4375 107.75 C-45.06430879 111.90367559 -41.67178434 117.19490838 -39.36328125 125.2109375 C-38.23366589 133.88346829 -39.50961827 141.66856737 -41.5 150.125 C-41.73847656 151.176875 -41.97695312 152.22875 -42.22265625 153.3125 C-42.80557664 155.87734972 -43.3981416 158.43954068 -44 161 C-43.32598145 161.19118408 -42.65196289 161.38236816 -41.95751953 161.5793457 C-41.06661621 161.83804443 -40.17571289 162.09674316 -39.2578125 162.36328125 C-37.93740967 162.74286987 -37.93740967 162.74286987 -36.59033203 163.13012695 C-33.04653264 164.3201889 -30.15578472 166.01048354 -27 168 C-27.02320312 167.3915625 -27.04640625 166.783125 -27.0703125 166.15625 C-27.53881291 143.40051599 -22.02169729 124.13651046 -6.17578125 107.21875 C-3.79999515 104.79604533 -1.40566444 102.39302522 1 100 C-0.30195313 100.03480469 -1.60390625 100.06960937 -2.9453125 100.10546875 C-4.67186204 100.13361901 -6.39842561 100.16091784 -8.125 100.1875 C-8.9809375 100.21263672 -9.836875 100.23777344 -10.71875 100.26367188 C-15.88246193 100.32325317 -19.59021643 100.0194378 -24 97 C-24.72693904 95.02111039 -25.39816251 93.02045442 -26 91 C-27.93330603 89.90833725 -27.93330603 89.90833725 -30 89 C-33.14600924 84.75865247 -34.10704669 80.31173459 -35.1875 75.25 C-35.45336914 74.10917969 -35.45336914 74.10917969 -35.72460938 72.9453125 C-37.10697038 66.64729709 -38.0722291 60.21668731 -36 54 C-37.16015625 54.54140625 -37.16015625 54.54140625 -38.34375 55.09375 C-49.26923077 59.96153846 -49.26923077 59.96153846 -56 59 C-58.5 57.8125 -58.5 57.8125 -60 56 C-60.59361455 52.4505522 -60.15823106 51.22445251 -58.05859375 48.24609375 C-57.19363281 47.31925781 -56.32867187 46.39242187 -55.4375 45.4375 C-54.59058594 44.50808594 -53.74367187 43.57867187 -52.87109375 42.62109375 C-50.46882196 40.42799936 -49.04797036 39.47039976 -46.234375 38.14453125 C-42.65001711 36.27969685 -42.65001711 36.27969685 -42.01953125 32.390625 C-41.9239895 31.01199914 -41.85602769 29.63124684 -41.8125 28.25 C-40.80491375 16.19818649 -40.80491375 16.19818649 -37 12 C-25.90661927 3.11425723 -14.00320731 -0.57404452 0 0 Z " fill="#9B9B9B" transform="translate(155,30)"/>
<path d="M0 0 C5.24143867 2.92545414 8.57408697 6.42402079 11 12 C10.67 12.66 10.34 13.32 10 14 C8.70391053 13.06862408 7.41328368 12.1296434 6.125 11.1875 C5.40570313 10.66542969 4.68640625 10.14335937 3.9453125 9.60546875 C2 8 2 8 0 5 C-0.125 2.3125 -0.125 2.3125 0 0 Z " fill="#F7F7F7" transform="translate(110,217)"/>
</svg>
