<?xml version="1.0" encoding="UTF-8"?>
<svg version="1.1" xmlns="http://www.w3.org/2000/svg" width="1000" height="1939">
<path d="M0 0 C330 0 660 0 1000 0 C1000 639.87 1000 1279.74 1000 1939 C670 1939 340 1939 0 1939 C0 1299.13 0 659.26 0 0 Z " fill="#FEFEFE" transform="translate(0,0)"/>
<path d="M0 0 C0.69480469 0.29003906 1.38960937 0.58007812 2.10546875 0.87890625 C6.95085335 3.05160216 10.22168465 5.31159285 13 10 C15.0326653 20.94512087 10.03268647 32.94785555 5.75 42.8125 C5.3274292 43.78735352 4.9048584 44.76220703 4.46948242 45.76660156 C-0.31280814 56.33824795 -6.63973692 65.79404981 -13.19311523 75.33227539 C-16.23369835 79.82145952 -19.11903899 84.40732125 -22 89 C-22.38518799 89.61149902 -22.77037598 90.22299805 -23.16723633 90.85302734 C-28.52085084 99.41723094 -33.38270376 108.24424978 -38.1875 117.125 C-38.76959229 118.19693604 -39.35168457 119.26887207 -39.95141602 120.37329102 C-43.42312313 126.83922825 -46.62051418 133.37191269 -49.60351562 140.07788086 C-51.95818358 145.00498239 -54.97030667 149.46792789 -58 154 C-63.66302539 162.56013298 -68.92934745 171.25651759 -73.98608398 180.18701172 C-78.14592242 187.52805618 -82.37463658 194.82632911 -86.64038086 202.10617065 C-87.36642126 203.34533152 -88.09186838 204.58484024 -88.81665039 205.82473755 C-93.18995228 213.30490812 -97.65526958 220.71942707 -102.21386719 228.08837891 C-104.07552146 231.12310947 -105.87496322 234.18665478 -107.64916992 237.27294922 C-112.93869395 246.47242746 -118.75545235 255.26531594 -124.69140625 264.05664062 C-130.59718569 272.82716382 -135.83271508 281.90057327 -140.96069336 291.13769531 C-142.26301321 293.47128605 -143.58761209 295.79194705 -144.91674805 298.11035156 C-146.15751513 300.27477285 -147.39328124 302.44201419 -148.62890625 304.609375 C-150.67461673 308.19617806 -152.72491593 311.78031812 -154.77734375 315.36328125 C-156.82405352 318.93691121 -158.85767265 322.51737654 -160.87890625 326.10546875 C-165.59527249 334.43390979 -170.50017057 342.40655804 -176.1796875 350.109375 C-180.57397677 356.09598606 -184.67077464 362.2951088 -188.82324219 368.45043945 C-196.97634996 380.48817498 -196.97634996 380.48817498 -200 382 C-200.27906926 387.4883621 -200.25491791 390.3888663 -197 395 C-197 395.66 -197 396.32 -197 397 C-195.35 397.66 -193.7 398.32 -192 399 C-192.01047363 399.98806641 -192.02094727 400.97613281 -192.03173828 401.99414062 C-192.06818615 405.6916943 -192.09098985 409.38923239 -192.10986328 413.08691406 C-192.11986475 414.68134235 -192.13347031 416.27575257 -192.15087891 417.87011719 C-192.17538695 420.17387376 -192.18654176 422.47738595 -192.1953125 424.78125 C-192.20563507 425.48366821 -192.21595764 426.18608643 -192.22659302 426.90979004 C-192.22814525 433.89814762 -191.28460428 440.23251567 -186.5 445.625 C-183.6320159 448.97525691 -181.05932503 452.35381225 -178.62670898 456.03344727 C-174.0259962 462.91609848 -168.85626719 468.05281398 -162.47412109 473.30249023 C-157.6043801 477.34161272 -153.85398323 481.55145972 -149.984375 486.5703125 C-147.53665582 489.56732299 -144.79073507 491.93190992 -141.83203125 494.40625 C-137.1448503 498.48379761 -133.67721576 503.44120246 -130.125 508.5 C-127.104871 512.72588392 -124.01325116 515.85854768 -120.01171875 519.12109375 C-116.76127959 522.15694081 -114.36990769 525.76431857 -111.83203125 529.3984375 C-109.70424362 532.41998667 -107.41566319 535.20688943 -105 538 C-103.12119128 537.95231597 -103.12119128 537.95231597 -101 537 C-100.39929688 536.09378906 -99.79859375 535.18757812 -99.1796875 534.25390625 C-94.52184393 527.30053045 -87.66267592 521.99402045 -80.75 517.375 C-76.78378926 514.69967861 -73.88374139 511.8623832 -70.84765625 508.1875 C-68.64484315 505.57951832 -66.3210102 503.1313972 -63.9375 500.6875 C-63.14214844 499.86636719 -62.34679687 499.04523438 -61.52734375 498.19921875 C-57.47762303 494.67527321 -54.40061039 493 -49 493 C-49 492.34 -49 491.68 -49 491 C-49.66 491.33 -50.32 491.66 -51 492 C-60.25407067 492.72481792 -71.76886252 492.85117699 -79.5 487.1875 C-80.6931228 486.15479707 -81.86274879 485.09392735 -83 484 C-83.9075 483.154375 -84.815 482.30875 -85.75 481.4375 C-90.70277081 476.07199829 -93.36634857 471.21421243 -95.9375 464.4375 C-96.63819283 462.62456282 -97.34001026 460.81205988 -98.04296875 459 C-98.3786084 458.13117188 -98.71424805 457.26234375 -99.06005859 456.3671875 C-100.19402233 453.5113661 -101.46883556 450.72988317 -102.75 447.9375 C-105.54695633 441.34534704 -106.76519251 434.41937913 -108.10546875 427.41796875 C-108.64453218 424.60631782 -109.29495784 421.99526728 -110.10546875 419.234375 C-110.91431178 416.30982467 -111.21750852 414.06902699 -111.125 411.0625 C-111.10695313 410.29035156 -111.08890625 409.51820313 -111.0703125 408.72265625 C-111.04710937 408.15417969 -111.02390625 407.58570313 -111 407 C-112.03898438 407.03480469 -113.07796875 407.06960938 -114.1484375 407.10546875 C-131.42828987 407.5202018 -131.42828987 407.5202018 -137 404 C-139.41933598 400.65349335 -140.02542025 397.60655963 -139.9609375 393.53125 C-138.54171707 389.79281571 -135.73091756 388.34394609 -132.4375 386.375 C-131.80360352 385.98183594 -131.16970703 385.58867188 -130.51660156 385.18359375 C-126.15015481 382.53293522 -121.89523888 380.50622735 -117 379 C-116.34 378.67 -115.68 378.34 -115 378 C-114.71572317 376.08664936 -114.71572317 376.08664936 -114.6875 373.6875 C-113.56102389 359.0242177 -109.06091238 345.79483195 -102 333 C-101.18334307 331.18936918 -100.37046701 329.37702523 -99.5625 327.5625 C-93.67413388 315.95617063 -79.50063288 308.76980476 -67.6328125 304.7890625 C-66.76398438 304.52867187 -65.89515625 304.26828125 -65 304 C-63.95199219 303.64164062 -62.90398437 303.28328125 -61.82421875 302.9140625 C-57.03516222 301.76938505 -52.59220956 301.70017983 -47.6875 301.75 C-46.72489258 301.75676758 -45.76228516 301.76353516 -44.77050781 301.77050781 C-19.33185338 302.13116134 -19.33185338 302.13116134 -8 308 C-7.28102539 308.36222656 -6.56205078 308.72445313 -5.82128906 309.09765625 C15.39215219 319.80083974 15.39215219 319.80083974 20.5 329.75 C20.88873291 330.50442383 21.27746582 331.25884766 21.67797852 332.03613281 C27.65152933 343.98074079 30.27294751 355.00471962 31.1887207 368.30297852 C31.61108777 373.71901258 32.55445911 378.10946954 34.625 383.1875 C37.25415285 390.22457974 37.51960781 396.82885852 37.5625 404.3125 C37.58401123 405.95931763 37.58401123 405.95931763 37.60595703 407.6394043 C37.46997177 418.72388188 34.00885483 426.56775306 27 435 C26.52949219 435.60328125 26.05898438 436.2065625 25.57421875 436.828125 C24.43724506 438.2635962 23.22500699 439.63888112 22 441 C21.34 441 20.68 441 20 441 C20.66 446.61 21.32 452.22 22 458 C23.2890625 458.09152344 24.578125 458.18304687 25.90625 458.27734375 C31.171828 458.86869284 35.64162292 460.51519263 40.5 462.5625 C41.36077148 462.91747559 42.22154297 463.27245117 43.10839844 463.63818359 C70.64590936 475.11973675 90.9539864 490.53276975 103 519 C107.53773843 531.09981555 109.76530339 543.21674027 110.67578125 556.0703125 C110.83552025 559.90181225 110.83552025 559.90181225 112 563 C112.13502514 564.50598277 112.22380128 566.01641174 112.28125 567.52734375 C112.31863281 568.40197266 112.35601563 569.27660156 112.39453125 570.17773438 C112.42933594 571.08845703 112.46414063 571.99917969 112.5 572.9375 C112.56911889 574.73843102 112.64190244 576.53922597 112.71875 578.33984375 C112.74904297 579.13769287 112.77933594 579.93554199 112.81054688 580.75756836 C112.99523799 582.94363519 113.45526787 584.88038024 114 587 C114.22484321 590.33695871 114.38844908 593.6681578 114.51757812 597.00976562 C114.78447861 602.53410217 115.54791659 607.90989203 116.42260742 613.36889648 C117.51738901 620.2537534 118.48312397 627.15701007 119.4375 634.0625 C119.54705017 634.85303772 119.65660034 635.64357544 119.76947021 636.45806885 C121.65427104 650.19205051 122.98834944 663.92778559 123.92358398 677.75805664 C124.78066588 689.95373648 126.40114777 701.90814044 130.875 713.375 C133.0415213 719.21876307 135.00640048 725.07821263 136.75 731.0625 C137.04753174 732.07932861 137.04753174 732.07932861 137.35107422 733.11669922 C137.91508665 735.07409735 138.46052731 737.03570933 139 739 C139.18763916 739.65943604 139.37527832 740.31887207 139.56860352 740.99829102 C142.38719207 751.39712667 142.48879229 761.79034904 137.37109375 771.40234375 C135.48749727 774.97098095 134.22758097 778.69157767 132.89453125 782.4921875 C132 785 132 785 130.76171875 787.56640625 C129.75703468 789.93902865 129.75703468 789.93902865 130.6875 792.03515625 C131.120625 792.70417969 131.55375 793.37320313 132 794.0625 C132.47566406 794.85527344 132.95132812 795.64804687 133.44140625 796.46484375 C133.95574219 797.30144531 134.47007812 798.13804687 135 799 C145.24110296 816.06850493 148.17648796 836.41039551 149 856 C149.03851074 856.89444824 149.07702148 857.78889648 149.11669922 858.71044922 C149.58563311 871.5723026 148.88466396 882.97488084 142.96484375 894.671875 C141.86073775 897.33603362 141.21660163 900.04087126 140.54711914 902.84082031 C138.81410365 909.6800836 136.30000972 916.33565598 134 923 C133.7520166 923.72944824 133.5040332 924.45889648 133.24853516 925.21044922 C129.75104167 935.42650354 125.23365638 944.04692762 118.9609375 952.8671875 C116.8923608 956.17196541 115.58987471 959.34293019 114.25 963 C110.70470109 972.27063351 106.178448 980.95457371 100.06640625 988.81640625 C96.79093937 993.11423454 94.36111454 997.68369423 91.9375 1002.5 C87.32255964 1011.58406903 87.32255964 1011.58406903 84.5703125 1015.875 C81.3575111 1020.90514993 78.67067888 1026.19866437 75.9375 1031.5 C75.42123047 1032.49386719 74.90496094 1033.48773437 74.37304688 1034.51171875 C72.14199984 1038.81465532 69.93252523 1043.12353928 67.80078125 1047.4765625 C66.41209235 1050.1936935 65.07302554 1052.46217208 63.25 1054.875 C56.38006833 1064.92771015 52.16434787 1077.11648818 48.0078125 1088.49609375 C47 1091 47 1091 45 1094 C44.92697566 1097.37129018 45.50194859 1100.66989158 46 1104 C46.09023438 1104.71414063 46.18046875 1105.42828125 46.2734375 1106.1640625 C47.32608533 1112.40977293 50.21402404 1117.60073029 53.24609375 1123.08203125 C54.73242637 1126.08182953 55.54178266 1128.98580475 56.2890625 1132.24609375 C58.18153975 1140.30310668 61.10108717 1147.95879512 63.98803711 1155.70117188 C64.93978223 1158.25612664 65.87971918 1160.81520563 66.81835938 1163.375 C67.4289946 1165.02629806 68.04029962 1166.67734863 68.65234375 1168.328125 C68.92852036 1169.08039368 69.20469696 1169.83266235 69.48924255 1170.60772705 C71.10241358 1174.91332292 72.95792777 1178.9758719 75.05509949 1183.06539917 C77.50843424 1188.08838665 79.15504001 1193.48136018 80.9465332 1198.76879883 C81.43615398 1200.20184706 81.9353524 1201.63166257 82.44458008 1203.05786133 C85.80948278 1212.48242663 87.65366953 1221.07679568 87.87036133 1231.09985352 C88.00383593 1235.1154029 88.43400032 1239.02846015 89 1243 C89.14889427 1244.06852959 89.14889427 1244.06852959 89.30079651 1245.15864563 C89.63107271 1247.5100469 89.96779286 1249.86047592 90.3046875 1252.2109375 C92.89710017 1270.51745025 95.33595433 1288.76981313 96.78894043 1307.20504761 C97.70168664 1318.7166069 99.21753276 1330.0469406 101.1328125 1341.43359375 C101.42450251 1343.28865126 101.71357692 1345.14412198 102 1347 C102.16983398 1347.98500488 102.33966797 1348.97000977 102.51464844 1349.98486328 C102.65161133 1350.95020996 102.78857422 1351.91555664 102.9296875 1352.91015625 C103.06358887 1353.76875244 103.19749023 1354.62734863 103.33544922 1355.51196289 C103 1358 103 1358 100.52392578 1360.33154297 C97.73381762 1363.28142517 97.46309776 1364.66046701 97.56176758 1368.64772034 C97.62400513 1369.70575111 97.62400513 1369.70575111 97.6875 1370.78515625 C97.70643311 1371.52326035 97.72536621 1372.26136444 97.74487305 1373.02183533 C97.80572828 1375.37024169 97.89882609 1377.71550614 98 1380.0625 C98.13311706 1383.15747161 98.23296192 1386.25089615 98.3125 1389.34765625 C98.3539917 1390.05503433 98.3954834 1390.76241241 98.43823242 1391.4912262 C98.48828125 1393.50415039 98.48828125 1393.50415039 98 1397 C84.2311772 1411.18242824 54.63939676 1413.20302575 36.12548828 1413.68896484 C30.47021359 1413.85100381 25.06900524 1414.51888715 19.5 1415.5 C6.07311748 1417.82163915 -7.39874663 1418.06174989 -21 1418.125 C-21.84296631 1418.12975342 -22.68593262 1418.13450684 -23.55444336 1418.1394043 C-24.7340564 1418.13614136 -24.7340564 1418.13614136 -25.9375 1418.1328125 C-26.62714844 1418.13168457 -27.31679688 1418.13055664 -28.02734375 1418.12939453 C-30 1418 -30 1418 -31.94799805 1417.50488281 C-34.31005704 1416.92371232 -36.46306087 1416.83947244 -38.89453125 1416.7890625 C-71.45255245 1415.89319848 -71.45255245 1415.89319848 -80 1408 C-84.54173389 1402.80617838 -86.17279987 1398.41397377 -86.375 1391.5625 C-86.42398438 1390.42941406 -86.47296875 1389.29632812 -86.5234375 1388.12890625 C-86 1385 -86 1385 -83.9375 1382.8046875 C-80.60728835 1380.758733 -77.21597608 1379.08409263 -73.625 1377.5625 C-72.92673096 1377.26102051 -72.22846191 1376.95954102 -71.5090332 1376.64892578 C-65.5975073 1374.14592517 -59.5831898 1372.14081462 -53.47265625 1370.1875 C-49.32241316 1368.76829426 -45.42908947 1366.99535479 -41.47265625 1365.11328125 C-39.18764391 1364.08448422 -36.95583201 1363.2946284 -34.5625 1362.5625 C-29.75427151 1361.07177683 -25.48754371 1358.72975662 -21.08984375 1356.3046875 C-18 1355 -18 1355 -10 1354 C-10 1341.79 -10 1329.58 -10 1317 C-21.58374631 1319.14524493 -21.58374631 1319.14524493 -33 1322 C-44.13696499 1324.86304053 -55.06686915 1325.27705719 -66.5 1325.25 C-67.20769531 1325.24913391 -67.91539062 1325.24826782 -68.64453125 1325.24737549 C-80.79100478 1325.20899522 -80.79100478 1325.20899522 -82 1324 C-83.89454372 1323.89122237 -85.79091754 1323.81405827 -87.6875 1323.75 C-98.15578294 1323.0022655 -109.53549287 1319.82175054 -117 1312 C-120.11536596 1307.87522642 -120.45905137 1304.61857888 -120.5 1299.5 C-120.54640625 1297.56640625 -120.54640625 1297.56640625 -120.59375 1295.59375 C-119.85844766 1291.14323583 -118.46537839 1289.78846774 -115 1287 C-109.54874242 1283.76962514 -103.86845497 1281.87313372 -97.84887695 1279.92797852 C-92.53095251 1278.20664169 -87.33838214 1276.23489518 -82.13671875 1274.1875 C-78.09130461 1272.65598581 -73.98748878 1271.35392263 -69.8515625 1270.08984375 C-68.91054688 1269.73019531 -67.96953125 1269.37054687 -67 1269 C-66.3807666 1268.76563232 -65.7615332 1268.53126465 -65.12353516 1268.28979492 C-63.10206393 1267.36797732 -61.60951532 1266.53665774 -60 1265 C-59.01416562 1262.147009 -59.06723019 1259.43349792 -59.125 1256.4375 C-59.10207346 1254.81898372 -59.07733743 1253.20049205 -59.05078125 1251.58203125 C-59.04771973 1250.79779785 -59.0446582 1250.01356445 -59.04150391 1249.20556641 C-58.97166641 1245.49431947 -58.47255019 1241.8398388 -57.98828125 1238.1640625 C-57.83105227 1235.98106743 -57.83105227 1235.98106743 -58.95629883 1234.22094727 C-60.22425929 1231.52278671 -60.44513088 1229.26831895 -60.7109375 1226.30078125 C-60.81857422 1225.18292236 -60.92621094 1224.06506348 -61.03710938 1222.91333008 C-61.20436523 1221.13091919 -61.20436523 1221.13091919 -61.375 1219.3125 C-63.93656878 1195.11618891 -70.22262126 1173.78913047 -84.99609375 1153.94140625 C-90.03922796 1146.53891101 -92.91514187 1137.89758239 -95.30078125 1129.3203125 C-95.99892044 1127.00358244 -96.86304176 1124.84944503 -97.8125 1122.625 C-100.25417033 1116.71260287 -101.98743334 1110.59929959 -103.77514648 1104.46533203 C-105.15642022 1099.7392481 -106.65719543 1095.11736121 -108.375 1090.5 C-112.10395256 1079.2879396 -109.51063758 1067.02332065 -107.9375 1055.5625 C-107.82906769 1054.7588501 -107.72063538 1053.9552002 -107.60891724 1053.12719727 C-104.98736034 1033.93139322 -100.66660213 1015.38959326 -94.8815918 996.88867188 C-93.85626684 993.52903607 -93.0087884 990.16461777 -92.1875 986.75 C-89.07308968 974.9152408 -84.21470791 963.68666762 -78.26171875 953.00390625 C-76.48871096 948.78272052 -75.81195487 944.49047414 -75 940 C-70.84341535 918.87119168 -70.84341535 918.87119168 -64.90234375 910.74609375 C-62.47692917 907.24493061 -60.62769866 903.56585599 -58.75 899.75 C-58.42088623 899.08766357 -58.09177246 898.42532715 -57.75268555 897.74291992 C-56.19780103 894.57715121 -54.73599088 891.40119846 -53.390625 888.140625 C-52 885 -52 885 -50 883 C-49.44758841 877.07369933 -49.41464664 871.14127976 -49.35473633 865.19165039 C-49.3268503 863.20819625 -49.27938425 861.22490897 -49.21118164 859.24243164 C-48.7981381 847.19549662 -48.96603533 838.82029822 -57.05541992 829.4543457 C-59 827 -59 827 -59 823 C-59.58523438 822.74605469 -60.17046875 822.49210938 -60.7734375 822.23046875 C-63.24578468 820.86417163 -64.74828127 819.41657452 -66.625 817.3125 C-67.21539063 816.66925781 -67.80578125 816.02601563 -68.4140625 815.36328125 C-72.94311929 808.61431731 -73.13896937 799.36915242 -74.23217773 791.4765625 C-74.54934988 789.2186156 -74.89028208 786.9652114 -75.23242188 784.7109375 C-79.07770568 757.99142982 -78.20775368 730.41036278 -78.24023438 703.46289062 C-78.2458234 699.4820542 -78.27018556 695.50154196 -78.29820633 691.52080917 C-78.31693058 688.38237583 -78.32204233 685.24402187 -78.32357025 682.10553741 C-78.32654817 680.63698702 -78.33440602 679.16843629 -78.34775543 677.69994354 C-78.42638738 668.43253952 -77.52558363 659.95586348 -75 651 C-76.6396875 651.54527344 -76.6396875 651.54527344 -78.3125 652.1015625 C-90.54245962 656.10079957 -102.8813721 659.36900386 -115.39208984 662.36572266 C-117.58828139 662.89986473 -119.77350344 663.45980493 -121.95703125 664.04296875 C-129.11254452 665.88592441 -136.63473799 667.31559532 -144 666 C-146.37109375 664.16015625 -146.37109375 664.16015625 -148 662 C-148 661.01 -148 660.02 -148 659 C-148.77923828 659.46212891 -148.77923828 659.46212891 -149.57421875 659.93359375 C-159.23293448 664.17969583 -172.46543075 663.3155881 -182.84106445 663.65844727 C-187.29594614 663.80971594 -191.64748856 664.05132858 -196.06640625 664.65234375 C-198.01353516 664.82443359 -198.01353516 664.82443359 -200 665 C-200.66 664.34 -201.32 663.68 -202 663 C-201.896875 662.0925 -201.79375 661.185 -201.6875 660.25 C-201.63721251 657.05482924 -201.63721251 657.05482924 -203.39916992 655.66455078 C-204.00349854 655.22095215 -204.60782715 654.77735352 -205.23046875 654.3203125 C-209.33210968 650.97389599 -211.35813218 647.34344339 -213.625 642.625 C-214.34322937 641.17813213 -215.0645824 639.73281062 -215.7890625 638.2890625 C-216.32237183 637.2203894 -216.32237183 637.2203894 -216.86645508 636.13012695 C-218.01508585 633.97165108 -219.28156327 631.94429617 -220.61328125 629.89453125 C-222.83225646 626.41979057 -224.27022975 622.99334296 -225.5625 619.0625 C-226.9118053 615.09048253 -228.27085418 611.23075013 -230.0625 607.4375 C-232.18240979 602.84861898 -233.56293443 598.09668173 -235 593.2578125 C-235.90967055 590.29427641 -236.91645228 587.40356929 -238 584.5 C-239.88197563 579.42973625 -241.50136956 574.30353379 -243.05859375 569.125 C-243.63759061 567.20301872 -244.23082853 565.28517616 -244.84765625 563.375 C-248.65328108 551.44178445 -249.77075788 538.79617929 -251.41210938 526.421875 C-252.34207685 519.69350472 -253.57072599 513.21214565 -255.38574219 506.66381836 C-256.01788664 503.92243199 -256.2225625 501.36979625 -256.3125 498.5625 C-256.61654165 494.59729011 -256.79852751 494.20147249 -259.8125 491.1875 C-260.864375 490.465625 -261.91625 489.74375 -263 489 C-263.639375 488.154375 -264.27875 487.30875 -264.9375 486.4375 C-267.56189565 483.3359415 -270.43062332 481.84070995 -274 480 C-277.71700296 478.01759842 -279.41285643 476.90143662 -281 473 C-281.73407981 468.30530354 -281.48211224 464.88110169 -279.1875 460.6875 C-278.465625 459.800625 -277.74375 458.91375 -277 458 C-276.195625 456.824375 -276.195625 456.824375 -275.375 455.625 C-274.92125 455.08875 -274.4675 454.5525 -274 454 C-273.34 454 -272.68 454 -272 454 C-271.99383667 452.59306885 -271.99383667 452.59306885 -271.98754883 451.15771484 C-271.96047998 447.65695466 -271.91130659 444.15792275 -271.84741211 440.65771484 C-271.82430333 439.14675596 -271.80985312 437.63563762 -271.80444336 436.12451172 C-271.7951003 433.94398465 -271.75400369 431.76594036 -271.70703125 429.5859375 C-271.6913208 428.2767334 -271.67561035 426.9675293 -271.65942383 425.61865234 C-270.72988628 420.51772471 -268.35052793 417.69976193 -264.109375 414.6328125 C-261.11136253 413.73340876 -258.37107634 413.81257847 -255.25 413.875 C-254.07953125 413.89304687 -252.9090625 413.91109375 -251.703125 413.9296875 C-250.36507813 413.96449219 -250.36507813 413.96449219 -249 414 C-249.33 413.34 -249.66 412.68 -250 412 C-250.47572738 404.62622559 -250.47572738 404.62622559 -248.54296875 402.08203125 C-246.18956256 398.90642239 -246.18814746 395.60089685 -245.72265625 391.75390625 C-244.79056592 388.20188634 -243.74137087 386.46236221 -241 384 C-238.18760674 383.62601153 -236.02407845 383.51706985 -233.25 383.6875 C-232.55261719 383.71005859 -231.85523438 383.73261719 -231.13671875 383.75585938 C-229.42355065 383.81452952 -227.71149377 383.90420744 -226 384 C-225.74734375 383.1234375 -225.4946875 382.246875 -225.234375 381.34375 C-223.9598745 377.89130562 -222.40289595 375.47066263 -220.25 372.5 C-216.40013094 366.91350522 -213.85299118 361.41405661 -211.421875 355.12890625 C-209.9637912 351.92032074 -208.21171877 349.72341662 -206 347 C-204.80178595 344.7563643 -203.65831405 342.48288878 -202.5625 340.1875 C-200.68482774 336.30219366 -198.79961653 332.51706005 -196.375 328.9375 C-193.60414914 324.70450634 -192.05620899 320.09183604 -190.31640625 315.36328125 C-188.6402771 311.08094535 -186.58117591 307.06269224 -184.47265625 302.98046875 C-182.97528638 299.94998277 -181.69328876 296.88750357 -180.4375 293.75 C-179.04840894 290.32151092 -177.63761695 287.2473062 -175.5625 284.1875 C-172.38499504 279.40630131 -170.53280003 274.06334947 -168.46875 268.7421875 C-164.42579427 258.33473506 -159.75077842 247.60311806 -153.625 238.25 C-148.61724345 230.49037723 -144.77215033 221.88007639 -140.91796875 213.5 C-137.83818237 206.8040476 -134.87058211 200.45317771 -130.5703125 194.4375 C-127.21931036 189.23594445 -124.67015493 183.55089858 -121.97167969 177.9909668 C-120.64883813 175.28047109 -119.29426218 172.58623199 -117.94189453 169.89038086 C-117.09449513 168.18965157 -116.26486029 166.48009864 -115.4375 164.76953125 C-114.963125 163.79371094 -114.48875 162.81789063 -114 161.8125 C-113.525625 160.82894531 -113.05125 159.84539062 -112.5625 158.83203125 C-111 156 -111 156 -109.03515625 153.57421875 C-106.6712935 150.58422728 -105.06959225 147.41796042 -103.4375 144 C-102.74391117 142.58378995 -102.04849688 141.16847291 -101.3515625 139.75390625 C-100.97805664 138.99480957 -100.60455078 138.23571289 -100.21972656 137.45361328 C-97.9671867 132.92238317 -95.64492781 128.42800536 -93.3125 123.9375 C-92.86124756 123.05771484 -92.40999512 122.17792969 -91.94506836 121.27148438 C-89.9446881 117.43134101 -87.93396586 113.77908802 -85.34765625 110.30078125 C-83.00031368 107.1425469 -81.5573399 103.92831666 -80.125 100.25 C-77.87340577 94.70987381 -75.15447187 89.8026115 -71.84765625 84.82421875 C-66.17052461 76.14648899 -61.43323215 66.98590267 -56.86401367 57.6940918 C-54.18468843 52.27922245 -51.19810595 47.12573145 -48 42 C-47.01857114 40.35551464 -46.03944865 38.70965089 -45.0625 37.0625 C-42.92720522 33.49063255 -40.70484541 29.98935624 -38.4375 26.5 C-34.6165534 20.53662418 -31.38438468 14.36207708 -28.6875 7.8125 C-21.82628021 -3.62286631 -11.45805409 -5.18393515 0 0 Z " fill="#000000" transform="translate(598,200)"/>
<path d="M0 0 C3.8311406 4.33200073 6.18832831 9.06015088 8.75 14.1875 C12.04346173 20.63303133 15.44681899 26.26599077 20.20703125 31.7578125 C22.14547636 34.18192468 23.51319754 36.62004784 24.9375 39.375 C27.08620023 43.52682457 29.50664682 47.12041462 32.375 50.8125 C36.56604783 56.23828414 39.93124012 61.85188798 43.23046875 67.8359375 C44.59327577 70.27274475 46.00185729 72.56707886 47.5625 74.875 C50.06560933 78.80110984 51.92364444 83.00492367 53.8125 87.25 C54.12711182 87.94851074 54.44172363 88.64702148 54.76586914 89.36669922 C56.2833314 92.86204851 57 95.13055631 57 99 C54.3125 101.0625 54.3125 101.0625 51 103 C49.33248468 103.99858421 47.66566433 104.99833133 46 106 C45.59910156 105.35675781 45.19820313 104.71351563 44.78515625 104.05078125 C41.50225584 98.83238401 38.12393263 93.7204968 34.5625 88.6875 C30.30544451 82.63704667 26.65928251 76.34779336 23.07617188 69.87890625 C21.81426511 67.67572239 20.47703619 65.52447571 19.14453125 63.36328125 C15.64481813 57.55710097 12.75622115 51.5058849 9.875 45.375 C8.85212336 43.21588004 7.82869796 41.05701995 6.8046875 38.8984375 C6.32708984 37.87331055 5.84949219 36.84818359 5.35742188 35.79199219 C4.08683791 33.07887274 4.08683791 33.07887274 2.75195312 30.90332031 C-0.8410768 24.83332551 -0.45559218 18.90315284 -0.25 12 C-0.23195313 10.84371094 -0.21390625 9.68742188 -0.1953125 8.49609375 C-0.1484876 5.66318725 -0.08292012 2.83204116 0 0 Z " fill="#FAFAFA" transform="translate(384,672)"/>
</svg>
