<?xml version="1.0" encoding="UTF-8"?>
<svg version="1.1" xmlns="http://www.w3.org/2000/svg" width="1000" height="2264">
<path d="M0 0 C330 0 660 0 1000 0 C1000 747.12 1000 1494.24 1000 2264 C670 2264 340 2264 0 2264 C0 1516.88 0 769.76 0 0 Z " fill="#FEFEFE" transform="translate(0,0)"/>
<path d="M0 0 C6.12087337 -0.32660787 10.72117685 -0.48177697 16 3 C16.69867188 3.38285156 17.39734375 3.76570312 18.1171875 4.16015625 C24.78749484 8.37120886 26.83074353 13.50819274 29.48071289 20.60375977 C31.43139172 25.7960161 33.74056083 29.91867284 37.1171875 34.34765625 C39.53417806 37.75250395 41.49791542 41.34040702 43.5 45 C46.02394528 49.59998214 48.58591218 54.00500121 51.6875 58.25 C55.49993853 63.50853591 58.21080903 69.1512373 61 75 C64.53264113 82.24191432 68.09968035 89.3780917 72.3359375 96.2421875 C74.88996311 100.47491539 77.2744769 104.80105127 79.6809082 109.11889648 C81.7287609 112.78104554 83.83213479 116.3822857 86.0625 119.9375 C88.73414796 124.2992236 90.82050794 128.85386257 92.9375 133.5 C95.13259292 138.31257886 97.30606257 142.7511174 100.5 147 C104.18651817 151.90416085 106.56374874 157.20367327 109.08984375 162.75952148 C111.25913501 167.50642263 113.65461545 171.92957327 116.44140625 176.34765625 C118.47372124 179.80615719 120.18890154 183.39187987 121.9375 187 C124.14546737 191.54268553 126.35372325 195.72395813 129.4375 199.75 C133.50456927 205.21599287 135.95764002 211.32909849 138.65942383 217.54052734 C141.19461445 223.33077086 144.01683687 228.74783949 147.3203125 234.14453125 C149.21892811 237.37217778 150.86819615 240.6956021 152.5 244.0625 C154.60926812 248.37049182 156.82646556 252.39453689 159.5 256.375 C162.82352492 261.40861605 165.11990883 266.63132177 167.44750977 272.16748047 C169.42417162 276.82189712 171.70377902 281.04960821 174.41015625 285.328125 C176.81950519 289.37725196 178.82954827 293.61195017 180.89819336 297.8425293 C183.09251583 302.29090136 185.4590253 306.55263065 188 310.8125 C192.48815911 318.51908363 195.76993649 326.63574679 199.12451172 334.88378906 C200.62461727 338.50981108 202.28377315 342.05949883 203.9375 345.6171875 C204.97616315 347.94654236 205.86596995 350.295883 206.75 352.6875 C208.52690703 357.24846785 210.85710664 361.34533009 213.3125 365.5625 C216.95492235 371.83618259 219.88231558 378.17683184 222.54394531 384.91967773 C224.59401862 390.09915573 226.96691256 395.015195 229.53515625 399.9609375 C231.23608503 403.48979774 232.61239182 407.089919 234 410.75 C235.8854253 415.67125891 237.96362429 419.60649883 241.359375 423.63671875 C244.20960112 427.74240161 246.10059769 432.35959023 248.10888672 436.92333984 C249.53287959 440.10906285 250.80475193 442.75849899 253.01171875 445.48828125 C255.69226298 448.87450903 257.06277456 452.52500859 258.6875 456.5 C261.7551732 463.73204508 265.32334032 469.91937218 270.01953125 476.203125 C272 479 272 479 273.3046875 482.31640625 C273.86414063 483.20199219 274.42359375 484.08757812 275 485 C278.43517799 485.83489256 278.43517799 485.83489256 282.3125 485.6875 C287.73181679 485.70367707 291.39979171 485.99165264 296 489 C298.80550183 492.89695733 300.08911707 497.43951945 300.5 502.1875 C300.69660661 506.05955726 300.69660661 506.05955726 303.0625 508.8125 C305.87796594 513.44439558 305.33881554 517.71071301 305 523 C306.7015625 522.938125 306.7015625 522.938125 308.4375 522.875 C316.15037873 522.92950798 321.77349234 524.11459592 327.58984375 529.3671875 C331.24421298 533.5985624 331.31849314 537.70943985 331.37890625 543.125 C331.39590073 543.90891113 331.4128952 544.69282227 331.43040466 545.50048828 C331.48342121 548.00024407 331.52376806 550.49998533 331.5625 553 C331.60652301 555.49992945 331.65331645 557.99973498 331.70530701 560.49951172 C331.73709187 562.0531277 331.76403449 563.60685223 331.78553772 565.16064453 C331.81100326 570.17733231 331.81100326 570.17733231 333 575 C334.31235209 575.7070744 335.64888963 576.3701405 337 577 C338.66796875 578.83984375 338.66796875 578.83984375 340.1875 580.9375 C340.69667969 581.62714844 341.20585938 582.31679688 341.73046875 583.02734375 C344.57920085 587.45383516 344.42737239 591.9238626 344 597 C343.02473999 600.82602006 341.88625335 602.43330916 338.5625 604.55859375 C335.73529838 606.09895768 332.88036012 607.56189214 330 609 C324.87636633 611.85741108 322.00095145 615.28833845 318.61328125 619.9765625 C317 622 317 622 314 624 C313.35723812 626.49367803 312.88452316 628.84105362 312.5 631.375 C312.25452091 632.84689461 312.00579958 634.31825201 311.75390625 635.7890625 C311.63031738 636.51254883 311.50672852 637.23603516 311.37939453 637.98144531 C310.88388818 640.61776869 310.17269195 643.17128653 309.4375 645.75 C308.07219004 650.96492104 307.52875831 656.0855537 307.0625 661.4375 C306.19925966 671.24654352 304.52586132 680.77256055 302.53222656 690.40966797 C302.0020321 692.99010983 301.49509397 695.57427219 300.9921875 698.16015625 C299.47356604 705.83535122 297.82900716 713.13168205 294.921875 720.421875 C293.89322387 723.29861121 293.29216994 726.13114641 292.6875 729.125 C291.33774812 735.38904188 289.06464358 740.98232043 286.54760742 746.84228516 C284.90600438 750.69542594 283.49263111 754.41780456 282.5 758.5 C280.749179 765.55666269 277.79848984 772.13459068 274.93945312 778.79931641 C274.02245799 780.94739182 273.12669007 783.10329443 272.234375 785.26171875 C269.28022726 792.32009595 266.12351789 798.78113131 261.81640625 805.140625 C259.62741093 808.58652731 257.83772965 812.17149812 256 815.8125 C253.86020529 820.02652179 251.91296335 823.5555581 248.0625 826.4375 C244.82748643 829.14434809 244.58595055 829.38228173 244.1875 833.25 C244.0946875 835.10625 244.0946875 835.10625 244 837 C242 839 242 839 239 839.25 C236.19674744 839.17831188 233.72234635 838.71863466 231.0078125 838.04296875 C221.57571167 836.10086218 211.73897551 836.29260824 202.14404297 835.97094727 C199.48867884 835.87886339 196.83435256 835.77036368 194.1796875 835.66015625 C193.37739716 835.63816666 192.57510681 835.61617706 191.74850464 835.59352112 C186.27634251 835.35581163 182.04422938 834.14758946 177 832 C176.731875 832.763125 176.46375 833.52625 176.1875 834.3125 C174.95875519 837.09334351 174.44278132 838.25017093 172 840 C150.5076326 843.41305719 127.3439013 834.47080242 107.04614258 828.36083984 C99.75357869 826.17074078 92.48177101 824.430896 85 823 C85.31913361 824.04458626 85.31913361 824.04458626 85.64471436 825.11027527 C88.51221979 835.71005514 88.40113868 845.95575939 88.328125 856.86328125 C88.32505348 858.90121825 88.32318798 860.93915738 88.32244873 862.97709656 C88.31786145 867.25117049 88.30352626 871.52505443 88.28125 875.79907227 C88.25344989 881.14679306 88.24219216 886.49436409 88.23740387 891.84214973 C88.22454012 905.22880259 88.14376381 918.61411811 88 932 C87.98983856 932.96397453 87.97967712 933.92794907 87.96920776 934.92113495 C87.9079116 940.44717106 87.82713722 945.97240013 87.71944427 951.49773216 C87.68848163 953.15441637 87.66165887 954.81118483 87.63962555 956.46801186 C87.50211201 966.27205862 86.62833428 975.58484365 84.71502686 985.20797729 C83.39718021 992.1969517 82.83903077 999.27722334 82.18359375 1006.35351562 C81.05742467 1017.49223392 79.76390086 1025.57691767 71 1033 C66.27039838 1037.0374648 64.18438151 1041.45538626 61.5546875 1046.98046875 C59.76058929 1050.46498614 57.64781935 1053.43027199 55.19921875 1056.4765625 C52.66722865 1059.69309716 52.87116783 1062.13845071 52.8671875 1066.16796875 C52.86501221 1067.44389893 52.86283691 1068.7198291 52.8605957 1070.03442383 C52.86464553 1071.41878495 52.86946233 1072.80314403 52.875 1074.1875 C52.87782486 1075.22636856 52.87782486 1075.22636856 52.88070679 1076.28622437 C52.91055978 1085.63021196 53.00479948 1094.97310707 53.3125 1104.3125 C53.34609619 1105.7504895 53.34609619 1105.7504895 53.38037109 1107.2175293 C53.43378662 1108.52717651 53.43378662 1108.52717651 53.48828125 1109.86328125 C53.51446533 1110.61907471 53.54064941 1111.37486816 53.56762695 1112.15356445 C53.8740291 1114.40977698 53.8740291 1114.40977698 57 1116 C57.50099599 1117.62507943 57.99002056 1119.25522283 58.40527344 1120.90429688 C59.57003168 1125.00868305 61.38548408 1128.86247055 63.125 1132.75 C63.52098389 1133.63598877 63.91696777 1134.52197754 64.32495117 1135.43481445 C67.04979556 1141.35392971 69.98714163 1146.40389491 74.17578125 1151.41796875 C79.04207369 1158.30580452 80.79096109 1165.66196044 82.125 1173.875 C82.43377151 1175.72762907 82.74861448 1177.57925925 83.0703125 1179.4296875 C83.26778076 1180.63987549 83.26778076 1180.63987549 83.46923828 1181.87451172 C83.9430528 1184.27921937 83.9430528 1184.27921937 86 1187 C86.46887099 1190.05634424 86.76015896 1193.10907519 87.046875 1196.1875 C88.16720086 1200.66880345 90.11761054 1204.08316666 92.39111328 1208.07763672 C94.96764656 1212.75762205 97.01969198 1217.63104007 99.0625 1222.5625 C99.4951416 1223.60462646 99.9277832 1224.64675293 100.37353516 1225.72045898 C103.73804108 1234.00100175 106.36781767 1242.2994771 108.49853516 1250.97119141 C109.30729939 1254.24326094 110.18925131 1257.49455565 111.0625 1260.75 C111.34222656 1261.81734375 111.62195313 1262.8846875 111.91015625 1263.984375 C112.53242477 1266.33238463 113.19586996 1268.66112184 113.88598633 1270.99047852 C116.56109113 1280.06725683 118.67804138 1289.16899758 120.5625 1298.4375 C120.71374329 1299.17446106 120.86498657 1299.91142212 121.02081299 1300.67071533 C124.29181459 1316.67836032 126.80117313 1332.76224176 127.7890625 1349.0859375 C127.79887895 1351.00734378 127.79887895 1351.00734378 129 1352 C130.08571053 1364.29775961 126.47666512 1374.94220047 122.33129883 1386.29956055 C120.46520599 1391.47552183 118.95298661 1396.67872576 117.5625 1402 C115.76796604 1408.79072117 113.44475923 1415.14721197 110.65869141 1421.59008789 C108.42978844 1426.78904936 106.63685493 1432.04472347 104.9375 1437.4375 C102.41600774 1445.27891804 99.23240723 1451.79530624 94.18432617 1458.36181641 C88.75196334 1465.45789551 84.87155944 1472.81672382 81.1875 1480.9375 C80.62869141 1482.12279297 80.06988281 1483.30808594 79.49414062 1484.52929688 C74.80091731 1494.72684885 72.1214143 1504.87688074 70.4375 1515.9375 C70.25199585 1517.12025513 70.25199585 1517.12025513 70.06274414 1518.3269043 C68.98131833 1525.51272198 68.28842 1532.72610615 67.73413086 1539.97045898 C67.24049844 1545.98088538 66.41325931 1550.88011103 63 1556 C62.93937159 1558.74486196 62.93937159 1558.74486196 63.3125 1561.75 C63.46138672 1563.25820312 63.46138672 1563.25820312 63.61328125 1564.796875 C63.87575613 1566.97090939 64.18611071 1569.13959092 64.5390625 1571.30078125 C65.08841069 1575.70953325 65.10896911 1580.00148747 65.0625 1584.4375 C65.05798828 1585.26443359 65.05347656 1586.09136719 65.04882812 1586.94335938 C65.03715811 1588.96227146 65.01922718 1590.98114574 65 1593 C67.92991176 1594.45333467 70.8701657 1595.8845048 73.8125 1597.3125 C74.62654297 1597.71662109 75.44058594 1598.12074219 76.27929688 1598.53710938 C81.50965457 1601.05998779 86.58577412 1602.79598507 92.20776367 1604.22436523 C97.03202201 1605.56446043 101.6171647 1607.4908382 106.25 1609.375 C112.94285917 1612.0643656 119.60083103 1614.58458279 126.5 1616.6875 C132.8159345 1618.72489823 137.42108363 1621.03040517 141.14453125 1626.76171875 C143.2943967 1632.38670917 142.8597875 1639.72559972 141.34765625 1645.484375 C137.56674161 1653.85755936 130.23999348 1657.86281449 122 1661 C121.04996094 1661.36222656 120.09992188 1661.72445313 119.12109375 1662.09765625 C111.649827 1664.87326667 105.4595727 1666.17272737 97.484375 1666.62109375 C93.91457677 1666.91996711 93.91457677 1666.91996711 90.2109375 1668.01171875 C85.42916176 1669.26596437 80.80055834 1669.38369088 75.875 1669.375 C74.89797119 1669.37338867 73.92094238 1669.37177734 72.91430664 1669.37011719 C64.34984729 1669.23414165 55.92643539 1668.35596403 47.4375 1667.25 C46.21466309 1667.09321777 44.99182617 1666.93643555 43.73193359 1666.77490234 C37.69743562 1665.92378924 31.94179541 1664.78398643 26.09765625 1663.046875 C18.52538333 1660.86312651 10.7458856 1659.45235355 3 1658 C3 1673.51 3 1689.02 3 1705 C5.97 1705.33 8.94 1705.66 12 1706 C14.86604986 1707.03880989 17.50930665 1708.08963607 20.25 1709.375 C20.930625 1709.67921875 21.61125 1709.9834375 22.3125 1710.296875 C25.13909464 1711.5787028 27.79885759 1712.87217725 30.421875 1714.5390625 C33.39312544 1716.22277108 36.34224694 1717.15650937 39.58691406 1718.1875 C43.62007334 1719.54548807 47.47887446 1721.29534548 51.375 1723 C56.44378017 1725.18443085 61.36547208 1727.2770046 66.75 1728.5625 C72.69944008 1729.98962426 77.98499535 1732.63378136 83.4609375 1735.296875 C87.01199035 1737.00577019 90.59970457 1738.53825587 94.265625 1739.98046875 C96.56627146 1741.33287579 97.64690134 1742.70507887 99 1745 C100.28489653 1752.99951708 98.92777933 1761.71997785 94.1875 1768.3125 C85.57247377 1778.74556534 73.0397798 1781.65834034 60 1783 C53.04730151 1783.44392324 46.08892048 1783.62497389 39.125 1783.7890625 C35.62864774 1783.87954014 32.21419873 1784.03382068 28.75 1784.515625 C24.46532461 1785.06906224 20.31368604 1785.15082783 16 1785.125 C14.71826904 1785.11883667 14.71826904 1785.11883667 13.41064453 1785.11254883 C-2.18469878 1784.9821436 -17.58347467 1784.69488241 -32.9296875 1781.71875 C-40.12988054 1780.36727465 -47.37340966 1779.93251036 -54.68457031 1779.70996094 C-72.76236905 1779.13908308 -89.73859024 1776.36330968 -107 1771 C-107.69029297 1770.79084961 -108.38058594 1770.58169922 -109.09179688 1770.36621094 C-126.33514413 1765.11430489 -126.33514413 1765.11430489 -131 1761 C-133.42146921 1755.18697917 -133.28129982 1748.56944267 -133.1875 1742.375 C-133.18540527 1741.51052246 -133.18331055 1740.64604492 -133.18115234 1739.75537109 C-133.14871517 1735.6675328 -133.01046885 1731.64221727 -132.55859375 1727.578125 C-131.41484267 1721.10875087 -131.41484267 1721.10875087 -133.26953125 1715.203125 C-134.34330458 1714.34812985 -135.4366037 1713.51682592 -136.55175781 1712.71655273 C-139.74989263 1708.92591114 -138.32398158 1702.66533475 -138 1698 C-137.38153386 1693.23542034 -136.51618749 1688.53271205 -135.625 1683.8125 C-133.91539599 1674.31368177 -132.55778264 1664.89250643 -131.9375 1655.25 C-131.28547426 1645.16476054 -130.31877804 1635.15808351 -129.125 1625.125 C-129.03952911 1624.40657928 -128.95405823 1623.68815857 -128.86599731 1622.94796753 C-127.26042777 1609.55692643 -125.38173149 1596.2098869 -123.41845703 1582.86669922 C-120.81198916 1566.44096799 -120.81198916 1566.44096799 -120.125 1549.875 C-120.1631201 1536.20894397 -115.83332089 1524.07569029 -111.046875 1511.47265625 C-109.17876233 1506.54943696 -107.5344908 1501.57873789 -105.9375 1496.5625 C-103.96964954 1490.46874746 -101.58970877 1484.79346168 -98.75024414 1479.04003906 C-95.52568739 1472.33465769 -93.23257576 1465.32125774 -90.84912109 1458.28320312 C-88.80997111 1452.27454775 -86.60138133 1446.44752268 -84.08984375 1440.62109375 C-81.47698064 1434.33711114 -79.2313963 1427.99568951 -78.25 1421.25 C-77.39663967 1416.38036582 -75.33794036 1412.45615153 -73.0625 1408.125 C-68.1203428 1398.65769394 -63.89906667 1387.88515062 -66 1377 C-67.32220546 1374.99262597 -68.6572241 1372.99367266 -70 1371 C-71.24413274 1368.11772958 -72.23612293 1365.15733889 -73.25 1362.1875 C-77.96358554 1348.99303621 -83.41698183 1336.90435417 -91.42456055 1325.37963867 C-94.7132272 1320.59699046 -97.1914691 1315.70227869 -99.515625 1310.375 C-105.34893279 1297.11190017 -112.40095304 1284.44777885 -120 1272.125 C-122.62888434 1267.8173444 -124.80482489 1263.34936719 -127 1258.8125 C-129.39721815 1253.88485355 -131.7061403 1249.72068443 -135.51171875 1245.73046875 C-144.27054416 1235.54632267 -150.29287806 1220.79823104 -154.9375 1208.25 C-156.77408258 1203.3427625 -158.99863199 1199.40036832 -162.3125 1195.3125 C-171.31804095 1184.01381118 -176.06498573 1169.97162692 -179.81640625 1156.171875 C-181.03813035 1151.72273676 -182.55799993 1147.40011707 -184.125 1143.0625 C-186.01304112 1137.8319006 -187.750879 1132.60899271 -189.28515625 1127.26171875 C-190.32874129 1123.95988412 -191.66584878 1120.79574058 -193.03515625 1117.6171875 C-196.15902356 1109.14353933 -196.27816692 1101.48214346 -196.1875 1092.5 C-196.17862492 1091.14160265 -196.16991818 1089.78320418 -196.16137695 1088.42480469 C-195.92045333 1058.18445349 -192.46701689 1025.33825261 -174.7578125 999.76171875 C-172.71474067 997.11481665 -172.71474067 997.11481665 -173.0625 993.9375 C-173.85372878 991.02795104 -173.85372878 991.02795104 -175.37109375 988.84375 C-177.44369436 985.2253969 -178.68405075 981.5069208 -180 977.5625 C-181.93950788 971.68328461 -181.93950788 971.68328461 -184.65625 966.140625 C-186.63538124 961.51498105 -186.53152863 957.1706611 -186.5 952.1875 C-186.49572998 951.16575684 -186.49145996 950.14401367 -186.48706055 949.09130859 C-186.29607572 940.47067194 -184.59733104 933.10903711 -181.70556641 925.04150391 C-180.48508268 921.51012503 -179.51519397 917.9070536 -178.5 914.3125 C-177.01796748 909.18890184 -175.37269041 904.18524252 -173.5 899.1875 C-168.85681724 886.38936018 -165.66604779 873.60750975 -165.16796875 859.984375 C-164.99370442 855.85066307 -164.59446759 851.79522805 -164.125 847.6875 C-163.40175147 841.25246036 -162.80303941 834.81280364 -162.2734375 828.359375 C-162.20980011 827.5895076 -162.14616272 826.8196402 -162.08059692 826.02644348 C-161.82230328 822.89388791 -161.56459308 819.76135024 -161.31890869 816.6277771 C-160.72819112 809.09354247 -160.11647227 801.67027125 -158.47753906 794.27563477 C-157.592114 790.05628556 -157.13474163 785.77812251 -156.625 781.5 C-156.5019751 780.48518555 -156.3789502 779.47037109 -156.25219727 778.42480469 C-155.98069787 776.17729092 -155.71100916 773.92955789 -155.44287109 771.68164062 C-155.05287122 768.43952477 -154.65308328 765.19887014 -154.24923706 761.95846558 C-152.47640538 747.69806546 -150.8398704 733.46742746 -149.875 719.125 C-149.79580322 717.97217529 -149.71660645 716.81935059 -149.63500977 715.6315918 C-149.21736117 709.48133669 -149.21736117 709.48133669 -148.85546875 703.32763672 C-147.21870182 673.54432417 -137.11413519 640.79905246 -114.83203125 619.875 C-112.58016733 617.57032051 -110.70731323 615.05876116 -108.75 612.5 C-104.1588463 606.84400729 -99.38624349 603.42091641 -93 600 C-92.4239502 599.68998047 -91.84790039 599.37996094 -91.25439453 599.06054688 C-81.13015611 593.66738624 -70.64688809 589.17030837 -60.03222656 584.84130859 C-58.33010355 584.13665748 -56.64339241 583.39493209 -54.9609375 582.64453125 C-48.9386775 579.99664868 -43.57824801 579.33734605 -37 579 C-36.34 572.07 -35.68 565.14 -35 558 C-35.99 557.67 -36.98 557.34 -38 557 C-41.21973286 553.5149708 -44.08058922 549.73808152 -47 546 C-47.77150391 545.06027344 -47.77150391 545.06027344 -48.55859375 544.1015625 C-55.85131131 534.78687652 -56.76896509 524.08909897 -56.6875 512.625 C-56.68843658 511.57002823 -56.68843658 511.57002823 -56.68939209 510.4937439 C-56.6600863 500.44740765 -55.37870392 491.7343974 -51.64257812 482.34301758 C-48.58376017 474.57059852 -47.87876033 467.11970125 -47.38671875 458.83203125 C-46.53665726 445.50626673 -42.15981346 433.06497471 -36.5625 421.0625 C-36.19116943 420.25756104 -35.81983887 419.45262207 -35.43725586 418.62329102 C-28.91274306 405.01291003 -17.72319219 399.74630608 -4.75 393.1875 C-3.80326416 392.70708252 -2.85652832 392.22666504 -1.88110352 391.73168945 C17.32572819 382.1950991 47.41122425 378.37978346 68.109375 384.9765625 C69.06328125 385.31429688 70.0171875 385.65203125 71 386 C72.29584061 386.38629949 73.59281182 386.76881779 74.890625 387.1484375 C89.67021444 391.67662316 106.7493937 400.20859451 114.7421875 414.0078125 C116.27432148 416.99717614 117.70178911 420.0024308 119.08935547 423.05957031 C120.00438902 425.00935226 120.99061568 426.90434285 122.00390625 428.8046875 C126.38373452 437.20489892 129.24400177 445.60761767 131.5 454.8125 C131.75531494 455.83770752 132.01062988 456.86291504 132.27368164 457.91918945 C133.90016545 465.02784347 134.29126768 471.7207353 134 479 C134.639375 479.309375 135.27875 479.61875 135.9375 479.9375 C138 481 138 481 139 482 C140.216875 482.165 141.43375 482.33 142.6875 482.5 C147.5379605 483.51376184 151.2097901 485.71378277 155.3125 488.375 C155.9108667 488.76236328 156.5092334 489.14972656 157.12573242 489.54882812 C160.41632837 491.74964823 163.43528715 493.96955571 166 497 C165.8125 499.3125 165.8125 499.3125 165 502 C164.87625 503.19625 164.7525 504.3925 164.625 505.625 C163.96325008 509.19844957 163.70715277 509.83359473 161 512 C154.14152441 515.09424798 147.27904594 515.39027935 139.875 515.1875 C138.91851563 515.17396484 137.96203125 515.16042969 136.9765625 515.14648438 C134.6504189 515.11159222 132.3255347 515.06258339 130 515 C130.04116943 515.69996094 130.08233887 516.39992188 130.12475586 517.12109375 C130.47026364 524.02855536 129.12351922 529.64082724 127.06640625 536.19921875 C125.57633834 541.50997361 124.83989341 546.84825097 124.1015625 552.30859375 C122.91303767 558.48442726 120.2150174 564.21131544 117.81610107 569.99331665 C116.75884297 572.59297288 115.77380284 575.21675311 114.79150391 577.84545898 C103.87341445 606.95427015 103.87341445 606.95427015 90 616 C89.43337646 616.3808374 88.86675293 616.7616748 88.28295898 617.15405273 C84.07674625 619.81032984 80.73873282 620.53170856 75.8125 620.6875 C72.0228889 620.8312014 68.65914661 621.05692098 65 622 C63.29354998 622.09037274 61.58383377 622.130101 59.875 622.125 C59.00617188 622.12757813 58.13734375 622.13015625 57.2421875 622.1328125 C55 622 55 622 53 621 C53 621.66 53 622.32 53 623 C53.60585938 623.11214844 54.21171875 623.22429688 54.8359375 623.33984375 C65.39752141 625.82587812 71.37655801 633.21167924 78.43798828 640.89355469 C79.07720215 641.58868164 79.71641602 642.28380859 80.375 643 C81.33768799 644.04849121 81.33768799 644.04849121 82.31982422 645.11816406 C86.94654781 650.07778748 91.66583331 654.07094099 97.21484375 657.984375 C101.79710883 661.30057245 105.88991808 665.1239441 110 669 C110.93199219 669.87011719 110.93199219 669.87011719 111.8828125 670.7578125 C114.03166833 672.82362076 115.81246762 674.61451677 117.125 677.3125 C117.558125 678.1478125 117.558125 678.1478125 118 679 C120.02213293 679.6280179 120.02213293 679.6280179 122 680 C126.64276849 675.04556418 131.02373273 670.10111692 134.875 664.5 C137.68366909 660.51224606 140.59302462 657.4621834 144.3125 654.3125 C149.60282665 649.72559629 153.23106072 644.65276741 157.07861328 638.83349609 C162.20686362 631.08860347 167.99823308 624.68900515 175.06640625 618.66796875 C179.80213375 614.58280584 183.82981587 610.26653727 187.5625 605.25 C190.9070769 600.93776881 194.52062589 597.94161778 198.875 594.75 C205.73987356 589.65180847 210.06963552 583.91200442 214.74072266 576.83349609 C217.37302686 573.00088567 220.33508312 569.41537267 223.24682617 565.79370117 C230.73006973 556.42462995 232.22920562 550.11611598 231.81640625 538.375 C231.77455194 536.51567196 231.73490538 534.65629314 231.69726562 532.796875 C231.6355693 529.89247765 231.56215143 526.99086213 231.45141602 524.08789062 C230.85511133 507.81552079 230.85511133 507.81552079 233.75927734 503.21020508 C235.76604056 501.47676364 237.67903114 500.2570283 240 499 C242.49598616 495.15202133 242.3443816 490.88697879 242.55859375 486.40234375 C241.75971371 482.96660092 239.77051006 482.1281851 237 480 C235.10218144 477.67538023 233.46693876 475.18912189 231.8125 472.6875 C231.09912476 471.63115356 231.09912476 471.63115356 230.37133789 470.5534668 C228.02793127 467.07506364 225.71794049 463.5749781 223.4140625 460.0703125 C222.58884418 458.81750902 221.76332652 457.56490265 220.9375 456.3125 C220.32080444 455.37398193 220.32080444 455.37398193 219.69165039 454.41650391 C217.06262675 450.46031152 214.24446 446.7555045 211.25 443.0625 C203.64963962 433.51255424 197.97310213 422.60261361 192 412 C191.3901123 410.91912109 190.78022461 409.83824219 190.15185547 408.72460938 C186.07876756 401.4955527 182.035562 394.25005211 178 387 C176.31563729 383.97740058 174.62796863 380.95668789 172.9375 377.9375 C172.60387451 377.33744141 172.27024902 376.73738281 171.92651367 376.11914062 C170.21139773 373.05727332 168.42156747 370.06061988 166.54296875 367.09765625 C164.40345274 363.70482635 162.46148179 360.24012631 160.56298828 356.70800781 C155.66248226 347.59987455 150.17185142 339.10024866 144.18237305 330.67700195 C136.32276379 319.52943722 129.37581359 307.74419037 122.6015625 295.91772461 C118.33110064 288.4982395 113.89266425 281.18426522 109.4375 273.875 C101.38767575 260.65896885 93.41671978 247.42439395 85.9375 233.875 C80.20495344 223.51784122 74.330661 213.36758466 67.64453125 203.58984375 C66.84438405 202.41334163 66.04425407 201.23682781 65.24414062 200.06030273 C63.66966067 197.74692832 62.07635801 195.44830214 60.47070312 193.15649414 C55.6933136 186.2263666 52.33108777 179.39226904 49.37475586 171.52197266 C47.44603798 166.5808105 44.9884296 162.04333745 42.375 157.4375 C41.32506584 155.55363893 40.27560089 153.66951629 39.2265625 151.78515625 C38.69450195 150.83527832 38.16244141 149.88540039 37.61425781 148.90673828 C35.99533187 145.99159427 34.41043334 143.06044586 32.8359375 140.12109375 C27.6275747 130.40820096 22.33068638 121.03091792 16 112 C11.07482099 104.77862876 6.4896193 97.36806016 1.94335938 89.90429688 C-0.7577037 85.50412569 -3.52664134 81.24623155 -6.5859375 77.0859375 C-10.36602095 71.74999666 -12.78948795 66.12124543 -15.1875 60.0625 C-15.59935547 59.05509766 -16.01121094 58.04769531 -16.43554688 57.00976562 C-28.9459182 26.17992821 -28.9459182 26.17992821 -25.1953125 15.765625 C-20.81911097 7.73755875 -12.31455722 4.67756927 -4 2 C-2.68 2 -1.36 2 0 2 C0 1.34 0 0.68 0 0 Z " fill="#9B9B9B" transform="translate(391,200)"/>
<path d="M0 0 C0.99 0.495 0.99 0.495 2 1 C4.2673021 22.69633704 0.45180536 35.70457478 -10.3671875 54.18798828 C-13.44955218 59.49640282 -16.04467529 65.00097921 -18.5 70.625 C-20.34973001 74.72364188 -22.41046056 78.31186807 -25 82 C-27.71339979 86.35936603 -30.3206311 90.77596466 -32.8125 95.265625 C-36.63115609 102.13304684 -40.68724684 108.59664089 -45.34301758 114.92919922 C-48.68764921 119.4877602 -51.66577015 124.2064975 -54.52734375 129.0859375 C-55.01332031 129.71757813 -55.49929688 130.34921875 -56 131 C-59.73651504 131 -60.53973643 130.0244152 -63.375 127.6875 C-66.47465312 125.18957399 -69.49810737 122.92039273 -73 121 C-72.34016113 120.43164429 -72.34016113 120.43164429 -71.66699219 119.85180664 C-69.58115033 117.53471372 -68.57932529 115.22684678 -67.328125 112.37109375 C-66.82796875 111.25283203 -66.3278125 110.13457031 -65.8125 108.98242188 C-64.78346601 106.64780102 -63.75734822 104.31189226 -62.734375 101.97460938 C-59.86391813 95.57100087 -56.76694716 89.8929224 -52.60693359 84.2409668 C-50.31683219 81.04728086 -48.51806174 77.6570789 -46.6875 74.1875 C-43.48090734 68.28032573 -39.90021389 63.08251516 -35.66748047 57.875 C-32.03906424 53.30661619 -29.44886823 48.43021135 -26.82788086 43.23632812 C-24.59890749 38.89911039 -22.11027439 35.63175696 -18.77734375 32.125 C-12.38443599 24.48161138 -8.13626015 14.50095325 -3.52563477 5.71069336 C-1.101836 1.101836 -1.101836 1.101836 0 0 Z " fill="#FCFCFC" transform="translate(649,798)"/>
<path d="M0 0 C0.99 0 1.98 0 3 0 C3.95024979 3.69541586 3.95024979 6.30458414 3 10 C2.67 10 2.34 10 2 10 C1.855625 8.906875 1.71125 7.81375 1.5625 6.6875 C1.11711896 3.06877013 1.11711896 3.06877013 0 0 Z " fill="#A7A7A7" transform="translate(632,681)"/>
</svg>
