<?xml version="1.0" encoding="UTF-8"?>
<svg version="1.1" xmlns="http://www.w3.org/2000/svg" width="468" height="493">
<path d="M0 0 C154.44 0 308.88 0 468 0 C468 162.69 468 325.38 468 493 C313.56 493 159.12 493 0 493 C0 330.31 0 167.62 0 0 Z " fill="#FEFEFE" transform="translate(0,0)"/>
<path d="M0 0 C0.75990234 -0.00773437 1.51980469 -0.01546875 2.30273438 -0.0234375 C11.4828755 0.0079208 18.16894597 2.0532138 25.0625 8.25 C33.35737855 16.92191849 38.0625 30.19088481 38.0625 42.25 C39.0127002 42.08918945 39.96290039 41.92837891 40.94189453 41.76269531 C45.62210144 41.09826039 50.27167711 41.06929367 54.9921875 41.046875 C55.94078644 41.04117493 56.88938538 41.03547485 57.86672974 41.02960205 C59.87207946 41.02018697 61.87744441 41.01363202 63.8828125 41.00976562 C66.893519 41.0001406 69.90351816 40.96911714 72.9140625 40.9375 C83.37006649 40.88095685 93.22069323 41.42801123 103.46972656 43.52832031 C107.97077219 44.43244445 112.43012932 44.88758766 117 45.25 C134.16170532 46.81516087 150.76368227 50.23405817 167.3984375 54.6640625 C169.30727341 55.17194361 171.216128 55.67975453 173.125 56.1875 C174.08672119 56.4443457 175.04844238 56.70119141 176.03930664 56.96582031 C183.21033042 58.84872475 190.4149671 60.37847142 197.6875 61.8125 C204.95642899 63.26215866 211.65307127 64.94953055 218.48828125 67.87890625 C223.47994589 69.79374154 228.60143968 71.13478149 233.75 72.5625 C241.44048784 74.73446714 248.87420645 77.1402888 256.1875 80.375 C256.90252686 80.68735596 257.61755371 80.99971191 258.35424805 81.3215332 C269.04575789 86.25617519 279.78250005 96.6900001 285.0625 107.25 C285.0625 107.91 285.0625 108.57 285.0625 109.25 C286.0525 109.58 287.0425 109.91 288.0625 110.25 C289.66796875 112.97265625 289.66796875 112.97265625 291.25 116.3125 C291.77980469 117.41722656 292.30960937 118.52195312 292.85546875 119.66015625 C293.25378906 120.51480469 293.65210938 121.36945313 294.0625 122.25 C295.44018644 121.09431881 295.44018644 121.09431881 295.25 117.9375 C295.0391329 113.75184975 295.0391329 113.75184975 293.0625 110.25 C292.0725 109.92 291.0825 109.59 290.0625 109.25 C288.37890625 106.95703125 288.37890625 106.95703125 286.625 104.0625 C283.75369608 99.373542 283.75369608 99.373542 280.6875 94.8125 C277.85634373 90.34798435 277.59749983 86.52553764 278.0625 81.25 C282.45089309 75.2320933 289.82627217 67.62048843 297.0625 65.25 C300.54379248 65.06254579 303.66880914 65.49584647 307.0625 66.25 C307.949375 66.435625 308.83625 66.62125 309.75 66.8125 C312.88065949 68.75858563 314.91676828 71.32392716 317.21875 74.1796875 C320.93238067 78.34965414 324.96946369 80.85027528 330 83.1875 C340.98336689 88.57786087 340.98336689 88.57786087 343.375 94.5 C343.601875 95.4075 343.82875 96.315 344.0625 97.25 C344.3925 97.58 344.7225 97.91 345.0625 98.25 C345.27648834 99.59095643 345.4328415 100.94124991 345.5625 102.29296875 C345.645 103.11990234 345.7275 103.94683594 345.8125 104.79882812 C345.895 105.66958984 345.9775 106.54035156 346.0625 107.4375 C346.69801706 114.10949072 346.69801706 114.10949072 347.66796875 120.73828125 C348.0625 123.25 348.0625 123.25 347.375 125.25 C346.78475321 127.54111695 346.78475321 127.54111695 349 130.125 C351.28061642 133.58047943 351.44728343 135.20977399 351.0625 139.25 C349.4125 139.58 347.7625 139.91 346.0625 140.25 C343.67164408 148.8518056 345.6069073 157.10965868 347.4375 165.625 C347.88374131 167.75761836 348.3290609 169.89042981 348.7734375 172.0234375 C348.97243652 172.95591309 349.17143555 173.88838867 349.37646484 174.84912109 C349.60285645 175.97141113 349.82924805 177.09370117 350.0625 178.25 C350.23330582 179.04060822 350.40411163 179.83121643 350.58009338 180.64578247 C352.0216174 187.76113955 352.34047207 194.57350977 352.29296875 201.8203125 C352.29251053 202.98198944 352.29205231 204.14366638 352.2915802 205.34054565 C352.28857831 207.77928702 352.2807546 210.21802682 352.26831055 212.65673828 C352.25001729 216.371489 352.24780154 220.08599007 352.24804688 223.80078125 C352.24313173 226.1822938 352.23730343 228.56380468 352.23046875 230.9453125 C352.22935593 232.04553741 352.2282431 233.14576233 352.22709656 234.27932739 C352.11876165 252.02316661 352.11876165 252.02316661 347.75 257 C346.79673828 258.10988281 346.79673828 258.10988281 345.82421875 259.2421875 C345.24285156 259.90476562 344.66148437 260.56734375 344.0625 261.25 C343.4025 262.19875 342.7425 263.1475 342.0625 264.125 C337.41964199 269.05803663 332.68232516 269.49221753 326.15625 269.73828125 C317.71837848 269.81977797 311.63984602 266.82584756 304.375 262.625 C302.12147405 261.38212271 299.86757036 260.13993005 297.61328125 258.8984375 C296.52329834 258.28508545 295.43331543 257.6717334 294.31030273 257.03979492 C290.1929954 254.77083453 285.9945591 252.69219989 281.77954102 250.61230469 C278.07493745 248.75484329 274.46999126 246.74719298 270.875 244.6875 C269.51052359 243.91257212 268.14594099 243.13783118 266.78125 242.36328125 C266.141875 241.99928223 265.5025 241.6352832 264.84375 241.26025391 C261.89556768 239.58816256 258.92691286 237.95344495 255.95703125 236.3203125 C254.60946627 235.55900775 253.28021104 234.76489344 251.96484375 233.94921875 C246.79199179 230.92069842 241.41299111 228.26371337 236.07421875 225.54101562 C230.82987739 222.82829517 225.86690495 219.92656424 221.00732422 216.57006836 C217.96277729 214.50355251 215.66591005 213.18421742 212.0625 212.25 C205.92461104 214.45037529 202.06565571 219.11320203 197.609375 223.73828125 C195.3202296 225.99582802 193.03333715 227.86578027 190.4375 229.75 C180.01043872 237.64372597 171.71616078 250.16857728 169.625 263.125 C168.4866041 275.5681859 169.02111512 287.34278763 171.25 299.625 C171.58946655 301.56656982 171.58946655 301.56656982 171.93579102 303.54736328 C172.62273117 307.45244432 173.33957062 311.35141705 174.0625 315.25 C174.37477539 316.94382812 174.37477539 316.94382812 174.69335938 318.671875 C177.02873943 331.18769818 179.83468421 343.51003648 183.03393555 355.83178711 C184.82330446 362.87467264 185.95756518 369.76817744 186.70703125 376.98828125 C187.16401427 381.18147712 188.06758111 385.15977791 189.0625 389.25 C189.54802758 391.45694354 190.02652282 393.66543983 190.5 395.875 C190.75394531 397.05835938 191.00789063 398.24171875 191.26953125 399.4609375 C191.82392131 402.10999344 192.36513652 404.75862255 192.88671875 407.4140625 C193.02086182 408.09645996 193.15500488 408.77885742 193.29321289 409.48193359 C193.66977102 411.40925834 194.04202349 413.33742282 194.4140625 415.265625 C194.91399595 418.15891609 194.91399595 418.15891609 196.0625 420.25 C196.95942669 428.16339119 196.70171165 434.07287679 191.6953125 440.453125 C184.9587046 447.86661694 177.52348128 450.4577049 167.75 450.9375 C166.37897496 450.98509509 165.00788118 451.03076114 163.63671875 451.07421875 C160.31038579 451.11916409 160.31038579 451.11916409 158.140625 451.73901367 C147.33746644 454.39538243 134.44466376 453.53302538 123.375 453.0625 C122.34403198 453.03567139 122.34403198 453.03567139 121.29223633 453.00830078 C118.03002921 452.81589621 116.27970782 452.42048496 113.68359375 450.3828125 C109.53457723 444.92410643 109.38192173 437.98465535 109.49609375 431.33984375 C110.30786862 426.91147186 112.1392988 425.26950276 115.73828125 422.73828125 C116.50527344 422.24714844 117.27226562 421.75601562 118.0625 421.25 C118.73667969 420.70730469 119.41085938 420.16460937 120.10546875 419.60546875 C126.57279183 414.61847103 134.88282565 412.25 143.0625 412.25 C142.46516451 410.20632428 141.85930343 408.16513957 141.25 406.125 C140.91355469 404.98804688 140.57710937 403.85109375 140.23046875 402.6796875 C139.16278062 399.27078688 139.16278062 399.27078688 137.56640625 396.33984375 C135.75462782 392.61746261 134.81617247 388.93743637 133.8125 384.9375 C132.16950751 378.69323594 130.19531411 372.79676769 127.625 366.875 C124.63938616 359.96748899 122.35224109 353.00291701 120.26855469 345.77539062 C118.62611283 340.08071269 116.80852189 334.47687094 114.875 328.875 C108.62524619 310.48281036 106.86173403 291.75386726 106.05712891 272.47314453 C105.93853388 269.6496147 105.80795989 266.82682922 105.67578125 264.00390625 C105.25493204 254.66211058 104.97725523 245.32824161 104.9453125 235.9765625 C104.94022675 235.14522797 104.93514099 234.31389343 104.92990112 233.45736694 C104.93988205 227.67141587 105.39428336 221.99582697 106.0625 216.25 C104.94875 216.1675 103.835 216.085 102.6875 216 C94.55158439 214.96137248 88.03300018 211.77271266 82.0625 206.25 C81.4025 205.92 80.7425 205.59 80.0625 205.25 C79.04383771 203.59467377 78.04439187 201.92739862 77.0625 200.25 C76.4025 199.59 75.7425 198.93 75.0625 198.25 C74.68738281 198.69730469 74.31226563 199.14460937 73.92578125 199.60546875 C73.41402344 200.21003906 72.90226563 200.81460938 72.375 201.4375 C71.87613281 202.02917969 71.37726563 202.62085938 70.86328125 203.23046875 C68.68871137 205.66919462 66.37974845 207.94656525 64.0625 210.25 C63.23234375 211.1471875 62.4021875 212.044375 61.546875 212.96875 C51.82243877 222.85989085 39.9192439 226.7886776 26.01733398 227.37939453 C24.42900757 227.38108643 24.42900757 227.38108643 22.80859375 227.3828125 C21.62330078 227.38410156 20.43800781 227.38539063 19.21679688 227.38671875 C17.37698242 227.38091797 17.37698242 227.38091797 15.5 227.375 C14.30052734 227.37886719 13.10105469 227.38273438 11.86523438 227.38671875 C-8.59358927 227.36463691 -8.59358927 227.36463691 -14.9375 225.25 C-23.98873364 224.61022566 -31.48806577 225.00440618 -40.04296875 228.28125 C-44.81390488 229.87800055 -49.90932468 230.68278504 -54.9375 230.25 C-56.65234375 228.8046875 -56.65234375 228.8046875 -57.9375 227.25 C-58.5975 226.981875 -59.2575 226.71375 -59.9375 226.4375 C-62.85631457 224.70445385 -63.58232246 222.28301641 -64.9375 219.25 C-65.2675 218.92 -65.5975 218.59 -65.9375 218.25 C-66.81568733 207.71175203 -63.36831283 197.24478375 -57.9375 188.25 C-54.37039624 185.65960322 -50.42081113 185.94531993 -46.1875 186 C-45.46377197 186.00386719 -44.74004395 186.00773438 -43.99438477 186.01171875 C-40.48786501 186.06872889 -37.23207638 186.20789203 -33.875 187.25 C-18.80956378 191.80238181 0.52815612 186.76971157 14.9375 181.875 C15.77563232 181.59519287 16.61376465 181.31538574 17.47729492 181.02709961 C22.49370775 179.2155745 25.60174382 177.32724716 29.0625 173.25 C28.4334375 173.18683594 27.804375 173.12367188 27.15625 173.05859375 C19.98793782 172.03300692 15.89457852 169.60779076 11.0625 164.25 C9.03404274 161.52759683 7.41279967 159.01241693 6 155.9375 C5.11177159 153.89102129 5.11177159 153.89102129 2.0625 153.25 C-3.6269362 144.9486874 -4.22582206 136.0048963 -3.9375 126.25 C-4.58976562 126.23582031 -5.24203125 126.22164063 -5.9140625 126.20703125 C-12.13718851 125.86742113 -15.56530464 125.03859492 -19.9375 120.25 C-22.96085105 115.91618621 -24.9203817 111.10942135 -26.9375 106.25 C-27.59038627 104.90986503 -28.24975595 103.57258472 -28.9375 102.25 C-29.5975 102.25 -30.2575 102.25 -30.9375 102.25 C-35.19732976 94.15632346 -38.33966911 86.86720405 -38.56640625 77.59765625 C-39.01295687 74.77263604 -39.94595438 74.18871948 -41.9375 72.25 C-41.9375 70.93 -41.9375 69.61 -41.9375 68.25 C-42.89011719 68.76691406 -43.84273437 69.28382812 -44.82421875 69.81640625 C-46.09075664 70.48251137 -47.35770568 71.14783515 -48.625 71.8125 C-49.25083984 72.15474609 -49.87667969 72.49699219 -50.52148438 72.84960938 C-53.5327899 74.41044313 -55.47597632 75.29450625 -58.89453125 74.96484375 C-59.90580078 74.61099609 -59.90580078 74.61099609 -60.9375 74.25 C-61.6875 72.6875 -61.6875 72.6875 -61.9375 70.25 C-59.90361313 65.95623883 -58.17846885 62.65321568 -53.9375 60.25 C-53.2775 60.25 -52.6175 60.25 -51.9375 60.25 C-51.710625 59.693125 -51.48375 59.13625 -51.25 58.5625 C-49.58047946 55.62096381 -47.35074179 53.6013638 -44.9375 51.25 C-43.75623132 48.88746265 -43.86304417 47.58644142 -43.9453125 44.9609375 C-43.96207031 44.10113281 -43.97882812 43.24132812 -43.99609375 42.35546875 C-44.0398 40.55837048 -44.09166545 38.76144904 -44.15234375 36.96484375 C-44.24955741 31.0171353 -43.33735461 26.66055402 -40.9375 21.25 C-40.628125 20.2909375 -40.31875 19.331875 -40 18.34375 C-37.41459118 12.03231082 -34.13433759 9.42435118 -28.06835938 6.73046875 C-24.06389422 5.10432092 -20.0408012 3.60742223 -15.9375 2.25 C-14.76960938 1.85425781 -13.60171875 1.45851563 -12.3984375 1.05078125 C-8.19019502 0.07709083 -4.30193815 -0.04356393 0 0 Z " fill="#9B9B9B" transform="translate(94.9375,22.75)"/>
</svg>
