<?xml version="1.0" encoding="UTF-8"?>
<svg version="1.1" xmlns="http://www.w3.org/2000/svg" width="468" height="493">
<path d="M0 0 C154.44 0 308.88 0 468 0 C468 162.69 468 325.38 468 493 C313.56 493 159.12 493 0 493 C0 330.31 0 167.62 0 0 Z " fill="#FFFFFF" transform="translate(0,0)"/>
<path d="M0 0 C0.83176758 0.00829834 1.66353516 0.01659668 2.52050781 0.02514648 C9.51867574 0.21606738 15.27109488 1.60351766 21.6875 4.4375 C22.98207595 4.93100866 24.27771864 5.42172495 25.57421875 5.91015625 C36.89844449 10.39788479 36.89844449 10.39788479 39.9375 16.375 C40.57265866 18.04368436 41.1500702 19.73482468 41.6875 21.4375 C42.22117187 22.64148438 42.75484375 23.84546875 43.3046875 25.0859375 C45.5038064 30.90854242 44.7610154 36.81717949 44.39453125 42.92382812 C44.15452223 48.6162317 44.15452223 48.6162317 47.0390625 53.421875 C47.91304688 54.08703125 48.78703125 54.7521875 49.6875 55.4375 C50.925 56.7059375 50.925 56.7059375 52.1875 58 C54.61842057 60.46878738 54.61842057 60.46878738 57.3125 62.4375 C59.90580206 64.62133331 61.3249752 66.33397129 62.6875 69.4375 C62.375 72.25 62.375 72.25 61.6875 74.4375 C58.69959867 75.31943867 57.11895879 75.59505891 54.15234375 74.51171875 C53.31832031 74.05410156 52.48429687 73.59648438 51.625 73.125 C50.78839844 72.67511719 49.95179688 72.22523437 49.08984375 71.76171875 C47.90068359 71.10623047 47.90068359 71.10623047 46.6875 70.4375 C45.35733255 69.7645388 44.02513018 69.09550284 42.6875 68.4375 C42.56375 69.22125 42.44 70.005 42.3125 70.8125 C41.6875 73.4375 41.6875 73.4375 39.6875 75.4375 C39.37267321 77.76529431 39.37267321 77.76529431 39.3125 80.4375 C38.71811887 88.53594287 35.4239106 95.33831986 31.6875 102.4375 C31.0275 102.4375 30.3675 102.4375 29.6875 102.4375 C29.39875 103.22125 29.11 104.005 28.8125 104.8125 C27.6875 107.4375 27.6875 107.4375 25.6875 109.4375 C24.96554701 111.14393434 24.24475981 112.85089342 23.53515625 114.5625 C21.4660834 119.139251 18.95782761 122.77518208 14.6875 125.4375 C12.109375 125.94921875 12.109375 125.94921875 9.4375 126.125 C8.54546875 126.19074219 7.6534375 126.25648438 6.734375 126.32421875 C5.72117187 126.38029297 5.72117187 126.38029297 4.6875 126.4375 C4.72230469 127.19933594 4.75710938 127.96117187 4.79296875 128.74609375 C5.05865836 138.88025446 2.9679042 145.87960353 -2.3125 154.4375 C-2.9725 154.4375 -3.6325 154.4375 -4.3125 154.4375 C-4.58578125 155.01628906 -4.8590625 155.59507812 -5.140625 156.19140625 C-8.27330404 162.19570775 -12.63790993 167.72719111 -18.3125 171.4375 C-21.61655206 172.38505847 -24.90742112 172.98662987 -28.3125 173.4375 C-24.21585752 178.26390876 -20.1322525 180.07786812 -14.1875 182.0625 C-12.86939331 182.5102478 -12.86939331 182.5102478 -11.5246582 182.96704102 C2.02942026 187.37523581 20.05676515 191.59599579 34.06640625 187.43359375 C38.29249507 186.27107741 42.02202267 186.14163896 46.375 186.1875 C47.12072266 186.17976562 47.86644531 186.17203125 48.63476562 186.1640625 C55.76440766 186.18950279 55.76440766 186.18950279 58.6875 188.4375 C64.32913944 196.60429251 68.27270931 208.46736775 66.6875 218.4375 C65.3125 220.75 65.3125 220.75 63.6875 222.4375 C63.254375 223.4584375 63.254375 223.4584375 62.8125 224.5 C60.8907601 227.80966315 57.98734807 229.08339587 54.37890625 230.06640625 C48.03939299 230.9405046 41.25831357 229.1568944 35.375 226.8125 C26.99511795 223.83265025 17.7288676 225.09173866 9.12890625 226.43359375 C1.66789122 227.53788155 -5.652221 227.82172846 -13.1875 227.8125 C-14.49799316 227.81161377 -15.80848633 227.81072754 -17.15869141 227.80981445 C-26.83949213 227.69149222 -35.17837596 226.64099331 -44.3125 223.4375 C-45.08464844 223.24542969 -45.85679687 223.05335938 -46.65234375 222.85546875 C-56.57057339 220.12550059 -65.19279873 209.25388987 -71.625 201.625 C-72.13675781 201.02042969 -72.64851563 200.41585937 -73.17578125 199.79296875 C-73.55089844 199.34566406 -73.92601562 198.89835938 -74.3125 198.4375 C-76.83838702 200.80042656 -78.20070837 202.10212511 -79.3125 205.4375 C-81.26232535 206.84318804 -83.27200578 208.1670036 -85.3125 209.4375 C-86.240625 210.118125 -87.16875 210.79875 -88.125 211.5 C-93.66385446 214.86675467 -98.83979667 216.52590112 -105.3125 216.4375 C-105.24162674 217.04621445 -105.17075348 217.65492889 -105.09773254 218.28208923 C-104.44285971 224.27581559 -104.16064105 230.16465158 -104.19921875 236.19140625 C-104.20413582 237.54245201 -104.20413582 237.54245201 -104.20915222 238.92079163 C-104.44137378 273.63857161 -106.23332598 306.35275512 -117.3125 339.4375 C-117.81100132 340.95666894 -118.3085365 342.47615559 -118.8046875 343.99609375 C-119.60064241 346.42198943 -120.41215524 348.84048642 -121.234375 351.2578125 C-121.95100485 353.37135125 -122.64908611 355.49127344 -123.328125 357.6171875 C-124.86991102 362.42609151 -126.51560797 366.96856944 -128.75 371.5 C-131.51577935 377.32941185 -133.01899306 383.37724167 -134.52514648 389.62524414 C-135.71762458 394.50576757 -137.2470172 398.85799791 -139.3125 403.4375 C-139.89856013 405.07509187 -140.46528535 406.71993086 -141 408.375 C-141.25136719 409.14714844 -141.50273437 409.91929687 -141.76171875 410.71484375 C-141.94347656 411.28332031 -142.12523437 411.85179687 -142.3125 412.4375 C-141.13494141 412.60185547 -141.13494141 412.60185547 -139.93359375 412.76953125 C-128.33953462 414.5193095 -118.67690187 418.61849799 -110.5078125 427.37109375 C-107.78333468 432.08105704 -108.85865335 438.16826674 -109.88671875 443.30859375 C-111.73701155 450.05384103 -111.73701155 450.05384103 -115.3125 452.4375 C-118.00629803 452.74519676 -120.61052886 452.95055282 -123.3125 453.0625 C-124.46153809 453.11833252 -124.46153809 453.11833252 -125.63378906 453.17529297 C-150.66810255 454.31896582 -150.66810255 454.31896582 -159.3125 451.4375 C-161.09371377 451.38177257 -162.8751347 451.32890328 -164.65698242 451.29980469 C-174.79438684 451.05857869 -182.39575234 448.45117156 -190.375 441.9375 C-195.70889862 435.05505017 -196.11130692 428.98577147 -195.3125 420.4375 C-194.6857125 418.42464584 -194.02054755 416.42322735 -193.3125 414.4375 C-192.96346061 412.73625618 -192.6502993 411.02722135 -192.375 409.3125 C-191.67536373 405.23128845 -190.79356486 401.25708642 -189.75 397.25 C-188.75354799 393.36383716 -187.97040665 389.5906534 -187.54882812 385.59179688 C-186.48478089 375.89225883 -184.53736679 366.37960971 -182.375 356.875 C-182.12298828 355.74642578 -181.87097656 354.61785156 -181.61132812 353.45507812 C-180.41997381 348.15644603 -179.17777821 342.88152169 -177.8125 337.625 C-176.1033734 330.85712648 -174.85575072 324.01537398 -173.63256836 317.1472168 C-173.25098522 315.00552968 -172.86330656 312.86501561 -172.47460938 310.72460938 C-165.89292671 275.92545774 -165.89292671 275.92545774 -177.3125 243.4375 C-182.23251389 236.7403952 -187.48108344 230.51532935 -194.4140625 225.83203125 C-196.65189792 224.18818918 -198.45902507 222.32023618 -200.375 220.3125 C-201.67838492 219.01163614 -202.99033564 217.71927238 -204.3125 216.4375 C-204.85261719 215.90640625 -205.39273438 215.3753125 -205.94921875 214.828125 C-207.74855506 213.25794436 -207.74855506 213.25794436 -211.3125 212.4375 C-219.09808966 214.84896583 -225.98270975 220.06283492 -232.83203125 224.3671875 C-236.52702292 226.62129145 -240.36341691 228.53845886 -244.25 230.4375 C-252.84141708 234.6355788 -261.07735726 239.31152894 -269.2890625 244.21484375 C-276.76189228 248.65624258 -284.41494573 252.57649492 -292.21289062 256.40380859 C-295.75481315 258.14758766 -299.28289921 259.9189518 -302.8125 261.6875 C-304.68594035 262.62445828 -306.55930769 263.56112957 -308.43774414 264.48803711 C-309.74172797 265.1484347 -311.03196362 265.83640095 -312.31030273 266.54516602 C-320.00356305 270.71246437 -327.64980774 270.43118851 -336.125 268.625 C-342.11161 264.51654216 -346.31548209 258.43302687 -350.3125 252.4375 C-351.39451073 245.45314023 -351.50214944 238.50666529 -351.55078125 231.44921875 C-351.558853 230.31080032 -351.56692474 229.1723819 -351.57524109 227.99946594 C-351.58901625 225.59495535 -351.59976749 223.19042575 -351.60766602 220.78588867 C-351.61912904 218.36493051 -351.63948937 215.94399647 -351.66918945 213.52319336 C-351.8456578 199.09912414 -351.27614448 185.65083401 -347.82400513 171.61422729 C-346.93514151 167.83163822 -346.25658691 164.00974461 -345.5625 160.1875 C-345.4356633 159.52446365 -345.3088266 158.86142731 -345.17814636 158.17829895 C-344.13401922 152.37949927 -343.41453136 146.13140593 -345.3125 140.4375 C-346.9625 140.1075 -348.6125 139.7775 -350.3125 139.4375 C-350.78595825 134.58455295 -349.86263437 132.1528361 -347.08984375 128.34375 C-345.95136302 125.55189775 -346.78887332 123.37342061 -347.3125 120.4375 C-347.0078125 117.32421875 -347.0078125 117.32421875 -346.4375 114.125 C-345.75751416 110.16294916 -345.16241517 106.25458473 -344.8125 102.25 C-344.3125 98.4375 -344.3125 98.4375 -342.3125 96.4375 C-342.18488281 95.64214844 -342.05726563 94.84679687 -341.92578125 94.02734375 C-340.77964267 89.18728081 -336.32004198 87.00232687 -332.3125 84.4375 C-330.30611639 83.42905588 -328.28462367 82.45017958 -326.25 81.5 C-320.1791154 78.61982329 -314.39873032 74.60996065 -311.3125 68.4375 C-306.75323974 65.93726051 -301.46395158 64.90433227 -296.3125 65.4375 C-292.47604542 67.21493997 -289.48163368 69.66388221 -286.3125 72.4375 C-285.44496094 73.17226562 -284.57742188 73.90703125 -283.68359375 74.6640625 C-277.55995661 80.2414597 -277.55995661 80.2414597 -276.5625 85.0625 C-278.1076075 92.01548374 -281.44096572 97.53980214 -285.375 103.375 C-285.82166016 104.05884766 -286.26832031 104.74269531 -286.72851562 105.44726562 C-287.86648321 107.1499645 -289.08338472 108.79938239 -290.3125 110.4375 C-290.9725 110.4375 -291.6325 110.4375 -292.3125 110.4375 C-294.63738647 114.07013511 -294.55211213 117.20435233 -294.3125 121.4375 C-293.9825 121.7675 -293.6525 122.0975 -293.3125 122.4375 C-291.0025 118.1475 -288.6925 113.8575 -286.3125 109.4375 C-285.6525 109.4375 -284.9925 109.4375 -284.3125 109.4375 C-283.94125 108.385625 -283.94125 108.385625 -283.5625 107.3125 C-280.91017993 101.21216385 -277.27298146 97.303327 -272.25390625 93.09765625 C-270.14694036 91.3531412 -270.14694036 91.3531412 -267.8125 88.8125 C-257.67774312 79.18448096 -243.47850487 75.28866379 -230.31542969 71.68554688 C-225.46228974 70.3542616 -220.69639385 68.92456328 -215.95507812 67.23852539 C-204.31810989 63.10685533 -192.33778181 60.49404335 -180.30426025 57.79377747 C-175.63090176 56.74332823 -170.96782226 55.65432208 -166.30859375 54.54296875 C-149.30959088 50.49298534 -132.58428145 46.65430892 -115.13818359 45.25854492 C-110.50620891 44.86209686 -106.01898574 44.1957866 -101.45326233 43.30828857 C-90.18048973 41.18266026 -79.11258516 41.04435918 -67.66650391 41.15625 C-64.39344064 41.1879264 -61.12085899 41.19728781 -57.84765625 41.203125 C-55.75520242 41.2122778 -53.66275348 41.222648 -51.5703125 41.234375 C-50.11106857 41.24074982 -50.11106857 41.24074982 -48.62234497 41.24725342 C-47.71974945 41.25686096 -46.81715393 41.26646851 -45.88720703 41.27636719 C-45.09766632 41.28319519 -44.30812561 41.29002319 -43.49465942 41.29705811 C-41.32110461 41.43694621 -39.40263596 41.84008439 -37.3125 42.4375 C-37.16554688 41.22126953 -37.16554688 41.22126953 -37.015625 39.98046875 C-35.13580952 26.06011101 -31.26640094 14.59096151 -20.765625 4.98046875 C-14.30974019 0.91984056 -7.50714609 -0.09796625 0 0 Z " fill="#000000" transform="translate(372.3125,22.5625)"/>
</svg>
