<?xml version="1.0" encoding="UTF-8"?>
<svg version="1.1" xmlns="http://www.w3.org/2000/svg" width="1000" height="1496">
<path d="M0 0 C330 0 660 0 1000 0 C1000 493.68 1000 987.36 1000 1496 C670 1496 340 1496 0 1496 C0 1002.32 0 508.64 0 0 Z " fill="#FEFEFE" transform="translate(0,0)"/>
<path d="M0 0 C3.39510879 1.35377964 6.69967098 1.2822378 10.30078125 1.3671875 C21.72171631 1.93495865 27.19489059 5.88572076 34.87109375 14.06640625 C44.36001106 24.67416605 47.92198347 35.2592539 50.6796875 49.08203125 C52.10340224 54.20602874 55.08692801 57.87307695 58.42578125 61.9296875 C60.65918469 64.67253515 62.80979993 67.36173399 64.67578125 70.3671875 C66.38848051 73.14464385 66.38848051 73.14464385 69.23828125 75.0546875 C71.48828125 76.9921875 71.48828125 76.9921875 71.98828125 79.5546875 C71.40771579 82.38494413 70.78811402 83.28860767 68.48828125 84.9921875 C61.63960936 87.27507813 53.51899588 86.27049925 46.48828125 84.9921875 C44.88366655 88.54534851 44.2333308 91.35607768 44.1796875 95.24609375 C44.15672607 96.25583252 44.13376465 97.26557129 44.11010742 98.3059082 C44.09052979 99.37800537 44.07095215 100.45010254 44.05078125 101.5546875 C43.40128894 123.3039885 41.22236293 149.84580365 24.73828125 166.1171875 C24.2071875 166.57351563 23.67609375 167.02984375 23.12890625 167.5 C21.33302625 169.03511804 21.33302625 169.03511804 19.6875 171.4375 C17.08825668 174.45686968 14.57285642 175.90175053 11.05078125 177.7421875 C9.93832031 178.33515625 8.82585937 178.928125 7.6796875 179.5390625 C4.86958749 180.81856948 2.52648477 181.56059223 -0.51171875 181.9921875 C0.10267499 185.56674958 1.57319583 187.66241917 3.765625 190.515625 C7.63936575 195.90663853 9.86040398 201.38714632 12.05078125 207.6171875 C16.00100806 219.59356507 16.00100806 219.59356507 24.67407227 228.20556641 C25.57210571 228.59494385 25.57210571 228.59494385 26.48828125 228.9921875 C26.90335938 228.56808594 27.3184375 228.14398438 27.74609375 227.70703125 C31.97555284 223.6810817 36.27217308 220.94735409 41.55078125 218.4921875 C46.5156442 216.17594391 50.02377155 213.78302419 53.66015625 209.6875 C59.31397413 204.44442957 67.66449334 201.89298209 74.671875 198.859375 C76.6100613 198.0089604 76.6100613 198.0089604 78.55078125 196.4296875 C82.31286266 193.63846581 86.81658208 191.9921875 91.48828125 191.9921875 C91.17375 191.45851563 90.85921875 190.92484375 90.53515625 190.375 C82.46486576 176.32491596 79.06623057 162.15825553 78.48828125 145.9921875 C78.45041504 145.25178223 78.41254883 144.51137695 78.37353516 143.74853516 C77.54370976 126.81239404 77.54370976 126.81239404 81.81640625 121.51953125 C90.84028683 113.27575249 102.23398226 108.6436954 113.92578125 105.6796875 C114.88548828 105.41607422 115.84519531 105.15246094 116.83398438 104.88085938 C127.20456803 102.19218954 135.99618007 101.62096142 145.48828125 106.9921875 C146.45314453 107.53552734 146.45314453 107.53552734 147.4375 108.08984375 C151.32487584 110.41596114 154.88852618 113.05920267 158.48828125 115.8046875 C163.67341837 119.64633671 169.09357314 122.48051188 174.91796875 125.20239258 C182.67754206 128.86952228 186.69394485 133.32886963 191.17578125 140.5546875 C191.66111328 141.32232422 192.14644531 142.08996094 192.64648438 142.88085938 C193.54531199 144.30286664 194.44052474 145.72717038 195.33081055 147.15454102 C197.48086568 150.85920938 197.48086568 150.85920938 201.05078125 152.9921875 C201.85515625 153.3221875 202.65953125 153.6521875 203.48828125 153.9921875 C204.6671643 157.52883664 204.97954548 160.9950033 205.36328125 164.6796875 C206.15315001 171.88347592 207.33856341 178.920496 208.8046875 186.015625 C210.47052258 194.92732463 210.71399793 204.01186569 210.80078125 213.0546875 C210.84428711 214.5715918 210.84428711 214.5715918 210.88867188 216.11914062 C210.96371346 225.08372413 208.88707468 231.84153503 203.48828125 238.9921875 C202.80063332 240.88728022 202.17968436 242.80739458 201.61328125 244.7421875 C199.03998258 252.7849689 195.00332479 258.6892806 189.48828125 264.9921875 C190.47828125 265.3221875 191.46828125 265.6521875 192.48828125 265.9921875 C192.81828125 267.6421875 193.14828125 269.2921875 193.48828125 270.9921875 C189.83408267 272.68729102 186.16307054 274.3422821 182.48828125 275.9921875 C181.66328125 276.3840625 180.83828125 276.7759375 179.98828125 277.1796875 C175.14160956 279.34793536 171.25160388 280.16241814 165.92578125 280.3046875 C159.76936369 280.56666272 156.67394972 282.36644125 152.1953125 286.49609375 C150.48828125 287.9921875 150.48828125 287.9921875 148.48828125 287.9921875 C148.35292969 288.57484375 148.21757813 289.1575 148.078125 289.7578125 C146.42167594 296.06620534 143.84094506 301.11361578 140.43359375 306.65234375 C138.65202239 309.71106566 137.14078646 312.77658339 135.64892578 315.97924805 C132.25594728 323.21550249 128.52594237 328.64280801 122.875 334.40625 C119.74087831 337.80197595 117.45490302 341.50582447 115.0546875 345.4375 C109.83849856 353.94470091 103.12037362 361.83170636 95.06640625 367.78125 C91.53628139 370.8085995 89.03460607 374.37625004 86.30078125 378.1171875 C78.93312793 387.95182844 71.0088218 395.89189323 61.36328125 403.55078125 C57.5376349 406.79946191 54.06508432 410.34634567 50.63525391 414.00732422 C42.99838518 421.96972464 32.91966469 421.16207304 22.55078125 421.5546875 C21.48537109 421.59787109 20.41996094 421.64105469 19.32226562 421.68554688 C16.71104682 421.79093239 14.09974379 421.89305838 11.48828125 421.9921875 C11.81828125 422.6521875 12.14828125 423.3121875 12.48828125 423.9921875 C26.69497093 424.80142932 41.51978513 422.59796966 55.19140625 418.8046875 C59.83472661 417.6603621 64.52869272 416.87642292 69.23828125 416.0546875 C79.71445377 414.21226495 89.96655247 411.89493289 100.18359375 408.9140625 C105.55976951 407.58964669 110.97499714 407.51958074 116.48828125 407.3671875 C118.27830566 407.31135498 118.27830566 407.31135498 120.10449219 407.25439453 C189.69088782 405.34827892 189.69088782 405.34827892 205.89453125 410.3046875 C208.86835813 411.09293077 211.66966514 411.30989347 214.73828125 411.4921875 C218.43365287 411.71892701 221.43388694 412.15293887 224.86328125 413.5546875 C228.41444847 414.96290898 230.72150296 415.27469587 234.48828125 414.9921875 C234.65328125 415.7140625 234.81828125 416.4359375 234.98828125 417.1796875 C236.60261668 420.20656643 237.23950414 420.60192752 240.11328125 422.1796875 C248.13895762 426.90237793 252.62112837 434.73520462 256.80078125 442.8046875 C257.12626953 443.41932861 257.45175781 444.03396973 257.78710938 444.66723633 C263.13940216 455.53177868 264.00411632 467.39013814 264.61328125 479.3046875 C264.75967281 481.9050639 264.90805241 484.50532929 265.05859375 487.10546875 C265.12739746 488.30751953 265.19620117 489.50957031 265.26708984 490.74804688 C265.52476495 494.52728174 265.98611436 498.2389229 266.48828125 501.9921875 C266.67918511 505.66427931 266.58351445 509.31705163 266.48828125 512.9921875 C266.47571289 513.67168457 266.46314453 514.35118164 266.45019531 515.05126953 C265.94538868 538.53508007 265.94538868 538.53508007 259.48828125 544.9921875 C258.16828125 544.9921875 256.84828125 544.9921875 255.48828125 544.9921875 C255.58109375 546.5390625 255.58109375 546.5390625 255.67578125 548.1171875 C255.70218946 555.47187418 253.80463099 563.04313828 251.48828125 569.9921875 C251.33196242 572.3861814 251.21266464 574.7826549 251.11328125 577.1796875 C250.83138663 582.74475197 250.19051385 588.02261646 249.05078125 593.4921875 C247.56197554 600.7598046 246.86942177 607.97687062 246.33276367 615.37109375 C245.84382385 621.99550423 245.22036473 628.58793888 244.4765625 635.1875 C242.30277498 654.82701384 241.06720584 674.28804179 240.98828125 694.0546875 C240.97810974 695.09206055 240.96793823 696.12943359 240.9574585 697.19824219 C240.93392295 700.16265967 240.94008391 703.12540997 240.95703125 706.08984375 C240.94910553 706.96000626 240.94117981 707.83016876 240.93301392 708.72669983 C241.02614705 714.91432221 242.60506009 719.53559384 245.48828125 724.9921875 C246.81859375 724.8065625 246.81859375 724.8065625 248.17578125 724.6171875 C251.48828125 724.9921875 251.48828125 724.9921875 254.11328125 727.6796875 C254.91718647 728.77497584 255.70897376 729.87926343 256.48828125 730.9921875 C257.63296875 732.4153125 257.63296875 732.4153125 258.80078125 733.8671875 C259.35765625 734.5684375 259.91453125 735.2696875 260.48828125 735.9921875 C263.53447425 734.91706056 265.78699807 733.77609448 268.42578125 731.8671875 C271.81891673 729.78975762 273.59036537 729.62095742 277.48828125 729.9921875 C277.30078125 732.3671875 277.30078125 732.3671875 276.48828125 734.9921875 C273.92578125 736.3046875 273.92578125 736.3046875 271.48828125 736.9921875 C271.48828125 737.6521875 271.48828125 738.3121875 271.48828125 738.9921875 C272.63683594 739.09015625 273.78539062 739.188125 274.96875 739.2890625 C279.61311219 739.87434013 283.54319258 741.35260613 287.80078125 743.2421875 C288.50267578 743.52964844 289.20457031 743.81710937 289.92773438 744.11328125 C294.19105191 745.97467251 296.64284107 747.48671831 298.48828125 751.9921875 C298.17578125 754.8046875 298.17578125 754.8046875 297.48828125 756.9921875 C295.27734375 757.6953125 295.27734375 757.6953125 292.48828125 757.9921875 C290.19921875 756.6640625 290.19921875 756.6640625 287.86328125 754.7421875 C282.69118884 750.8397503 277.78875171 749.24988598 271.48828125 747.9921875 C272.87141735 752.35721779 273.82273509 755.01220282 277.9296875 757.25 C279.29283114 757.89518366 280.66731263 758.51682335 282.05078125 759.1171875 C283.50524409 759.79289179 284.95967127 760.46867284 286.4140625 761.14453125 C287.11740723 761.46147949 287.82075195 761.77842773 288.54541016 762.10498047 C290.98470834 763.21887964 293.3598137 764.44195316 295.73828125 765.6796875 C299.18173011 767.40715101 302.66969641 768.91627603 306.23828125 770.3671875 C311.43590739 772.48498633 316.43195882 774.91207489 321.41479492 777.48486328 C324.74031471 779.18419515 328.01110328 780.56611946 331.55078125 781.7421875 C338.598037 784.39954141 344.02196731 789.97053865 349.48828125 794.9921875 C350.10058594 795.42917969 350.71289062 795.86617187 351.34375 796.31640625 C353.37007305 799.28327516 352.91657652 802.77799516 352.86328125 806.2421875 C352.87488281 806.98082031 352.88648438 807.71945312 352.8984375 808.48046875 C352.87159911 813.5529252 352.28700949 819.19345926 348.48828125 822.9921875 C346.8221101 823.03282582 345.1544003 823.0349085 343.48828125 822.9921875 C343.48828125 823.6521875 343.48828125 824.3121875 343.48828125 824.9921875 C342.49828125 824.9921875 341.50828125 824.9921875 340.48828125 824.9921875 C340.48828125 824.3321875 340.48828125 823.6721875 340.48828125 822.9921875 C336.19828125 822.9921875 331.90828125 822.9921875 327.48828125 822.9921875 C327.48828125 824.3121875 327.48828125 825.6321875 327.48828125 826.9921875 C325.83828125 826.6621875 324.18828125 826.3321875 322.48828125 825.9921875 C322.48828125 825.0021875 322.48828125 824.0121875 322.48828125 822.9921875 C298.72828125 822.9921875 274.96828125 822.9921875 250.48828125 822.9921875 C250.48828125 824.9721875 250.48828125 826.9521875 250.48828125 828.9921875 C248.48828125 830.9921875 248.48828125 830.9921875 245.05078125 831.3046875 C241.48828125 830.9921875 241.48828125 830.9921875 239.55078125 829.7421875 C238.48828125 827.9921875 238.48828125 827.9921875 238.48828125 823.9921875 C234.19828125 824.3221875 229.90828125 824.6521875 225.48828125 824.9921875 C224.82828125 826.6421875 224.16828125 828.2921875 223.48828125 829.9921875 C222.03035241 830.04618486 220.57185413 830.08497927 219.11328125 830.1171875 C218.30117188 830.14039063 217.4890625 830.16359375 216.65234375 830.1875 C214.48828125 829.9921875 214.48828125 829.9921875 212.48828125 827.9921875 C212.36328125 825.3671875 212.36328125 825.3671875 212.48828125 822.9921875 C209.69505907 823.07891496 206.90515597 823.18574107 204.11328125 823.3046875 C202.9221875 823.33852539 202.9221875 823.33852539 201.70703125 823.37304688 C199.62612544 823.47003825 197.55386793 823.72213575 195.48828125 823.9921875 C194.82828125 824.9821875 194.16828125 825.9721875 193.48828125 826.9921875 C191.32421875 827.72265625 191.32421875 827.72265625 188.86328125 828.1796875 C187.63738281 828.41751953 187.63738281 828.41751953 186.38671875 828.66015625 C185.76023437 828.76972656 185.13375 828.87929688 184.48828125 828.9921875 C183.02765275 826.34479834 182.48828125 825.09770416 182.48828125 821.9921875 C181.41900391 822.04439453 181.41900391 822.04439453 180.328125 822.09765625 C174.25058038 822.26943073 169.65518047 822.36648903 164.48828125 818.9921875 C158.96388319 811.43522789 157.90448648 802.06971768 158.48828125 792.9921875 C159.10355773 789.18008861 160.01247642 785.47660062 160.98828125 781.7421875 C161.24947754 780.70731201 161.51067383 779.67243652 161.77978516 778.60620117 C163.94162968 770.35342559 166.84457583 762.50211451 169.9296875 754.55908203 C172.56481339 747.49605932 173.51615225 741.55846017 172.48828125 733.9921875 C173.47828125 733.6621875 174.46828125 733.3321875 175.48828125 732.9921875 C173.68984514 725.99938566 171.86612703 719.04416008 169.62182617 712.18041992 C167.25436134 704.93752847 165.48541088 697.71577216 164.00561523 690.24194336 C163.07575861 685.60192639 161.98813611 681.06790672 160.68237305 676.52001953 C157.98634126 667.06358644 156.23711908 657.50069824 154.67578125 647.8046875 C154.50914474 646.80702866 154.50914474 646.80702866 154.33914185 645.78921509 C152.80934466 636.54322422 152.22746696 627.55457058 152.44125366 618.2003479 C152.49164353 615.83431287 152.51881184 613.46874584 152.54223633 611.10229492 C152.58864416 606.69580161 152.66346792 602.29038276 152.75073242 597.88452148 C152.78399726 596.08675971 152.81202436 594.2888931 152.8347168 592.4909668 C152.98047745 581.14127737 153.85041029 570.27646407 155.80004883 559.0925293 C156.59714745 554.50581097 157.01475315 549.95609923 157.17578125 545.3046875 C157.20994141 544.57958984 157.24410156 543.85449219 157.27929688 543.10742188 C157.3583213 541.40275203 157.42495931 539.69751282 157.48828125 537.9921875 C152.28180889 538.85052134 147.33579496 539.94519527 142.39453125 541.8203125 C138.43407206 543.29182708 134.46256269 544.68335918 130.4453125 545.9921875 C129.43404297 546.3221875 128.42277344 546.6521875 127.38085938 546.9921875 C125.31686981 547.66229699 123.25174859 548.32893027 121.18554688 548.9921875 C115.99133218 550.69368329 111.19088252 552.56174568 106.35961914 555.10791016 C103.14154906 556.62856897 99.74894373 557.35353672 96.30078125 558.1796875 C88.22576182 560.2545954 80.8362112 563.29674234 73.23754883 566.6940918 C67.22991087 569.34411478 61.30333477 571.34910972 54.96533203 573.02807617 C47.88388519 574.98693502 41.27487779 577.96514936 34.6171875 581.046875 C33.35648437 581.61728516 33.35648437 581.61728516 32.0703125 582.19921875 C31.33014893 582.5444458 30.58998535 582.88967285 29.82739258 583.24536133 C26.96785543 584.15834788 24.47125453 584.11537101 21.48828125 583.9921875 C21.58114115 590.93008289 21.68851827 597.86764831 21.80566406 604.80517578 C21.8437851 607.16189569 21.87866641 609.51867044 21.91015625 611.87548828 C21.95617506 615.27656566 22.01410714 618.67727093 22.07421875 622.078125 C22.09154556 623.64123917 22.09154556 623.64123917 22.10922241 625.2359314 C22.22270988 630.94913113 22.80171515 636.2290611 24.03753662 641.80700684 C24.60770664 644.57115403 24.7594584 647.23963162 24.796875 650.05859375 C24.81975586 651.11264404 24.84263672 652.16669434 24.86621094 653.25268555 C24.88586914 654.34234619 24.90552734 655.43200684 24.92578125 656.5546875 C25.37970314 671.88968206 27.56809952 685.47013899 32.74755859 699.91674805 C33.11421631 700.94409058 33.11421631 700.94409058 33.48828125 701.9921875 C33.80619629 702.88139893 34.12411133 703.77061035 34.45166016 704.68676758 C36.89772304 711.74086398 38.62284296 718.72068161 39.98828125 726.0546875 C40.41477 728.25532365 40.84185894 730.45584356 41.26953125 732.65625 C41.47578125 733.73036133 41.68203125 734.80447266 41.89453125 735.91113281 C43.93125727 746.47999893 46.10684368 756.94768908 49.05078125 767.3046875 C52.08342659 778.04420008 54.73024378 788.26700862 54.86328125 799.4921875 C54.87721924 800.24628906 54.89115723 801.00039063 54.90551758 801.77734375 C54.86436868 806.55702839 54.10037068 809.84800716 51.48828125 813.9921875 C48.36697857 816.29209474 45.0756818 817.57642407 41.48828125 818.9921875 C41.46846191 819.5812085 41.44864258 820.17022949 41.42822266 820.77709961 C41.33184848 823.49501101 41.22263413 826.21226853 41.11328125 828.9296875 C41.08234375 829.85587891 41.05140625 830.78207031 41.01953125 831.73632812 C40.73086736 838.59209555 40.42735103 845.52424198 37.02026367 851.61767578 C34.99408085 856.08076725 34.42436498 860.32921319 33.828125 865.16796875 C33.63814186 866.67185905 33.63814186 866.67185905 33.44432068 868.20613098 C31.89144541 881.65290251 32.04588203 895.15797337 32.05249023 908.67553711 C32.01174394 947.46872481 32.01174394 947.46872481 25.48828125 953.9921875 C24.49828125 953.9921875 23.50828125 953.9921875 22.48828125 953.9921875 C21.53641525 963.21701056 21.34030933 972.38090828 21.35546875 981.64453125 C21.35479322 983.11755896 21.35382114 984.59058656 21.35256958 986.06361389 C21.35110754 989.12518391 21.35320074 992.18672446 21.35791016 995.24829102 C21.36364214 999.16426114 21.3602972 1003.08016323 21.35433769 1006.99613094 C21.35072166 1010.02704887 21.35187486 1013.05795068 21.35446548 1016.08886909 C21.35513003 1017.53331066 21.35432291 1018.9777537 21.35198593 1020.42219353 C21.34943839 1022.43632859 21.35401153 1024.45046884 21.35888672 1026.46459961 C21.35968231 1027.6075499 21.36047791 1028.75050018 21.36129761 1029.92808533 C21.47759018 1032.73421318 21.84670673 1035.26367484 22.48828125 1037.9921875 C24.13828125 1038.3221875 25.78828125 1038.6521875 27.48828125 1038.9921875 C27.48828125 1039.6521875 27.48828125 1040.3121875 27.48828125 1040.9921875 C26.16828125 1040.9921875 24.84828125 1040.9921875 23.48828125 1040.9921875 C24.47828125 1042.9721875 25.46828125 1044.9521875 26.48828125 1046.9921875 C29.59202296 1047.25083264 31.01593611 1047.35002472 33.55078125 1045.4296875 C35.48828125 1043.9921875 35.48828125 1043.9921875 37.55078125 1044.0546875 C41.98098942 1046.19833661 43.24940805 1050.66712688 44.80078125 1055.0546875 C50.59010026 1070.37834494 57.83453578 1078.2298118 71.5234375 1087.05078125 C74.22021445 1088.81665496 76.78214378 1090.68875146 79.36328125 1092.6171875 C88.62130072 1099.11844003 99.82258896 1102.592608 110.3828125 1106.47265625 C113.20418388 1107.50975579 116.01145719 1108.57716895 118.8125 1109.66796875 C119.52229004 1109.94189453 120.23208008 1110.21582031 120.96337891 1110.49804688 C122.31026721 1111.01852863 123.65516756 1111.5441985 124.99755859 1112.07617188 C128.13877811 1113.28048377 130.91615646 1114.04661216 134.265625 1114.47265625 C137.48828125 1114.9921875 137.48828125 1114.9921875 139.3515625 1116.22265625 C142.05285804 1120.42776581 142.03654481 1125.15552579 141.48828125 1129.9921875 C138.9524727 1137.0455399 134.73345329 1143.77064485 128.48828125 1147.9921875 C126.1015625 1149.0390625 126.1015625 1149.0390625 123.80078125 1149.7421875 C123.03378906 1149.98453125 122.26679687 1150.226875 121.4765625 1150.4765625 C119.48828125 1150.9921875 119.48828125 1150.9921875 117.48828125 1150.9921875 C117.02421875 1151.95125 117.02421875 1151.95125 116.55078125 1152.9296875 C115.48828125 1154.9921875 115.48828125 1154.9921875 114.48828125 1155.9921875 C107.18831131 1156.96631858 99.84237415 1157.13861855 92.48828125 1156.9921875 C91.86328125 1155.1171875 91.86328125 1155.1171875 91.48828125 1152.9921875 C92.14828125 1152.3321875 92.80828125 1151.6721875 93.48828125 1150.9921875 C91.23934171 1150.88394977 88.9889055 1150.80649105 86.73828125 1150.7421875 C85.4853125 1150.69578125 84.23234375 1150.649375 82.94140625 1150.6015625 C78.89910287 1151.05883664 78.04650618 1151.97302114 75.48828125 1154.9921875 C71.92782948 1156.17900476 69.05019788 1156.08908582 65.30078125 1156.0546875 C64.02847656 1156.04566406 62.75617188 1156.03664063 61.4453125 1156.02734375 C60.46949219 1156.01574219 59.49367188 1156.00414062 58.48828125 1155.9921875 C58.15828125 1154.3421875 57.82828125 1152.6921875 57.48828125 1150.9921875 C49.23050854 1150.76858233 40.97261662 1150.56713346 32.7136507 1150.39378738 C28.87847898 1150.31259881 25.04379638 1150.22384809 21.20922852 1150.11767578 C17.50716782 1150.01545294 13.80515022 1149.93327702 10.1023159 1149.86486053 C8.69119749 1149.83528864 7.28021011 1149.7985506 5.8694706 1149.7544632 C3.89044221 1149.69385206 1.91061539 1149.66129179 -0.0690918 1149.62988281 C-1.19494186 1149.60323547 -2.32079193 1149.57658813 -3.48075867 1149.5491333 C-7.1974586 1150.09242634 -8.73012318 1151.5503726 -11.51171875 1153.9921875 C-14.51953125 1154.453125 -14.51953125 1154.453125 -17.63671875 1154.3671875 C-18.67054688 1154.35429688 -19.704375 1154.34140625 -20.76953125 1154.328125 C-23.51171875 1153.9921875 -23.51171875 1153.9921875 -26.51171875 1151.9921875 C-26.69921875 1149.3671875 -26.69921875 1149.3671875 -26.51171875 1146.9921875 C-27.51138672 1146.93611328 -27.51138672 1146.93611328 -28.53125 1146.87890625 C-35.49443368 1146.38223161 -41.84538443 1145.04237542 -48.51171875 1142.9921875 C-48.51171875 1145.3021875 -48.51171875 1147.6121875 -48.51171875 1149.9921875 C-56.02007197 1148.96832115 -56.02007197 1148.96832115 -58.51171875 1146.9921875 C-59.42732824 1144.94803609 -60.14270149 1142.91022599 -60.80078125 1140.76953125 C-61.36476718 1138.78884502 -61.36476718 1138.78884502 -63.51171875 1137.9921875 C-63.51171875 1136.3421875 -63.51171875 1134.6921875 -63.51171875 1132.9921875 C-62.85171875 1132.6621875 -62.19171875 1132.3321875 -61.51171875 1131.9921875 C-61.18171875 1131.0021875 -60.85171875 1130.0121875 -60.51171875 1128.9921875 C-61.17171875 1128.9921875 -61.83171875 1128.9921875 -62.51171875 1128.9921875 C-63.08183684 1103.98008381 -63.08183684 1103.98008381 -60.21875 1094.37109375 C-59.41489971 1090.52948879 -59.35044662 1086.93722235 -59.29907227 1083.02392578 C-59.11960156 1069.35834615 -59.11960156 1069.35834615 -55.13671875 1064.8671875 C-53.30078125 1063.296875 -53.30078125 1063.296875 -51.51171875 1061.9921875 C-48.90210458 1060.0289361 -48.55092085 1059.24443051 -48.03515625 1055.92578125 C-47.98617187 1054.77207031 -47.9371875 1053.61835937 -47.88671875 1052.4296875 C-47.59289956 1046.15454912 -47.59289956 1046.15454912 -46.51171875 1043.9921875 C-46.4167795 1042.49057981 -46.38377315 1040.98482988 -46.38232422 1039.48022461 C-46.37917206 1038.54000961 -46.3760199 1037.59979462 -46.37277222 1036.63108826 C-46.37479645 1035.60427444 -46.37682068 1034.57746063 -46.37890625 1033.51953125 C-46.37794952 1032.44965469 -46.3769928 1031.37977814 -46.37600708 1030.27748108 C-46.37532435 1027.9933364 -46.37718507 1025.70918981 -46.38134766 1023.42504883 C-46.38657451 1020.02355213 -46.38147003 1016.622195 -46.375 1013.22070312 C-46.37077065 1001.90280403 -46.51391831 990.59971886 -46.93359375 979.2890625 C-46.98699417 977.75347939 -46.98699417 977.75347939 -47.04147339 976.18687439 C-47.36197994 968.48542775 -48.54923443 961.45528892 -50.51171875 953.9921875 C-50.97902967 951.78573649 -51.43703159 949.57729768 -51.88671875 947.3671875 C-54.18090725 936.65296684 -56.94619821 926.04464061 -59.6875 915.4375 C-59.86933838 914.72706543 -60.05117676 914.01663086 -60.23852539 913.28466797 C-60.72670597 911.37887295 -61.22055676 909.47453289 -61.71484375 907.5703125 C-67.89597254 879.81583225 -62.1610621 851.70068609 -54.51171875 824.9921875 C-55.71828125 825.023125 -55.71828125 825.023125 -56.94921875 825.0546875 C-59.51171875 824.9921875 -59.51171875 824.9921875 -60.51171875 823.9921875 C-60.76258556 819.97831861 -60.49947255 816.63715992 -59.51171875 812.7421875 C-57.28246866 803.14671973 -58.77227872 795.33668481 -61.50390625 785.9765625 C-62.62735756 781.87015425 -63.0931009 777.78238184 -63.51171875 773.5546875 C-64.03282696 768.52309155 -64.72523663 764.22854106 -67.4140625 759.86328125 C-70.60577591 754.42260251 -71.92008797 749.46654359 -72.82421875 743.2421875 C-74.2778058 734.59474611 -76.754916 726.83277205 -83.9296875 721.30859375 C-88.33722303 717.66450426 -90.0156023 713.28040617 -92.07421875 708.0546875 C-94.44747879 702.12373893 -96.70874619 697.39708996 -101.05932617 692.6887207 C-103.5487717 689.78081063 -105.17128859 686.45691092 -106.88671875 683.0546875 C-107.26320557 682.32685059 -107.63969238 681.59901367 -108.02758789 680.84912109 C-111.06183453 674.95825462 -114.02735905 669.02991358 -116.94873047 663.08227539 C-118.34296176 660.25409216 -119.75917243 657.62100697 -121.51171875 654.9921875 C-121.80949219 654.05117188 -122.10726562 653.11015625 -122.4140625 652.140625 C-125.87190014 642.22241455 -134.35650142 634.33390926 -142.765625 628.40234375 C-149.14152805 623.86713619 -153.08766671 618.33758476 -157.28759766 611.84277344 C-158.56339453 609.91406575 -159.89271689 608.03406224 -161.2421875 606.15625 C-166.35700953 599.00434834 -170.79975871 591.88036636 -174.58520508 583.94018555 C-176.89395751 579.12034592 -179.47223158 574.54954708 -182.26171875 569.9921875 C-183.0209513 568.74095699 -183.7800715 567.4896583 -184.5390625 566.23828125 C-185.6333668 564.43755477 -186.72868734 562.63744064 -187.828125 560.83984375 C-191.54264561 554.18284015 -192.92747262 546.39049474 -194.51171875 538.9921875 C-194.69484619 538.19659424 -194.87797363 537.40100098 -195.06665039 536.58129883 C-196.76410081 528.50203705 -196.77854303 520.51760415 -196.69921875 512.3046875 C-196.69164289 510.82063968 -196.68440602 509.3365901 -196.67749023 507.85253906 C-196.61156755 497.31296499 -196.38673686 486.77713173 -196.07421875 476.2421875 C-196.05475189 475.56169342 -196.03528503 474.88119934 -196.01522827 474.18008423 C-195.95801334 472.24750089 -195.89322069 470.31514644 -195.828125 468.3828125 C-195.79146729 467.29000977 -195.75480957 466.19720703 -195.71704102 465.07128906 C-195.51171875 461.9921875 -195.51171875 461.9921875 -195.00300598 459.18768311 C-194.51058787 455.98483185 -194.41129057 453.02288628 -194.44580078 449.78515625 C-194.45555939 448.57529053 -194.46531799 447.3654248 -194.47537231 446.11889648 C-194.48994476 444.81895752 -194.50451721 443.51901855 -194.51953125 442.1796875 C-194.52904381 440.80607688 -194.53764215 439.43245966 -194.54537964 438.05883789 C-194.57865805 432.26109684 -194.61939675 426.46350894 -194.68310547 420.66601562 C-194.85630682 404.37080404 -194.60304038 388.52502578 -191.87678528 372.40310669 C-191.20616812 367.97431454 -190.83357956 363.51597576 -190.44921875 359.0546875 C-190.35890381 358.01344727 -190.26858887 356.97220703 -190.17553711 355.89941406 C-189.59548999 348.38086463 -189.1086782 340.85738159 -188.63909912 333.33126831 C-188.34875155 328.71193169 -188.045117 324.09346338 -187.73974609 319.47509766 C-187.60198642 317.37094404 -187.46828086 315.26651189 -187.34228516 313.16162109 C-185.94120372 290.51890755 -179.75167223 268.12559208 -173.25 246.47363281 C-171.94135524 242.07513235 -170.70097014 237.65714306 -169.44921875 233.2421875 C-168.0443411 228.30668439 -166.63237265 223.37408753 -165.1640625 218.45703125 C-164.95136719 217.74417969 -164.73867188 217.03132812 -164.51953125 216.296875 C-164.09790648 214.88625384 -163.67473072 213.47609533 -163.25 212.06640625 C-161.94006973 207.65575497 -160.91481699 203.24350865 -159.94921875 198.7421875 C-158.06856972 190.5553939 -154.82743016 182.8602755 -151.63671875 175.1171875 C-151.25457718 174.181026 -151.25457718 174.181026 -150.86471558 173.22595215 C-146.80187817 163.32377315 -142.13798245 154.25067796 -135.69921875 145.6796875 C-133.48929184 142.71207137 -131.32130873 139.73858644 -129.28125 136.65234375 C-121.18453255 124.42685976 -112.74081972 117.94026156 -98.94921875 112.6171875 C-90.46210825 111.0740765 -84.33343014 111.37944386 -76.80078125 115.80078125 C-74.35348265 117.07454588 -72.21179422 117.50469718 -69.51171875 117.9921875 C-69.47413452 116.72157471 -69.47413452 116.72157471 -69.43579102 115.42529297 C-69.34024018 112.26063192 -69.24103309 109.09611187 -69.1394043 105.93164062 C-69.09628787 104.56612574 -69.05459807 103.20056498 -69.0144043 101.83496094 C-68.95613321 99.8638156 -68.89218139 97.89284082 -68.828125 95.921875 C-68.79146729 94.73835449 -68.75480957 93.55483398 -68.71704102 92.33544922 C-68.51171875 88.9921875 -68.51171875 88.9921875 -68.01660156 86.234375 C-67.28909277 81.56255836 -67.24088277 76.90897057 -67.1171875 72.1875 C-67.04841116 70.05596084 -66.97872135 67.92445099 -66.90820312 65.79296875 C-66.80094277 62.45341637 -66.69913904 59.11409511 -66.61303711 55.77392578 C-66.52727542 52.53600397 -66.41787738 49.29956431 -66.3046875 46.0625 C-66.28472214 45.0726712 -66.26475677 44.08284241 -66.2441864 43.0630188 C-65.86571486 33.30856848 -62.31781998 26.5294729 -55.20703125 19.81640625 C-48.05655897 13.87216865 -40.6948618 9.31484446 -32.51171875 4.9921875 C-31.46113281 4.38761719 -30.41054688 3.78304687 -29.328125 3.16015625 C-20.7963552 -1.3879907 -9.36487042 -3.75759964 0 0 Z " fill="#9B9B9B" transform="translate(455.51171875,170.0078125)"/>
<path d="M0 0 C6.70069317 13.92786937 6.70069317 13.92786937 5 22 C-0.25451735 36.67709168 -11.52636759 47.93611642 -24.16503906 56.55712891 C-30.52365342 60.90731452 -35.32004746 65.24630541 -40.03515625 71.4453125 C-43.49090343 75.93847086 -47.28301622 79.85534415 -52 83 C-54.6875 82.625 -54.6875 82.625 -57 82 C-58.44384359 76.06950195 -59.48455007 71.06191277 -58 65 C-57.34 64.01 -56.68 63.02 -56 62 C-55.70175541 58.12282038 -55.92970693 55.23155363 -57.0625 51.5 C-58.15207886 47.43223891 -57.99126575 45.08168251 -57 41 C-54.8828125 38.6640625 -54.8828125 38.6640625 -52.125 36.625 C-51.135 35.87089844 -50.145 35.11679687 -49.125 34.33984375 C-48.09375 33.56769531 -47.0625 32.79554688 -46 32 C-44.03402624 30.40520618 -42.07537689 28.80133088 -40.125 27.1875 C-37.56570826 25.09040871 -35.00731593 23.00566218 -32.390625 20.98046875 C-30.18259925 19.15127094 -28.44192913 17.33190416 -26.625 15.125 C-23.37386678 11.32138663 -19.88489637 8.13742264 -16 5 C-15.071875 4.13375 -15.071875 4.13375 -14.125 3.25 C-9.91363921 0.77272895 -4.84053163 0 0 0 Z " fill="#FDFDFD" transform="translate(565,408)"/>
<path d="M0 0 C0.66 0.66 1.32 1.32 2 2 C-21.78877436 5.58165209 -21.78877436 5.58165209 -32 5 C-32.66 3.68 -33.32 2.36 -34 1 C-33.30962646 0.97494385 -32.61925293 0.9498877 -31.90795898 0.92407227 C-28.75098591 0.8073434 -25.59425543 0.68496822 -22.4375 0.5625 C-21.35146484 0.52318359 -20.26542969 0.48386719 -19.14648438 0.44335938 C-12.5030794 0.19539743 -12.5030794 0.19539743 -5.91015625 -0.59765625 C-3 -1 -3 -1 0 0 Z " fill="#F4F4F4" transform="translate(500,590)"/>
<path d="M0 0 C0.66 0.66 1.32 1.32 2 2 C-1.63 2.33 -5.26 2.66 -9 3 C-9 2.34 -9 1.68 -9 1 C-3.375 -1.125 -3.375 -1.125 0 0 Z " fill="#EAEAEA" transform="translate(500,590)"/>
</svg>
