<?xml version="1.0" encoding="UTF-8"?>
<svg version="1.1" xmlns="http://www.w3.org/2000/svg" width="1000" height="1895">
<path d="M0 0 C330 0 660 0 1000 0 C1000 625.35 1000 1250.7 1000 1895 C670 1895 340 1895 0 1895 C0 1269.65 0 644.3 0 0 Z " fill="#FEFEFE" transform="translate(0,0)"/>
<path d="M0 0 C4.4744049 1.66389238 9.05387574 1.84320108 13.78686523 1.99243164 C27.34685715 2.48103642 34.6515204 6.96319284 43.90234375 16.734375 C45.66239334 18.70264474 47.35119222 20.71387887 49.02734375 22.75390625 C49.94193359 23.81931641 49.94193359 23.81931641 50.875 24.90625 C58.88510417 34.58300005 62.45911316 46.89442177 64.62890625 59.15234375 C65.98212171 66.74839323 68.32061615 71.12402364 73.484375 76.84375 C76.84158593 80.6857195 79.66256146 84.8299426 82.48852539 89.07202148 C84.96234979 92.66523735 87.2042056 94.69732159 91.02734375 96.75390625 C92.44776196 99.59474266 92.34186647 101.60867903 92.02734375 104.75390625 C90.16024465 107.05666181 88.67086634 108.43214496 86.02734375 109.75390625 C83.14245389 109.85338521 80.28686783 109.89275197 77.40234375 109.87890625 C76.22865234 109.88470703 76.22865234 109.88470703 75.03125 109.890625 C69.94425798 109.88218886 65.062473 109.47979445 60.02734375 108.75390625 C60.02734375 109.41390625 60.02734375 110.07390625 60.02734375 110.75390625 C59.21547607 111.26791992 58.4036084 111.78193359 57.56713867 112.31152344 C54.82499029 114.94849858 54.6505297 115.2920989 54.3996582 118.84472656 C54.37207549 120.50693535 54.37068938 122.16971316 54.390625 123.83203125 C54.38024704 124.71743591 54.36986908 125.60284058 54.35917664 126.51507568 C54.32949052 129.34507965 54.3328635 132.17377487 54.33984375 135.00390625 C54.3309172 137.8193872 54.31480379 140.63451847 54.28837585 143.44989014 C54.27360351 145.19954626 54.26957183 146.9493382 54.27815247 148.69903564 C54.23560401 157.90535096 51.36987264 166.11037098 48.58984375 174.81640625 C48.29013672 175.77095703 47.99042969 176.72550781 47.68164062 177.70898438 C46.04111139 182.86544177 44.26652248 187.82771305 42.02734375 192.75390625 C41.62773437 193.64335937 41.228125 194.5328125 40.81640625 195.44921875 C38.42359831 200.4436031 36.12810135 203.95320409 32.02734375 207.75390625 C31.16099251 208.99549242 30.30805311 210.24648879 29.46484375 211.50390625 C22.78777665 220.4804735 14.36070238 225.45460593 3.44921875 227.4140625 C2.25039063 227.58228516 2.25039063 227.58228516 1.02734375 227.75390625 C-0.17466535 231.1057945 -0.95711248 234.17883822 -0.97265625 237.75390625 C0.38313306 239.98424907 2.04270864 241.51707794 3.90234375 243.34765625 C11.65070697 252.12153813 15.62773395 265.26159549 19.70654297 276.03955078 C22.58097793 283.40319653 26.35007135 289.24280818 32.02734375 294.75390625 C35.33747578 293.28273646 37.74025297 291.37471374 40.46484375 289.00390625 C45.34367911 285.01410311 50.36856994 282.55756871 56.1171875 280.04296875 C61.25376933 277.76770431 64.77834947 275.03621971 68.52734375 270.94140625 C75.38109965 263.89032533 84.95767834 260.2177907 94.2265625 257.421875 C96.91449566 256.42483255 98.80823543 254.55032727 101.02734375 252.75390625 C106.23297676 250.12735585 111.60667352 247.89467819 117.02734375 245.75390625 C116.39453724 242.42413867 115.13977399 240.19175191 113.27734375 237.37890625 C105.1358521 224.09026964 102.97278815 209.8141102 102.36816406 194.56567383 C102.18056819 189.89463337 101.70834276 185.38469954 101.02734375 180.75390625 C100.46398241 171.84846352 100.51223692 163.67505582 105.84375 156.2109375 C119.97129408 140.3142913 147.12169005 134.09802057 167.41455078 132.57470703 C173.8016219 132.32624539 178.65782118 133.6083052 184.46484375 136.19140625 C185.28960205 136.54759033 186.11436035 136.90377441 186.96411133 137.27075195 C194.02872071 140.46540732 199.26761483 144.57415004 205.02734375 149.75390625 C209.95320166 153.42777527 215.47395378 155.98779242 220.96484375 158.69140625 C236.87125421 166.57426147 236.87125421 166.57426147 240.890625 172.8515625 C241.40463867 173.6463501 241.91865234 174.4411377 242.44824219 175.26000977 C243.22989746 176.49448853 243.22989746 176.49448853 244.02734375 177.75390625 C245.53956247 180.13678901 247.05221916 182.5191314 248.57617188 184.89453125 C249.60065455 186.4914023 250.61338571 188.09586361 251.61523438 189.70703125 C252.36256836 190.85945313 252.36256836 190.85945313 253.125 192.03515625 C253.56336182 192.72673828 254.00172363 193.41832031 254.45336914 194.13085938 C255.95891259 195.99529094 255.95891259 195.99529094 258.58374023 196.23632812 C261.02734375 196.75390625 261.02734375 196.75390625 262.29541016 198.53515625 C263.04609678 200.81075333 263.46215577 202.87436891 263.73828125 205.25390625 C263.84672363 206.13103271 263.95516602 207.00815918 264.06689453 207.91186523 C264.23294189 209.31867554 264.23294189 209.31867554 264.40234375 210.75390625 C265.44729873 219.0811924 266.7876885 227.25857075 268.66943359 235.43945312 C271.2631634 247.32157455 271.26985499 259.76855203 271.37744141 271.89819336 C271.39411052 273.26587815 271.42154273 274.63347207 271.45947266 276.00073242 C271.74648565 286.50915173 270.73541561 295.88573907 263.9387207 304.35717773 C261.460175 307.46509485 260.61030017 310.73759896 259.58984375 314.50390625 C256.87712034 323.73072144 253.66895615 330.73346702 246.48046875 337.34375 C244.91082124 338.71159519 244.91082124 338.71159519 244.02734375 340.75390625 C245.34734375 341.08390625 246.66734375 341.41390625 248.02734375 341.75390625 C248.35734375 344.06390625 248.68734375 346.37390625 249.02734375 348.75390625 C246.54363604 349.9179766 244.05138951 351.05694807 241.546875 352.17578125 C239.71811187 352.99578159 237.89041697 353.81885122 236.07958984 354.67773438 C226.55566291 359.19014771 219.88412338 361.13505301 209.27734375 360.55078125 C204.65792318 360.83949504 202.70235527 362.65121508 199.66015625 365.9765625 C198.02734375 367.75390625 198.02734375 367.75390625 194.83984375 369.44140625 C191.71970545 372.0068533 191.19376555 373.38112417 189.78515625 377.08203125 C187.03078904 383.94408528 183.64684044 390.34182993 180.08984375 396.81640625 C179.49494141 397.91017578 178.90003906 399.00394531 178.28710938 400.13085938 C177.10890252 402.29541208 175.92645989 404.4576653 174.73950195 406.61743164 C173.60572875 408.69437223 172.4868111 410.7794973 171.38354492 412.87280273 C170.86896729 413.84419189 170.35438965 414.81558105 169.82421875 415.81640625 C169.15084473 417.10417969 169.15084473 417.10417969 168.46386719 418.41796875 C166.46779286 421.66379457 163.92092452 424.02828096 161.16015625 426.62109375 C155.36165559 432.41959441 150.82706603 439.23443253 146.80224609 446.33764648 C140.58701001 457.29036046 132.38573689 464.91099899 122.875 473.07421875 C117.07799807 478.34422051 112.32791826 484.59382612 107.52734375 490.75390625 C101.12082667 498.96102634 94.85330313 506.33522953 86.58203125 512.74609375 C80.89196755 517.218101 75.58328057 522.08463991 70.6015625 527.33203125 C69.69905762 528.27151611 69.69905762 528.27151611 68.77832031 529.22998047 C67.6007525 530.46303411 66.43640273 531.70889874 65.28808594 532.96923828 C59.14521705 539.38675911 51.79089054 541.30527896 43.02734375 541.75390625 C38.1928595 541.85922479 33.36265891 541.84834685 28.52734375 541.81640625 C27.22796875 541.81189453 25.92859375 541.80738281 24.58984375 541.80273438 C21.4022955 541.79101545 18.2148442 541.77460844 15.02734375 541.75390625 C15.68734375 543.07390625 16.34734375 544.39390625 17.02734375 545.75390625 C31.8267211 546.12235548 45.40457318 543.72071637 59.88232422 540.78686523 C67.91762491 539.16071577 75.96561407 537.61831506 84.02734375 536.12890625 C85.16478027 535.9177417 86.3022168 535.70657715 87.47412109 535.48901367 C92.30317464 534.5983028 97.13111952 533.72262366 101.98046875 532.94921875 C110.2544751 531.61938618 117.89860429 529.69931311 125.7578125 526.83984375 C133.37455755 524.31002879 141.20522229 524.41397424 149.15234375 524.19140625 C149.86920349 524.17055969 150.58606323 524.14971313 151.324646 524.12823486 C180.03376533 523.32030638 208.82989412 523.31102868 237.54193115 524.01837158 C239.44071463 524.06431036 241.33974792 524.09954981 243.23876953 524.13427734 C249.8984531 524.34289394 255.83794247 525.2856862 262.25878906 527.05200195 C266.20249453 528.0518391 270.10660542 528.38382489 274.15234375 528.69140625 C280.28762964 529.24892648 285.28748276 530.29544225 290.91015625 532.94140625 C294.30888155 534.24571411 297.42349467 533.88261515 301.02734375 533.75390625 C303.02734375 535.75390625 303.02734375 535.75390625 303.15234375 538.37890625 C303.11109375 539.16265625 303.06984375 539.94640625 303.02734375 540.75390625 C304.03796875 540.96015625 305.04859375 541.16640625 306.08984375 541.37890625 C314.92418181 543.96889291 321.68371988 552.94647914 326.09619141 560.61035156 C328.59135542 565.23824087 330.84561145 569.97166106 333.02734375 574.75390625 C333.46304688 575.69878906 333.89875 576.64367187 334.34765625 577.6171875 C338.33516731 586.8770743 339.27949784 596.7666168 340.09765625 606.73046875 C340.22658768 608.24475967 340.22658768 608.24475967 340.35812378 609.78964233 C340.53717819 611.91210768 340.71350556 614.03480471 340.88720703 616.15771484 C341.15002877 619.35078115 341.42602181 622.54252029 341.703125 625.734375 C342.69283705 637.44338784 343.2869269 649.00577816 343.02734375 660.75390625 C343.01525879 661.76598145 343.00317383 662.77805664 342.99072266 663.82080078 C342.60080685 689.4680866 342.60080685 689.4680866 335.02734375 699.75390625 C332.33984375 701.06640625 332.33984375 701.06640625 330.02734375 701.75390625 C329.98867187 702.90052734 329.98867187 702.90052734 329.94921875 704.0703125 C329.40018784 714.43951 326.81814654 723.52873465 323.9609375 733.4609375 C322.65192447 738.77587673 322.39448077 744.1830404 322.02734375 749.62890625 C321.88739856 751.68921049 321.74162145 753.74912738 321.58984375 755.80859375 C321.52925781 756.71077637 321.46867188 757.61295898 321.40625 758.54248047 C321.10509037 761.09496358 320.66833127 763.4342845 320.11157227 765.93261719 C318.42446724 774.13713386 317.87767348 782.50993304 317.1171875 790.83984375 C316.94341949 792.70581171 316.76930507 794.57174744 316.59486389 796.43765259 C316.23100031 800.34240774 315.8708419 804.2474814 315.51342773 808.15283203 C315.06050634 813.0993035 314.5991762 818.04494504 314.13506222 822.99037743 C313.77407548 826.8459861 313.41733145 830.70197883 313.0618 834.55809402 C312.8935697 836.37821007 312.72418604 838.19821997 312.55351067 840.01810837 C310.84902108 858.24748478 309.82348508 876.47215334 309.73217773 894.78393555 C309.72053088 896.40153664 309.69988501 898.01909571 309.6706543 899.63647461 C309.46867055 910.93063851 309.51319658 921.98268549 316.02734375 931.75390625 C317.88359375 931.87765625 317.88359375 931.87765625 319.77734375 932.00390625 C323.37117047 932.32825884 324.83153533 933.11603908 327.15234375 935.87890625 C328.12033254 937.16335292 329.0783237 938.45538151 330.02734375 939.75390625 C331.14178266 941.07538541 332.26645473 942.38831861 333.40234375 943.69140625 C334.27734375 944.71223958 335.15234375 945.73307292 336.02734375 946.75390625 C339.27570536 945.67111905 341.64254835 944.31643937 344.27734375 942.19140625 C348.27321443 939.19229801 352.13626972 938.87590583 357.02734375 938.75390625 C357.35734375 940.07390625 357.68734375 941.39390625 358.02734375 942.75390625 C352.27734375 947.62890625 352.27734375 947.62890625 350.02734375 948.75390625 C351.13916016 949.0478125 351.13916016 949.0478125 352.2734375 949.34765625 C359.12645598 951.29367863 365.60533514 953.69125808 372.08984375 956.62890625 C372.81550537 956.94408203 373.54116699 957.25925781 374.28881836 957.58398438 C379.0343981 959.80099483 381.54059763 961.95849301 384.02734375 966.75390625 C384.40234375 970.00390625 384.40234375 970.00390625 384.02734375 972.75390625 C383.36734375 973.41390625 382.70734375 974.07390625 382.02734375 974.75390625 C376.73525641 974.75390625 373.60521156 972.22152916 369.45703125 969.31640625 C363.48310946 965.4746559 357.07179177 963.36646695 350.02734375 962.75390625 C351.36568601 967.38662947 352.45392783 970.30394963 356.73803711 972.71777344 C357.35815674 972.99266602 357.97827637 973.26755859 358.6171875 973.55078125 C359.66011963 974.02366577 359.66011963 974.02366577 360.72412109 974.50610352 C361.46355957 974.83537842 362.20299805 975.16465332 362.96484375 975.50390625 C368.14149701 977.85865881 373.07779985 980.28481342 377.90234375 983.31640625 C383.67108432 986.82055858 389.69541821 988.91601639 396.03417969 991.12915039 C401.79084714 993.18109423 406.76670427 995.74911827 411.9453125 999.015625 C415.66331635 1001.11259802 419.4824914 1002.55517712 423.46484375 1004.06640625 C431.87073152 1007.32669053 438.24009294 1011.89603003 445.02734375 1017.75390625 C446.28611328 1018.80578125 446.28611328 1018.80578125 447.5703125 1019.87890625 C453.90290966 1025.2588118 453.90290966 1025.2588118 454.18847656 1028.68994141 C454.23421824 1031.25307106 454.26267419 1033.8154014 454.27734375 1036.37890625 C454.30828125 1037.69568359 454.30828125 1037.69568359 454.33984375 1039.0390625 C454.38284766 1046.27447059 453.10794645 1051.63300219 449.02734375 1057.75390625 C447.0331158 1058.12019302 445.03281064 1058.45521969 443.02734375 1058.75390625 C442.69734375 1059.41390625 442.36734375 1060.07390625 442.02734375 1060.75390625 C440.70734375 1060.75390625 439.38734375 1060.75390625 438.02734375 1060.75390625 C438.02734375 1059.76390625 438.02734375 1058.77390625 438.02734375 1057.75390625 C432.74734375 1057.75390625 427.46734375 1057.75390625 422.02734375 1057.75390625 C422.02734375 1059.40390625 422.02734375 1061.05390625 422.02734375 1062.75390625 C420.37119718 1063.13609392 418.70277351 1063.46785727 417.02734375 1063.75390625 C416.02734375 1062.75390625 416.02734375 1062.75390625 415.96484375 1060.19140625 C415.99578125 1058.98484375 415.99578125 1058.98484375 416.02734375 1057.75390625 C415.40947998 1057.82464355 414.79161621 1057.89538086 414.1550293 1057.96826172 C406.04255272 1058.80975277 397.98917748 1058.90777281 389.83984375 1058.87890625 C389.1159848 1058.87802002 388.39212585 1058.87713379 387.64633179 1058.8762207 C365.76966533 1058.84553607 343.89668073 1058.27523198 322.02734375 1057.75390625 C322.03894531 1058.39199219 322.05054688 1059.03007813 322.0625 1059.6875 C322.07152344 1060.51378906 322.08054687 1061.34007812 322.08984375 1062.19140625 C322.10144531 1063.01511719 322.11304688 1063.83882812 322.125 1064.6875 C322.02734375 1066.75390625 322.02734375 1066.75390625 321.02734375 1067.75390625 C319.21807094 1067.87878383 317.40338268 1067.92961471 315.58984375 1067.94140625 C314.60113281 1067.95558594 313.61242187 1067.96976563 312.59375 1067.984375 C310.02734375 1067.75390625 310.02734375 1067.75390625 308.02734375 1065.75390625 C307.90234375 1062.12890625 307.90234375 1062.12890625 308.02734375 1058.75390625 C306.35671875 1059.00140625 306.35671875 1059.00140625 304.65234375 1059.25390625 C299.77224037 1059.8748513 294.93872427 1059.84448499 290.02734375 1059.75390625 C289.36734375 1062.06390625 288.70734375 1064.37390625 288.02734375 1066.75390625 C286.25921263 1067.00306564 284.48759393 1067.22757257 282.71484375 1067.44140625 C281.72871094 1067.56902344 280.74257813 1067.69664063 279.7265625 1067.828125 C277.02734375 1067.75390625 277.02734375 1067.75390625 275.171875 1066.7109375 C274.02734375 1064.75390625 274.02734375 1064.75390625 274.02734375 1057.75390625 C266.43734375 1057.75390625 258.84734375 1057.75390625 251.02734375 1057.75390625 C250.69734375 1059.40390625 250.36734375 1061.05390625 250.02734375 1062.75390625 C246.69823906 1065.10294741 243.02735193 1065.85807377 239.02734375 1065.44140625 C238.36734375 1065.21453125 237.70734375 1064.98765625 237.02734375 1064.75390625 C236.69734375 1062.44390625 236.36734375 1060.13390625 236.02734375 1057.75390625 C235.36089844 1057.78871094 234.69445312 1057.82351563 234.0078125 1057.859375 C226.50772045 1058.07965742 217.92380976 1057.9761204 211.8828125 1052.98046875 C203.78570611 1043.26394108 203.93816952 1030.52662623 204.74511719 1018.55419922 C206.12888475 1004.82425635 211.21570688 991.75586504 216.0625 978.9375 C216.38138184 978.08760498 216.70026367 977.23770996 217.02880859 976.36206055 C217.71461283 974.57075331 218.42468351 972.78860638 219.15478516 971.01489258 C221.68108165 964.65553667 222.55807136 959.38484803 222.27734375 952.56640625 C222.25929688 951.70982422 222.24125 950.85324219 222.22265625 949.97070312 C222.17633735 947.89793253 222.10463545 945.8257531 222.02734375 943.75390625 C223.34734375 943.09390625 224.66734375 942.43390625 226.02734375 941.75390625 C223.58946761 931.29463118 220.91053539 921.03517684 217.40234375 910.87890625 C214.64953182 902.88724988 212.53497392 895.08383407 211.02734375 886.75390625 C210.07116349 881.7321351 209.06945461 876.793081 207.65234375 871.87890625 C203.16176488 855.69928289 200.87042426 838.97484804 198.44458008 822.39086914 C198.18517896 820.75143583 197.88169344 819.11760086 197.51133728 817.49961853 C196.95634858 814.35114816 196.88517439 811.38315427 196.86621094 808.18554688 C196.85660339 806.87227417 196.84699585 805.55900146 196.83709717 804.20593262 C196.83224191 802.77400896 196.82796489 801.34208324 196.82421875 799.91015625 C196.82139137 799.17970596 196.818564 798.44925568 196.81565094 797.69667053 C196.80066542 793.81454105 196.79143778 789.93244851 196.78710938 786.05029297 C196.78275992 782.88122824 196.76900664 779.71244118 196.74609375 776.54345703 C196.62223803 759.07647162 196.64143147 741.97118647 200.02734375 724.75390625 C200.17565643 723.98048386 200.32396912 723.20706146 200.47677612 722.41020203 C200.75859753 720.94156814 201.0422113 719.47327599 201.32835388 718.00547791 C203.09628932 708.84961187 203.34189991 700.06243842 203.02734375 690.75390625 C194.63031512 692.83283865 186.67950272 695.18001053 178.6484375 698.4140625 C174.2887718 700.02718584 169.86968437 701.29002322 165.40234375 702.56640625 C155.93326333 705.29859862 147.0382531 708.96388825 138.01611328 712.89794922 C131.89720477 715.5314986 125.70043705 717.57765289 119.28295898 719.34838867 C111.85026286 721.41714298 104.8893302 723.98785763 97.83984375 727.12890625 C90.79444821 730.2651233 83.78731638 732.90864476 76.40234375 735.12890625 C55.52373904 741.40702217 55.52373904 741.40702217 36.05712891 750.96362305 C33.16911287 752.08805267 30.99031461 751.42730872 28.02734375 750.75390625 C27.18727779 786.32865852 27.18727779 786.32865852 30.52978516 821.66845703 C31.88456329 830.05408733 32.44933018 838.26322825 32.65234375 846.75390625 C32.87964925 855.92901096 33.19904822 864.73431494 35.02734375 873.75390625 C35.27097656 875.03007813 35.51460938 876.30625 35.765625 877.62109375 C37.45960179 885.8758232 39.98383741 893.54869739 43.08984375 901.37890625 C46.11212552 909.02805154 48.32732747 916.32447257 49.64257812 924.47216797 C50.49030411 929.49935517 51.49593451 934.49895175 52.46484375 939.50390625 C52.68237305 940.63078857 52.89990234 941.7576709 53.12402344 942.91870117 C53.55575203 945.15365491 53.98835343 947.38844024 54.421875 949.62304688 C54.80021581 951.57943501 55.17569607 953.53638106 55.546875 955.49414062 C57.14704252 963.9047772 58.98869001 971.94724755 61.90234375 980.00390625 C68.0432193 997.24885776 76.19684816 1024.3393599 69.33984375 1042.00390625 C67.45174124 1045.46982868 65.48805151 1047.74186685 62.02734375 1049.75390625 C60.81046875 1050.08390625 59.59359375 1050.41390625 58.33984375 1050.75390625 C55.07220289 1051.39462663 55.07220289 1051.39462663 53.8203125 1053.2890625 C52.65641927 1056.9068784 52.91066955 1060.44027203 53.02734375 1064.19140625 C53.17494897 1075.44658615 51.72735227 1085.09687378 47.92407227 1095.74243164 C46.15845109 1100.88479514 45.11110348 1106.01080522 44.27734375 1111.37890625 C44.16205322 1112.1177002 44.0467627 1112.85649414 43.92797852 1113.61767578 C42.28486342 1125.01873023 41.89630655 1136.42174044 41.88671875 1147.92578125 C41.87058284 1150.64065056 41.84882164 1153.35547457 41.828125 1156.0703125 C41.79810867 1160.26877545 41.77500288 1164.46694639 41.77685547 1168.66552734 C41.77313672 1216.68250325 41.77313672 1216.68250325 33.02734375 1226.75390625 C31.70734375 1226.75390625 30.38734375 1226.75390625 29.02734375 1226.75390625 C27.92491256 1239.6137999 27.73295744 1252.48307619 27.5246582 1265.38305664 C27.46559023 1269.02043816 27.40025966 1272.65766533 27.33398438 1276.29492188 C27.20783871 1283.44767775 27.1126843 1290.60056109 27.02734375 1297.75390625 C27.01068665 1298.96753845 26.99402954 1300.18117065 26.97686768 1301.43157959 C26.93150599 1304.99084141 26.90102886 1308.54992495 26.875 1312.109375 C26.85988876 1313.17996658 26.84477753 1314.25055817 26.82920837 1315.35359192 C26.8060758 1320.94934234 27.28826199 1325.44749929 29.02734375 1330.75390625 C29.02734375 1332.07390625 29.02734375 1333.39390625 29.02734375 1334.75390625 C31.00734375 1334.75390625 32.98734375 1334.75390625 35.02734375 1334.75390625 C34.69734375 1336.40390625 34.36734375 1338.05390625 34.02734375 1339.75390625 C33.03734375 1340.08390625 32.04734375 1340.41390625 31.02734375 1340.75390625 C32.60312189 1343.86880712 32.60312189 1343.86880712 35.02734375 1346.75390625 C37.98394248 1347.58740576 37.98394248 1347.58740576 41.02734375 1346.75390625 C42.26484375 1345.73296875 42.26484375 1345.73296875 43.52734375 1344.69140625 C46.02734375 1342.75390625 46.02734375 1342.75390625 49.08984375 1342.44140625 C52.46319368 1343.94864771 52.56631005 1344.34515148 53.89453125 1347.59375 C54.23524658 1348.40593994 54.57596191 1349.21812988 54.92700195 1350.05493164 C55.29011475 1350.94559326 55.65322754 1351.83625488 56.02734375 1352.75390625 C63.82187221 1372.5168393 63.82187221 1372.5168393 78.02734375 1387.75390625 C78.76194824 1388.29660156 79.49655273 1388.83929687 80.25341797 1389.3984375 C85.21162202 1393.01586751 90.23895888 1396.51799396 95.35107422 1399.91430664 C97.17558101 1401.16842621 98.96088989 1402.48106539 100.70751953 1403.84155273 C111.14987444 1411.74474109 122.99662774 1415.93177624 135.15234375 1420.56640625 C137.31309696 1421.40536517 139.47325814 1422.24585056 141.6328125 1423.08789062 C147.4208977 1425.33716963 153.21651369 1427.56406035 159.02734375 1429.75390625 C160.01708191 1430.13412933 161.00682007 1430.51435242 162.02655029 1430.90609741 C163.48656464 1431.45664291 163.48656464 1431.45664291 164.97607422 1432.01831055 C165.85101532 1432.35138718 166.72595642 1432.68446381 167.62741089 1433.02763367 C170.23755899 1433.94398872 170.23755899 1433.94398872 173.96484375 1433.75390625 C177.02734375 1433.75390625 177.02734375 1433.75390625 179.15625 1435.26953125 C181.62724821 1438.5504391 181.86268101 1441.52860819 182.02734375 1445.50390625 C182.07749634 1446.58514771 182.07749634 1446.58514771 182.12866211 1447.68823242 C182.26773761 1453.56334045 181.48432764 1457.10388716 178.02734375 1461.75390625 C177.40859375 1462.67042969 176.78984375 1463.58695313 176.15234375 1464.53125 C171.79060898 1470.81776546 167.65270284 1476.50095924 160.02734375 1478.75390625 C157.03463695 1479.19297116 154.0413712 1479.50437892 151.02734375 1479.75390625 C150.90359375 1480.37265625 150.77984375 1480.99140625 150.65234375 1481.62890625 C150.02734375 1483.75390625 150.02734375 1483.75390625 148.02734375 1485.75390625 C145.38220363 1486.23322694 142.81939159 1486.59846745 140.15234375 1486.87890625 C139.39381104 1486.96382324 138.63527832 1487.04874023 137.85375977 1487.13623047 C131.56902314 1487.79513018 125.3450437 1487.97301723 119.02734375 1487.75390625 C118.33984375 1486.00390625 118.33984375 1486.00390625 118.02734375 1483.75390625 C119.01734375 1482.43390625 120.00734375 1481.11390625 121.02734375 1479.75390625 C114.75734375 1479.42390625 108.48734375 1479.09390625 102.02734375 1478.75390625 C101.36734375 1480.07390625 100.70734375 1481.39390625 100.02734375 1482.75390625 C97.0702025 1485.57768155 95.08627792 1486.12083797 91.04296875 1486.046875 C90.10839844 1486.03720703 89.17382812 1486.02753906 88.2109375 1486.01757812 C87.24285156 1485.99244141 86.27476562 1485.96730469 85.27734375 1485.94140625 C84.29378906 1485.92787109 83.31023437 1485.91433594 82.296875 1485.90039062 C79.8731396 1485.86509351 77.4505223 1485.81578679 75.02734375 1485.75390625 C75.02734375 1483.77390625 75.02734375 1481.79390625 75.02734375 1479.75390625 C74.12025162 1479.74359879 73.21315948 1479.73329132 72.27857971 1479.72267151 C63.70181152 1479.62441879 55.12510758 1479.52186666 46.54844761 1479.41456699 C42.13982545 1479.35956168 37.73119645 1479.3061794 33.32250977 1479.2565918 C29.06252147 1479.20861556 24.80260675 1479.15626429 20.54270744 1479.1009655 C18.92296129 1479.08069153 17.30319508 1479.06195535 15.68341255 1479.04483223 C7.74695578 1478.95999102 -0.09703187 1478.85547442 -7.97265625 1477.75390625 C-8.30265625 1478.74390625 -8.63265625 1479.73390625 -8.97265625 1480.75390625 C-13.28955701 1484.31931558 -17.33315642 1484.17936214 -22.66015625 1484.06640625 C-23.43166016 1484.06962891 -24.20316406 1484.07285156 -24.99804688 1484.07617188 C-30.70521936 1484.02134314 -30.70521936 1484.02134314 -32.97265625 1481.75390625 C-33.37029888 1479.76569312 -33.71040974 1477.76446286 -33.97265625 1475.75390625 C-34.66488281 1475.64433594 -35.35710937 1475.53476563 -36.0703125 1475.421875 C-44.41700007 1474.06924974 -52.69042173 1472.45108545 -60.97265625 1470.75390625 C-61.30265625 1473.39390625 -61.63265625 1476.03390625 -61.97265625 1478.75390625 C-66.89584621 1478.26158725 -70.95250907 1477.74564368 -74.97265625 1474.75390625 C-75.67876981 1472.48487059 -76.04312178 1470.26492379 -76.40625 1467.91796875 C-77.25345935 1464.68104477 -79.19632742 1463.43431581 -81.97265625 1461.75390625 C-81.39920688 1458.88665939 -81.11120475 1457.89245475 -78.97265625 1455.75390625 C-79.26248894 1452.44707159 -79.26248894 1452.44707159 -80.97265625 1449.75390625 C-81.45182586 1441.29600552 -81.04795224 1432.85706588 -80.16015625 1424.44140625 C-80.05513794 1423.38675171 -80.05513794 1423.38675171 -79.94799805 1422.31079102 C-79.47415997 1418.23238213 -78.62682468 1414.49832988 -77.42578125 1410.5703125 C-75.2574254 1402.95096017 -75.53750026 1395.29344529 -75.53320312 1387.4296875 C-75.42278486 1380.65990579 -75.10802604 1376.22203795 -70.97265625 1370.75390625 C-69.34639221 1369.37158182 -67.68015605 1368.0345311 -65.97265625 1366.75390625 C-61.51026666 1362.383611 -61.20449884 1358.44066648 -60.78515625 1352.50390625 C-60.06356534 1343.84481534 -60.06356534 1343.84481534 -58.97265625 1342.75390625 C-58.87334817 1340.87737499 -58.84466152 1338.99707656 -58.84326172 1337.11791992 C-58.83853348 1335.30157295 -58.83853348 1335.30157295 -58.83370972 1333.4485321 C-58.83550489 1332.10631271 -58.83755715 1330.76409364 -58.83984375 1329.421875 C-58.83916881 1328.03306562 -58.8381972 1326.64425636 -58.83694458 1325.25544739 C-58.83546338 1322.3188059 -58.83762686 1319.38219463 -58.84228516 1316.44555664 C-58.84784226 1312.77151676 -58.84468229 1309.09755139 -58.83887005 1305.42351437 C-58.81934866 1291.09787802 -58.89975345 1276.77714868 -59.328125 1262.45703125 C-59.35482269 1261.36613693 -59.38152039 1260.27524261 -59.4090271 1259.15129089 C-59.75277442 1249.37986072 -61.53913656 1240.01968725 -63.71875 1230.5078125 C-64.64470856 1226.4595732 -65.34212593 1222.4356233 -65.92578125 1218.32421875 C-66.8965259 1211.75036132 -68.49282887 1205.45876539 -70.28515625 1199.06640625 C-70.59348389 1197.94008789 -70.90181152 1196.81376953 -71.21948242 1195.65332031 C-72.60309518 1190.61299105 -74.01558326 1185.58207685 -75.47265625 1180.5625 C-75.69655029 1179.78285889 -75.92044434 1179.00321777 -76.15112305 1178.19995117 C-76.54993905 1176.81860733 -76.95654153 1175.43946412 -77.37426758 1174.0637207 C-80.73318 1162.45738639 -81.2793766 1150.67051852 -81.1784668 1138.67797852 C-81.16025788 1136.45382034 -81.15795798 1134.23008441 -81.15820312 1132.00585938 C-81.15094182 1128.31056921 -81.10028029 1124.61788026 -81.01919556 1120.92349243 C-80.98873576 1119.5035067 -80.96422925 1118.08337772 -80.94638062 1116.66317749 C-80.75501425 1104.17703056 -78.10585227 1092.72194075 -74.91015625 1080.69140625 C-74.43149441 1078.84217115 -73.95427258 1076.9925627 -73.47851562 1075.14257812 C-72.32638809 1070.67522564 -71.1551135 1066.21332215 -69.97265625 1061.75390625 C-72.28265625 1061.42390625 -74.59265625 1061.09390625 -76.97265625 1060.75390625 C-78.20251966 1055.94625838 -77.82304725 1052.67539748 -76.53515625 1047.87890625 C-75.20173412 1042.54521775 -74.63618056 1037.59691176 -74.59765625 1032.12890625 C-74.58420166 1031.46133301 -74.57074707 1030.79375977 -74.55688477 1030.10595703 C-74.6002863 1025.05793018 -75.75853898 1020.68691959 -77.16601562 1015.859375 C-78.89164548 1009.21590897 -79.71571439 1002.35717605 -80.69946289 995.57055664 C-81.98969376 986.75560401 -83.39708916 979.82722904 -88.5859375 972.46484375 C-90.8460364 968.04650956 -91.30960444 963.23620212 -92.16015625 958.37890625 C-94.5129771 946.20863854 -97.45996497 935.15404073 -107.390625 927.08984375 C-112.74041241 922.49866564 -114.95467276 917.32810211 -117.53515625 910.87890625 C-120.03608166 904.73289171 -122.34609554 899.21015612 -126.7109375 894.15234375 C-132.74369437 887.0326229 -136.47698821 878.56212571 -140.59765625 870.25390625 C-142.23020801 866.99072488 -143.86956729 863.73101579 -145.51171875 860.47265625 C-145.8999884 859.69913315 -146.28825806 858.92561005 -146.68829346 858.12864685 C-149.20448114 853.15311491 -151.88437815 848.33879429 -154.89208984 843.63891602 C-155.97265625 841.75390625 -155.97265625 841.75390625 -156.97265625 838.19140625 C-160.7675009 825.14662775 -173.46749548 814.32827072 -184.24609375 806.7890625 C-192.19908714 800.85280239 -198.06906671 792.96317507 -203.28515625 784.62890625 C-207.16285588 778.46408076 -207.16285588 778.46408076 -211.33203125 772.49609375 C-216.62130452 765.31243538 -220.32696041 758.02077948 -224.01831055 749.92407227 C-227.414219 742.6077375 -231.42282064 735.8732039 -235.86254883 729.14599609 C-240.72326644 721.77490617 -244.31140634 714.77747106 -246.47265625 706.19140625 C-246.67914795 705.37188477 -246.88563965 704.55236328 -247.09838867 703.70800781 C-247.74609616 701.06148249 -248.36450912 698.40978749 -248.97265625 695.75390625 C-249.17455566 694.88846191 -249.37645508 694.02301758 -249.58447266 693.13134766 C-253.75670429 674.63183005 -254.71796873 654.76156988 -252.21818542 635.9236908 C-251.75590847 631.83846799 -251.63510105 627.73506785 -251.47265625 623.62890625 C-251.43205078 622.68257324 -251.39144531 621.73624023 -251.34960938 620.76123047 C-251.2208607 617.75891038 -251.09623334 614.75644337 -250.97265625 611.75390625 C-250.80973396 607.79540363 -250.64249606 603.83711746 -250.47265625 599.87890625 C-250.43720703 598.98284668 -250.40175781 598.08678711 -250.36523438 597.16357422 C-250.32849609 596.30908691 -250.29175781 595.45459961 -250.25390625 594.57421875 C-250.22361328 593.83445801 -250.19332031 593.09469727 -250.16210938 592.33251953 C-250.00520995 590.196989 -249.74498986 588.06933702 -249.45820618 585.94734192 C-248.93859631 581.90456625 -248.8639904 577.91017559 -248.92260742 573.83862305 C-248.92888657 573.09078552 -248.93516571 572.342948 -248.94163513 571.57244873 C-248.95540068 569.95909939 -248.97131577 568.3457672 -248.98918724 566.73245811 C-249.0161863 564.14942518 -249.03383725 561.56648282 -249.04866028 558.98335266 C-249.09099208 551.64148959 -249.1376327 544.29979496 -249.21948242 536.95825195 C-249.60688871 501.06364267 -249.60688871 501.06364267 -246.54011536 483.4728241 C-245.07148732 475.0056153 -244.29512907 466.57359652 -243.77734375 458.00390625 C-243.73665331 457.33687494 -243.69596287 456.66984364 -243.65403938 455.98259926 C-243.4096469 451.92344603 -243.18202912 447.86348804 -242.96032715 443.80303955 C-242.62374123 437.68158824 -242.26384576 431.56142919 -241.90234375 425.44140625 C-241.78800491 423.50266884 -241.78800491 423.50266884 -241.6713562 421.52476501 C-240.79604871 407.15591611 -239.33191569 392.91653145 -237.09765625 378.69140625 C-236.92403564 377.58563232 -236.75041504 376.4798584 -236.5715332 375.34057617 C-234.30649448 361.25393904 -231.10151668 347.81382388 -226.82324219 334.20556641 C-224.22719882 325.85409215 -222.0435112 317.4191169 -219.91015625 308.94140625 C-217.69668347 300.1596494 -215.3829284 291.49637962 -212.32739258 282.96533203 C-209.83387015 275.79427686 -208.05013043 268.44247095 -206.17834473 261.09185791 C-202.96071114 248.48342847 -199.40789021 236.5469363 -193.86621094 224.72851562 C-192.67864309 222.10418536 -191.66000285 219.42805131 -190.6394043 216.73535156 C-186.89232837 206.87528569 -181.94312408 198.30335531 -175.58740234 189.92895508 C-172.20238925 185.36937212 -169.08388752 180.61988714 -165.91601562 175.90820312 C-157.70662037 163.79614217 -150.73454664 155.85731027 -137.47265625 149.50390625 C-136.76061035 149.16222412 -136.04856445 148.82054199 -135.31494141 148.46850586 C-126.73915763 144.50992091 -116.36291745 141.14425541 -107.04785156 144.43359375 C-103.72226129 145.84611919 -100.520845 147.45180859 -97.3203125 149.125 C-94.37961601 150.55588732 -92.14498651 151.20247593 -88.97265625 151.75390625 C-88.00345788 141.01121468 -87.5837789 130.26029913 -87.15670776 119.48547363 C-86.00038018 90.52705952 -86.00038018 90.52705952 -84.64379883 76.81079102 C-84.16675411 71.83103302 -83.9059142 66.90602395 -83.8359375 61.90234375 C-83.81474854 60.73219727 -83.79355957 59.56205078 -83.77172852 58.35644531 C-83.74019263 56.12163365 -83.73219189 53.88629822 -83.75366211 51.65136719 C-83.6355893 43.85979802 -81.56774532 39.00132418 -76.97265625 32.75390625 C-76.28945313 31.8103125 -75.60625 30.86671875 -74.90234375 29.89453125 C-59.10909444 12.37489436 -24.07149845 -10.18977542 0 0 Z " fill="#000000" transform="translate(428.97265625,214.24609375)"/>
<path d="M0 0 C4.96555351 9.59120306 8.01618333 18.02177096 6 29 C2.75779653 38.77531303 -3.06269202 47.47520828 -10 55 C-10.78761719 55.87914062 -11.57523438 56.75828125 -12.38671875 57.6640625 C-18.14697965 63.77734388 -24.23966573 68.54125471 -31.25390625 73.12084961 C-38.31573782 77.73527537 -43.9628548 82.53796683 -48.9375 89.375 C-59.72888974 103.8557361 -59.72888974 103.8557361 -67 107 C-69.6875 107.375 -69.6875 107.375 -72 107 C-74.66189787 103.0071532 -74.68819177 99.70612885 -75 95 C-75.06574219 94.15308594 -75.13148438 93.30617188 -75.19921875 92.43359375 C-75.39222456 88.07432453 -75.37762192 85.07725394 -72.9375 81.375 C-70.32309497 76.82087511 -70.8588926 75.05347564 -72 70 C-72.350625 69.21625 -72.70125 68.4325 -73.0625 67.625 C-74.57866588 63.37973554 -74.87958606 59.43283449 -74 55 C-72.15813894 52.05424208 -69.71043959 50.13707737 -67 48 C-66.20078125 47.32582031 -65.4015625 46.65164063 -64.578125 45.95703125 C-60.7109153 42.72482196 -56.79520761 39.57414814 -52.7421875 36.578125 C-45.74518788 31.34901112 -39.71150923 25.76753189 -33.8125 19.3125 C-18.57616567 2.71762734 -18.57616567 2.71762734 -6.99609375 1.25390625 C-4.28878728 0.90953263 -2.86086252 0 0 0 Z " fill="#FCFCFC" transform="translate(570,520)"/>
<path d="M0 0 C0.66 0.66 1.32 1.32 2 2 C1.34926514 2.08564209 0.69853027 2.17128418 0.02807617 2.25952148 C-2.91919374 2.64914094 -5.86584371 3.04326783 -8.8125 3.4375 C-9.83666016 3.57220703 -10.86082031 3.70691406 -11.91601562 3.84570312 C-12.89892578 3.97783203 -13.88183594 4.10996094 -14.89453125 4.24609375 C-15.80050049 4.36654053 -16.70646973 4.4869873 -17.63989258 4.61108398 C-20.1418344 4.95962872 -20.1418344 4.95962872 -23 6 C-25.57265818 6.07029121 -28.11641431 6.09370832 -30.6875 6.0625 C-31.38939453 6.05798828 -32.09128906 6.05347656 -32.81445312 6.04882812 C-34.54300538 6.03706927 -36.27151365 6.01913454 -38 6 C-38.66 4.35 -39.32 2.7 -40 1 C-39.19369141 0.97494385 -38.38738281 0.9498877 -37.55664062 0.92407227 C-33.87096125 0.8073732 -30.18549148 0.68498409 -26.5 0.5625 C-25.2315625 0.52318359 -23.963125 0.48386719 -22.65625 0.44335938 C-0.7083105 -0.29966983 -0.7083105 -0.29966983 0 0 Z " fill="#EBEBEB" transform="translate(484,755)"/>
</svg>
