<?xml version="1.0" encoding="UTF-8"?>
<svg version="1.1" xmlns="http://www.w3.org/2000/svg" width="1000" height="1895">
<path d="M0 0 C330 0 660 0 1000 0 C1000 625.35 1000 1250.7 1000 1895 C670 1895 340 1895 0 1895 C0 1269.65 0 644.3 0 0 Z " fill="#FEFEFE" transform="translate(0,0)"/>
<path d="M0 0 C0.65967773 0.34595215 1.31935547 0.6919043 1.99902344 1.04833984 C4.08997014 2.13985606 6.20414243 3.16975974 8.328125 4.1953125 C21.68963891 10.79041872 33.29122632 19.302222 43.1640625 30.55078125 C43.87949219 31.35322266 43.87949219 31.35322266 44.609375 32.171875 C49.45526389 38.75222139 49.53462754 44.55576735 49.6640625 52.48828125 C49.86737775 61.68733063 49.86737775 61.68733063 50.79833984 70.83398438 C51.47637706 77.25402035 51.42539043 83.75584981 51.59130859 90.20727539 C51.64355883 92.1877512 51.70063992 94.16809767 51.7578125 96.1484375 C51.78810547 97.31769775 51.81839844 98.48695801 51.84960938 99.69165039 C52.04462467 103.21373718 52.53108493 106.62415993 53.0390625 110.11328125 C53.16448544 112.08287395 53.25869885 114.05472365 53.3203125 116.02734375 C53.35713135 117.11289551 53.3939502 118.19844727 53.43188477 119.31689453 C53.46725342 120.44595215 53.50262207 121.57500977 53.5390625 122.73828125 C53.84313493 131.55331014 54.20341796 140.33012375 55.0390625 149.11328125 C62.75581699 146.47818108 62.75581699 146.47818108 70.0390625 142.86328125 C77.38469097 139.08595604 86.07049216 140.83681288 93.71875 142.93359375 C105.30369343 147.04965601 117.23809486 152.80308884 124.7265625 162.80078125 C125.140271 163.35185547 125.55397949 163.90292969 125.98022461 164.47070312 C130.61384216 170.73248779 134.88108127 177.24769661 139.1484375 183.76171875 C140.89417317 186.41722023 142.67429415 189.02799586 144.5546875 191.58984375 C149.96581204 199.00713352 153.74101819 206.39295327 157.13574219 214.86230469 C158.10968125 217.28925553 159.10876258 219.7050259 160.109375 222.12109375 C160.81648589 223.84709083 161.52223506 225.57364646 162.2265625 227.30078125 C162.54761963 228.08332275 162.86867676 228.86586426 163.19946289 229.67211914 C168.28586351 242.36906803 171.56146799 255.62755678 174.95117188 268.85351562 C176.56938204 275.04229178 178.3244813 281.0785361 180.5390625 287.08203125 C183.26209728 294.49308609 185.21512621 302.02318532 187.1015625 309.67578125 C189.22311088 318.21141094 191.46863931 326.66920909 194.10375977 335.0637207 C204.9929474 370.56798663 207.74812659 407.60442147 209.26757812 444.49829102 C209.70035549 454.92703975 210.43354698 465.22331273 211.76855469 475.5769043 C212.04680347 477.73584363 212.31325482 479.8960223 212.578125 482.05664062 C213.20905952 488.5169621 213.20905952 488.5169621 214.56300354 494.82917786 C215.25449773 498.14692703 215.15222737 501.43674646 215.12084961 504.80908203 C215.11778305 505.58054565 215.11471649 506.35200928 215.11155701 507.14685059 C215.10440889 508.82194176 215.09502249 510.49702454 215.08366203 512.17209244 C215.06619707 514.84055387 215.05594551 517.50895465 215.04774475 520.17745972 C215.02338227 527.76533765 214.98824569 535.35313542 214.94311523 542.94091797 C214.9159848 547.58804657 214.89916586 552.23512686 214.88824654 556.8823204 C214.88212261 558.6370101 214.87222966 560.39169157 214.85816765 562.1463356 C214.77531838 572.59338269 215.23400775 582.75300766 216.5667572 593.11976624 C217.37696327 599.53161014 217.51235112 605.9688164 217.6640625 612.42578125 C217.68959198 613.47004272 217.68959198 613.47004272 217.71563721 614.53540039 C217.82737521 619.20107997 217.91449201 623.86691779 217.99291992 628.53326416 C218.04126408 631.23638053 218.09922085 633.93918584 218.15820312 636.64208984 C218.62348581 658.9724451 219.01023779 680.4018805 213.0390625 702.11328125 C212.69728779 703.52068076 212.35608678 704.9282198 212.015625 706.3359375 C209.38948064 715.72489723 204.4092906 723.27036424 199.109375 731.328125 C196.20374085 735.77856092 193.62122174 740.34011825 191.1640625 745.05078125 C190.79627686 745.75485107 190.42849121 746.4589209 190.04956055 747.18432617 C188.48284999 750.21721162 186.96779845 753.26342536 185.50390625 756.34765625 C182.20480913 763.29505855 178.24063218 769.27929385 173.69921875 775.4453125 C170.47315557 779.83994596 167.49186891 784.39098916 164.52636719 788.96411133 C160.4803397 795.1359169 156.28482281 800.22345246 150.2265625 804.55078125 C138.54024446 813.14072443 125.77032157 823.49896172 121.8515625 838.11328125 C120.52559183 842.25693959 118.6024474 845.76119589 116.39453125 849.50390625 C113.52979864 854.42305672 110.81418962 859.38640877 108.2578125 864.47265625 C107.95046677 865.08105347 107.64312103 865.68945068 107.32646179 866.31628418 C106.08065241 868.78640342 104.83843252 871.25807772 103.61181641 873.73779297 C100.5106942 879.99060802 97.45787539 885.87724883 92.9140625 891.2421875 C87.8063339 897.28501191 85.20560589 904.18538742 82.26171875 911.45507812 C79.62872911 917.60783582 77.11356071 921.53041942 71.83203125 925.6706543 C68.09532227 928.6772193 66.1766002 932.90860379 64.0390625 937.11328125 C63.67039062 937.82613281 63.30171875 938.53898437 62.921875 939.2734375 C59.90926849 945.89416577 58.74867978 952.94452182 57.52099609 960.06982422 C56.68076903 964.74928429 55.7489016 968.12975279 53.0390625 972.11328125 C49.98020388 977.42072855 48.29939115 982.30012651 47.40625 988.33984375 C47.28347687 989.0911557 47.16070374 989.84246765 47.03421021 990.61654663 C46.64846857 992.98867425 46.28026173 995.36306564 45.9140625 997.73828125 C45.5378652 1000.12005926 45.15785299 1002.50112659 44.77249146 1004.88143921 C44.53498031 1006.35414288 44.30308567 1007.82776764 44.07785034 1009.30239868 C43.42462125 1013.41747773 42.37854209 1017.17682998 41.0390625 1021.11328125 C40.82518681 1023.84922346 40.70702065 1026.44426465 40.7265625 1029.17578125 C40.72712646 1029.91876465 40.72769043 1030.66174805 40.72827148 1031.42724609 C40.82496916 1037.31885205 41.9087645 1042.6580943 43.4375 1048.3515625 C44.22843842 1051.98268888 43.95199214 1054.54455628 43.0390625 1058.11328125 C40.7290625 1058.44328125 38.4190625 1058.77328125 36.0390625 1059.11328125 C36.30122559 1060.10432861 36.56338867 1061.09537598 36.83349609 1062.11645508 C37.82790185 1065.8908564 38.80357215 1069.66991524 39.77441406 1073.45043945 C40.1923841 1075.06791968 40.61503806 1076.68419872 41.04296875 1078.29907227 C45.70797154 1095.9303623 47.40344558 1113.11486778 47.35473633 1131.33032227 C47.35154918 1133.81114696 47.37527906 1136.29080299 47.40039062 1138.77148438 C47.45837045 1153.1810305 44.97892999 1166.38469111 41.2265625 1180.30078125 C40.84516113 1181.74481323 40.84516113 1181.74481323 40.45605469 1183.21801758 C38.90734995 1189.03421146 37.26698541 1194.8195986 35.57885742 1200.59667969 C33.52197759 1207.6390293 31.53190046 1214.53483162 30.53515625 1221.8203125 C30.12885184 1224.51727801 29.63285688 1227.14519964 29.07421875 1229.8125 C27.0943781 1239.43108123 25.72752363 1248.84149699 25.42578125 1258.6640625 C25.38796539 1259.76447372 25.35014954 1260.86488495 25.31118774 1261.99864197 C24.88458425 1275.87737594 24.88751497 1289.76133315 24.90869141 1303.64526367 C24.91451826 1307.48723936 24.91100826 1311.32914716 24.90511894 1315.17112064 C24.90152536 1318.15895616 24.90264409 1321.14677515 24.90524673 1324.13461113 C24.90591274 1325.55444789 24.90509899 1326.97428616 24.90276718 1328.39412117 C24.90024689 1330.35006814 24.90476462 1332.30602044 24.90966797 1334.26196289 C24.91046356 1335.37156876 24.91125916 1336.48117462 24.91207886 1337.62440491 C24.75737411 1340.05497892 24.75737411 1340.05497892 26.0390625 1341.11328125 C26.42084497 1344.84794541 26.76088213 1348.57949179 27.02539062 1352.32421875 C27.49507651 1357.42841581 28.23515819 1360.38657795 32.0390625 1364.11328125 C33.0496875 1364.91765625 34.0603125 1365.72203125 35.1015625 1366.55078125 C38.9671935 1369.92292744 40.79953487 1372.63801547 41.30444336 1377.85571289 C41.41705848 1381.21361998 41.45621323 1384.56607064 41.4765625 1387.92578125 C41.66760171 1397.58681504 42.5969011 1406.24410143 45.1171875 1415.54296875 C46.45862821 1420.73820946 46.88548837 1425.76489509 47.0390625 1431.11328125 C47.05952637 1431.78375488 47.07999023 1432.45422852 47.10107422 1433.14501953 C47.16034247 1435.34284318 47.19817989 1437.5398526 47.2265625 1439.73828125 C47.23977539 1440.43832275 47.25298828 1441.13836426 47.26660156 1441.85961914 C47.26919487 1443.61247963 47.16216931 1445.3647472 47.0390625 1447.11328125 C46.3790625 1447.77328125 45.7190625 1448.43328125 45.0390625 1449.11328125 C45.36877729 1452.41042918 45.6617464 1453.73596515 48.0390625 1456.11328125 C47.9140625 1458.05078125 47.9140625 1458.05078125 47.0390625 1460.11328125 C46.3996875 1460.50515625 45.7603125 1460.89703125 45.1015625 1461.30078125 C42.5954094 1463.50315821 42.72448956 1464.34016242 42.2890625 1467.55078125 C41.77698304 1470.38336495 41.5251925 1471.6965984 39.31640625 1473.58984375 C35.5790446 1475.53187467 32.30807396 1476.64690768 28.0390625 1476.11328125 C27.7090625 1473.47328125 27.3790625 1470.83328125 27.0390625 1468.11328125 C25.8634375 1468.40203125 24.6878125 1468.69078125 23.4765625 1468.98828125 C17.80157948 1470.2644736 12.0638478 1470.94358527 6.296875 1471.6484375 C3.03762334 1472.01428841 3.03762334 1472.01428841 0.0390625 1473.11328125 C-0.70353099 1475.4235721 -1.3723755 1477.75903325 -1.9609375 1480.11328125 C-4.04823239 1482.20057614 -8.28574625 1481.39008685 -11.1484375 1481.42578125 C-12.28249023 1481.46928711 -12.28249023 1481.46928711 -13.43945312 1481.51367188 C-18.87311588 1481.57493607 -21.80869148 1480.6827559 -25.9609375 1477.11328125 C-25.9609375 1476.45328125 -25.9609375 1475.79328125 -25.9609375 1475.11328125 C-27.12020752 1475.27404648 -28.27947754 1475.43481171 -29.47387695 1475.60044861 C-33.57576523 1476.11106433 -37.61792397 1476.26969832 -41.75390625 1476.31860352 C-42.48659225 1476.32850311 -43.21927826 1476.33840271 -43.97416687 1476.34860229 C-46.36555897 1476.37987144 -48.75697086 1476.40483592 -51.1484375 1476.4296875 C-52.81852701 1476.45028701 -54.48861166 1476.47128421 -56.15869141 1476.49266052 C-60.53155554 1476.54757196 -64.90446429 1476.59711622 -69.27740479 1476.64550781 C-73.74877848 1476.69595022 -78.22008825 1476.75151699 -82.69140625 1476.80664062 C-91.44786244 1476.91384328 -100.2043725 1477.01537065 -108.9609375 1477.11328125 C-108.9609375 1479.09328125 -108.9609375 1481.07328125 -108.9609375 1483.11328125 C-112.33547648 1483.25939438 -115.70919516 1483.34761592 -119.0859375 1483.42578125 C-120.03726562 1483.46767578 -120.98859375 1483.50957031 -121.96875 1483.55273438 C-126.58546358 1483.63288565 -129.93351495 1483.6859636 -133.640625 1480.71875 C-135.9609375 1478.11328125 -135.9609375 1478.11328125 -135.9609375 1476.11328125 C-142.2309375 1476.44328125 -148.5009375 1476.77328125 -154.9609375 1477.11328125 C-153.9709375 1478.43328125 -152.9809375 1479.75328125 -151.9609375 1481.11328125 C-152.2734375 1483.36328125 -152.2734375 1483.36328125 -152.9609375 1485.11328125 C-160.22736835 1485.33724658 -167.36730133 1485.12468323 -174.5859375 1484.30078125 C-175.27236328 1484.23068848 -175.95878906 1484.1605957 -176.66601562 1484.08837891 C-179.48213869 1483.73671449 -181.58131744 1483.38173767 -183.921875 1481.7265625 C-184.9609375 1480.11328125 -184.9609375 1480.11328125 -184.9609375 1477.11328125 C-185.90453125 1477.09201172 -185.90453125 1477.09201172 -186.8671875 1477.0703125 C-194.2787487 1476.65731888 -199.52296287 1474.92494877 -204.578125 1469.3203125 C-206.13278721 1467.30247373 -207.55592902 1465.23783585 -208.9609375 1463.11328125 C-209.51136719 1462.31792969 -210.06179688 1461.52257813 -210.62890625 1460.703125 C-214.82604664 1454.57191042 -216.16980121 1450.67981962 -215.7734375 1443.17578125 C-215.74540039 1442.10166992 -215.74540039 1442.10166992 -215.71679688 1441.00585938 C-215.54141883 1437.68598378 -215.1597945 1435.42191887 -213.34765625 1432.609375 C-210.1123725 1430.58136571 -207.7558584 1431.06623678 -203.9609375 1431.11328125 C-201.01784697 1430.29147069 -198.26276794 1429.07447402 -195.4609375 1427.86328125 C-193.70408802 1427.13179733 -191.94619933 1426.40280633 -190.1875 1425.67578125 C-189.21329102 1425.27101563 -188.23908203 1424.86625 -187.23535156 1424.44921875 C-180.80609767 1421.82612918 -174.31649416 1419.3562466 -167.8359375 1416.86328125 C-166.50709806 1416.35140153 -165.1783208 1415.83936037 -163.84960938 1415.32714844 C-163.21067749 1415.08088715 -162.57174561 1414.83462585 -161.91345215 1414.5809021 C-160.05310799 1413.8621382 -158.19450292 1413.13887824 -156.3359375 1412.41552734 C-154.27016208 1411.61844646 -152.19841926 1410.83637087 -150.1171875 1410.08056641 C-144.10374234 1407.84518381 -139.30594479 1404.86370253 -134.2109375 1400.98828125 C-132.64374867 1399.82221813 -131.07603436 1398.65686094 -129.5078125 1397.4921875 C-128.74146484 1396.91871582 -127.97511719 1396.34524414 -127.18554688 1395.75439453 C-124.56855084 1393.82381427 -121.89969265 1391.98013878 -119.21704102 1390.14257812 C-116.41243678 1388.19927943 -113.68624212 1386.16668687 -110.9609375 1384.11328125 C-110.07019531 1383.45457031 -109.17945313 1382.79585937 -108.26171875 1382.1171875 C-98.05394254 1373.3836898 -93.81396213 1359.54190925 -88.85620117 1347.40991211 C-88.51564697 1346.5978833 -88.17509277 1345.78585449 -87.82421875 1344.94921875 C-87.53329346 1344.23685059 -87.24236816 1343.52448242 -86.94262695 1342.79052734 C-85.9609375 1341.11328125 -85.9609375 1341.11328125 -83.0234375 1339.80078125 C-79.18778422 1340.19217444 -77.89005328 1341.69676074 -74.9609375 1344.11328125 C-71.91753623 1344.94678076 -71.91753623 1344.94678076 -68.9609375 1344.11328125 C-66.53671564 1341.22818212 -66.53671564 1341.22818212 -64.9609375 1338.11328125 C-66.2809375 1337.45328125 -67.6009375 1336.79328125 -68.9609375 1336.11328125 C-68.9609375 1334.79328125 -68.9609375 1333.47328125 -68.9609375 1332.11328125 C-66.9809375 1332.11328125 -65.0009375 1332.11328125 -62.9609375 1332.11328125 C-62.61819344 1330.44852439 -62.28729448 1328.78132802 -61.9609375 1327.11328125 C-61.78618896 1326.30286377 -61.61144043 1325.49244629 -61.43139648 1324.6574707 C-60.76118469 1319.60844914 -60.83935039 1314.61866363 -60.87109375 1309.53125 C-60.87488541 1308.39125046 -60.87867706 1307.25125092 -60.88258362 1306.07670593 C-60.9373018 1294.06655088 -61.11444855 1282.05820739 -61.33325195 1270.05004883 C-61.3990892 1266.38954726 -61.45846924 1262.72897509 -61.51757812 1259.06835938 C-61.71832023 1247.39072672 -61.96303013 1235.75390134 -62.9609375 1224.11328125 C-63.7240625 1224.09265625 -64.4871875 1224.07203125 -65.2734375 1224.05078125 C-67.9609375 1223.11328125 -67.9609375 1223.11328125 -69.63916016 1220.14233398 C-76.02904044 1202.41242481 -75.56010897 1183.19590898 -75.58258057 1164.62231445 C-75.59254713 1158.47203786 -75.63406945 1152.32191271 -75.6875 1146.171875 C-75.69882965 1144.86622589 -75.7101593 1143.56057678 -75.72183228 1142.21536255 C-75.78178234 1115.73030395 -75.78178234 1115.73030395 -83.0234375 1090.61328125 C-87.85786979 1080.62953028 -87.22147935 1068.55756348 -86.71191406 1057.72729492 C-86.42309195 1052.98135539 -86.42309195 1052.98135539 -88.75390625 1049.0859375 C-91.1084487 1047.96833304 -91.1084487 1047.96833304 -94.3984375 1047.30078125 C-98.88368413 1045.80569904 -100.34476549 1044.00016538 -102.9609375 1040.11328125 C-110.74823226 1020.3836334 -100.91303317 991.92268601 -94.4296875 972.74511719 C-90.98794594 962.48490318 -89.17325388 952.03703564 -87.31005859 941.39599609 C-84.58003827 925.83159881 -81.87166991 910.84218741 -75.9609375 896.11328125 C-69.06600615 877.29406138 -66.88541139 859.53593514 -66.44335938 839.6328125 C-66.253393 833.07359618 -65.67276572 826.8344714 -64.51879883 820.37988281 C-61.79298837 804.41868196 -61.71571007 788.64412625 -61.8359375 772.48828125 C-61.84599554 770.11328506 -61.85511636 767.7382847 -61.86328125 765.36328125 C-61.88505201 759.61318861 -61.91830213 753.86325513 -61.9609375 748.11328125 C-62.84604004 748.32210937 -63.73114258 748.5309375 -64.64306641 748.74609375 C-68.37103284 749.15866634 -69.76221131 748.67706735 -73.046875 746.98828125 C-79.11112793 744.02071172 -85.2856882 741.5341083 -91.5859375 739.11328125 C-93.3026062 738.45102539 -93.3026062 738.45102539 -95.05395508 737.77539062 C-101.19519004 735.4391688 -107.30245192 733.31130363 -113.6484375 731.61328125 C-120.44277048 729.79265413 -126.68186947 727.13364384 -133.0859375 724.23828125 C-141.65198481 720.37097847 -150.16384189 717.37538133 -159.19384766 714.79736328 C-166.48622487 712.67273467 -173.44614584 710.01861076 -180.4609375 707.11328125 C-189.56993455 703.34409008 -198.69584554 700.15196081 -208.17578125 697.4453125 C-213.50523922 695.91701205 -218.59192664 694.11798473 -223.71801758 692.00537109 C-226.46185101 690.91404995 -229.22689977 690.09636785 -232.0859375 689.36328125 C-233.01664063 689.1209375 -233.94734375 688.87859375 -234.90625 688.62890625 C-235.58429688 688.45875 -236.26234375 688.28859375 -236.9609375 688.11328125 C-237.46390411 698.64763737 -236.67863416 708.40288965 -234.55957031 718.74462891 C-231.8251313 732.15652153 -230.63953792 745.31936699 -230.625 758.99609375 C-230.61853728 760.4675203 -230.61180669 761.93894568 -230.60482788 763.41036987 C-230.59297716 766.47087572 -230.58913419 769.53126978 -230.59033203 772.59179688 C-230.59049422 775.67895018 -230.57664178 778.76550778 -230.54931641 781.85253906 C-230.40104761 798.85173014 -230.63373358 815.15899089 -234.4710083 831.82626343 C-235.32407172 835.8084128 -235.87898876 839.83432141 -236.4609375 843.86328125 C-238.22944328 855.38208503 -240.29285454 866.94294182 -244.33105469 877.90356445 C-245.03415922 880.37015326 -245.19832832 882.6084059 -245.33984375 885.16796875 C-245.83777454 891.18658862 -247.35236405 896.57568938 -249.2109375 902.30078125 C-249.68019653 903.79472412 -249.68019653 903.79472412 -250.15893555 905.31884766 C-251.08250578 908.25376436 -252.01992249 911.1839184 -252.9609375 914.11328125 C-256.94063557 926.48328835 -256.94063557 926.48328835 -259.9609375 939.11328125 C-258.6409375 939.77328125 -257.3209375 940.43328125 -255.9609375 941.11328125 C-256.06535156 942.20640625 -256.16976562 943.29953125 -256.27734375 944.42578125 C-257.08340084 957.0318493 -254.08156193 966.50352337 -249.3515625 978.08984375 C-246.05619209 986.17209109 -243.77611133 994.49662009 -241.546875 1002.92333984 C-241.03302907 1004.84383901 -240.48416439 1006.75489775 -239.9296875 1008.6640625 C-236.37950334 1021.33624763 -237.27842691 1033.72065321 -242.9609375 1045.67578125 C-245.76136553 1050.48901693 -247.56807995 1052.31931311 -252.9609375 1053.80078125 C-258.68529723 1055.26817386 -264.08446443 1055.42017636 -269.9609375 1055.11328125 C-270.2909375 1057.42328125 -270.6209375 1059.73328125 -270.9609375 1062.11328125 C-275.25334918 1063.58879776 -278.16220523 1062.67375934 -282.2890625 1061.29296875 C-283.9609375 1060.11328125 -283.9609375 1060.11328125 -284.9609375 1055.11328125 C-292.5509375 1055.11328125 -300.1409375 1055.11328125 -307.9609375 1055.11328125 C-307.9609375 1057.42328125 -307.9609375 1059.73328125 -307.9609375 1062.11328125 C-309.9609375 1064.11328125 -309.9609375 1064.11328125 -312.78125 1064.30859375 C-314.41707031 1064.27378906 -314.41707031 1064.27378906 -316.0859375 1064.23828125 C-317.18164062 1064.22023438 -318.27734375 1064.2021875 -319.40625 1064.18359375 C-320.67082031 1064.14878906 -320.67082031 1064.14878906 -321.9609375 1064.11328125 C-322.6209375 1061.80328125 -323.2809375 1059.49328125 -323.9609375 1057.11328125 C-324.67378906 1057.12488281 -325.38664063 1057.13648438 -326.12109375 1057.1484375 C-331.52419116 1057.19934151 -336.63922225 1057.05936396 -341.9609375 1056.11328125 C-341.9196875 1057.22703125 -341.8784375 1058.34078125 -341.8359375 1059.48828125 C-341.9609375 1063.11328125 -341.9609375 1063.11328125 -343.9609375 1065.11328125 C-346.52734375 1065.34375 -346.52734375 1065.34375 -349.5234375 1065.30078125 C-350.51472656 1065.29433594 -351.50601563 1065.28789063 -352.52734375 1065.28125 C-354.9609375 1065.11328125 -354.9609375 1065.11328125 -355.9609375 1064.11328125 C-356.03273714 1062.59400087 -356.04485757 1061.07160643 -356.0234375 1059.55078125 C-356.01441406 1058.72449219 -356.00539063 1057.89820313 -355.99609375 1057.046875 C-355.98449219 1056.40878906 -355.97289062 1055.77070312 -355.9609375 1055.11328125 C-357.26724121 1055.14357422 -358.57354492 1055.17386719 -359.91943359 1055.20507812 C-403.83238062 1056.21226976 -403.83238062 1056.21226976 -424.3359375 1056.23828125 C-425.01533386 1056.24077881 -425.69473022 1056.24327637 -426.39471436 1056.24584961 C-434.30969377 1056.27008334 -442.09354507 1056.00458068 -449.9609375 1055.11328125 C-449.9609375 1056.76328125 -449.9609375 1058.41328125 -449.9609375 1060.11328125 C-451.61708407 1060.49546892 -453.28550774 1060.82723227 -454.9609375 1061.11328125 C-455.2909375 1060.78328125 -455.6209375 1060.45328125 -455.9609375 1060.11328125 C-455.9609375 1058.46328125 -455.9609375 1056.81328125 -455.9609375 1055.11328125 C-461.2409375 1055.11328125 -466.5209375 1055.11328125 -471.9609375 1055.11328125 C-471.9609375 1056.10328125 -471.9609375 1057.09328125 -471.9609375 1058.11328125 C-473.2809375 1058.11328125 -474.6009375 1058.11328125 -475.9609375 1058.11328125 C-476.2909375 1057.45328125 -476.6209375 1056.79328125 -476.9609375 1056.11328125 C-478.0746875 1055.86578125 -479.1884375 1055.61828125 -480.3359375 1055.36328125 C-483.9609375 1054.11328125 -483.9609375 1054.11328125 -485.8359375 1051.23828125 C-488.98620753 1042.48753116 -490.43897404 1030.04081052 -486.78515625 1021.30078125 C-484.99800956 1019.18520904 -483.22436367 1017.70868234 -480.9609375 1016.11328125 C-480.1153125 1015.44554687 -479.2696875 1014.7778125 -478.3984375 1014.08984375 C-475.64821619 1011.98811213 -472.83871421 1010.03581269 -469.9609375 1008.11328125 C-468.80658203 1007.32630859 -468.80658203 1007.32630859 -467.62890625 1006.5234375 C-461.79035495 1002.77363538 -455.62681608 1000.25839381 -449.20068359 997.72070312 C-445.20033661 996.11808789 -441.57971205 994.42405291 -437.9609375 992.05078125 C-433.84283401 989.40044775 -429.58961027 987.86966022 -424.9609375 986.36328125 C-416.73838277 983.6671208 -409.56072421 979.7750221 -402.09375 975.44921875 C-397.84587306 972.99874545 -393.47340106 970.99256816 -388.9296875 969.1484375 C-386.63469032 968.14207534 -386.63469032 968.14207534 -384.9609375 965.11328125 C-384.57593859 963.45778594 -384.23300615 961.79103795 -383.9609375 960.11328125 C-394.08900151 960.84986772 -401.18024778 965.00416646 -409.3828125 970.8203125 C-411.9609375 972.11328125 -411.9609375 972.11328125 -414.7265625 971.875 C-416.9609375 971.11328125 -416.9609375 971.11328125 -417.9609375 970.11328125 C-418.39097794 966.41493348 -418.08307618 964.36773684 -416.4609375 960.98828125 C-413.35845226 957.42042322 -410.21395402 955.92360315 -405.9609375 954.11328125 C-404.67086866 953.52694874 -403.38190195 952.93818819 -402.09375 952.34765625 C-400.67499958 951.70587955 -399.25572203 951.06526696 -397.8359375 950.42578125 C-397.15499023 950.11584229 -396.47404297 949.80590332 -395.77246094 949.48657227 C-391.83602367 947.75061301 -388.27788933 946.61759805 -383.9609375 946.11328125 C-384.9096875 945.49453125 -385.8584375 944.87578125 -386.8359375 944.23828125 C-389.9609375 942.11328125 -389.9609375 942.11328125 -391.9609375 940.11328125 C-391.5859375 937.98828125 -391.5859375 937.98828125 -390.9609375 936.11328125 C-385.10336146 935.64053867 -382.26381046 936.70447373 -377.5234375 940.11328125 C-376.47285156 940.85578125 -375.42226563 941.59828125 -374.33984375 942.36328125 C-373.55480469 942.94078125 -372.76976562 943.51828125 -371.9609375 944.11328125 C-367.53870384 942.08565959 -365.44821727 939.21951877 -362.65625 935.265625 C-358.87437264 930.28785669 -358.87437264 930.28785669 -355.9375 929.7265625 C-355.24398437 929.70980469 -354.55046875 929.69304688 -353.8359375 929.67578125 C-350.05199518 929.55868221 -350.05199518 929.55868221 -348.6328125 927.57421875 C-344.96922078 920.49309743 -343.6493173 912.97932928 -343.6953125 905.07421875 C-343.69244232 903.93274887 -343.69244232 903.93274887 -343.68951416 902.76821899 C-343.68815914 901.1529304 -343.69180766 899.53763067 -343.70019531 897.92236328 C-343.7105753 895.5703536 -343.70045308 893.21916822 -343.6875 890.8671875 C-343.65746258 864.31891641 -346.49642883 837.78122194 -348.93774414 811.36816406 C-349.32575043 807.16767247 -349.70408549 802.96636866 -350.08010769 798.76478958 C-350.37833126 795.44900478 -350.68279533 792.13381332 -350.98890877 788.81874847 C-351.13093266 787.27081365 -351.27090439 785.72268872 -351.40850639 784.17435455 C-352.21192602 775.16735526 -353.30722574 766.28855709 -354.93386745 757.38936234 C-355.82449405 752.42258293 -356.28704732 747.52710814 -356.5234375 742.48828125 C-356.80185792 737.04302031 -357.35183253 732.2960961 -358.9609375 727.11328125 C-361.73373769 717.6725568 -363.62723585 709.00753511 -363.9609375 699.11328125 C-364.7240625 698.88640625 -365.4871875 698.65953125 -366.2734375 698.42578125 C-370.33717663 696.44116446 -371.33936461 693.53646882 -373.09375 689.51953125 C-376.62793549 679.16742886 -376.78031711 668.96088512 -376.9609375 658.11328125 C-377.00085093 656.68488316 -377.04118205 655.25649664 -377.08203125 653.828125 C-377.31819401 642.58324868 -376.27073036 631.45745273 -375.23876953 620.27001953 C-374.95915671 617.09304789 -374.71782474 613.9153312 -374.48828125 610.734375 C-373.24903369 593.74481833 -371.05540918 579.98124521 -362.890625 564.88330078 C-361.67627268 562.57131172 -360.64487631 560.18717549 -359.5859375 557.80078125 C-355.44321232 549.52932658 -348.53760179 541.78899452 -339.9609375 538.11328125 C-338.9709375 538.11328125 -337.9809375 538.11328125 -336.9609375 538.11328125 C-337.0021875 537.32953125 -337.0434375 536.54578125 -337.0859375 535.73828125 C-336.9609375 533.11328125 -336.9609375 533.11328125 -334.9609375 531.11328125 C-333 530.83984375 -333 530.83984375 -330.5859375 530.73828125 C-326.54509579 530.42169109 -323.24876467 529.60544861 -319.4609375 528.17578125 C-313.44638823 526.01210573 -307.60786778 525.32159744 -301.27929688 524.79711914 C-300.54775391 524.73387451 -299.81621094 524.67062988 -299.0625 524.60546875 C-298.41619629 524.5576123 -297.76989258 524.50975586 -297.10400391 524.46044922 C-294.80002142 524.15087755 -294.80002142 524.15087755 -292.07592773 523.10839844 C-288.90201318 522.09445724 -286.33970272 521.8021248 -283.01953125 521.69921875 C-281.82352295 521.66038574 -280.62751465 521.62155273 -279.39526367 521.58154297 C-278.07631104 521.5507666 -276.7573584 521.51999023 -275.3984375 521.48828125 C-274.70553619 521.46993225 -274.01263489 521.45158325 -273.29873657 521.43267822 C-250.88941355 520.84488242 -228.46371117 520.94098729 -206.04931641 521.09368896 C-203.13964765 521.11214754 -200.23001822 521.12447483 -197.3203125 521.13525391 C-193.17451708 521.15360437 -189.02992603 521.19863905 -184.88467407 521.2678833 C-183.43048439 521.28927632 -181.97615804 521.30315451 -180.52182007 521.30828857 C-171.19604495 521.35191436 -163.41422942 522.88113862 -154.68676758 525.86791992 C-149.67652533 527.54259692 -144.6369528 528.65413345 -139.4609375 529.67578125 C-138.45973877 529.87993652 -137.45854004 530.0840918 -136.42700195 530.29443359 C-128.06766597 531.96799389 -119.66951208 533.39555674 -111.2421875 534.68188477 C-106.54486888 535.41850229 -102.0193065 536.32112537 -97.4453125 537.62890625 C-92.01392152 539.17382234 -86.61771875 540.02635536 -81.0234375 540.73828125 C-79.20158052 540.97863852 -77.37995488 541.22075748 -75.55859375 541.46484375 C-74.76976807 541.56619629 -73.98094238 541.66754883 -73.16821289 541.77197266 C-70.9609375 542.11328125 -70.9609375 542.11328125 -68.93041992 542.64770508 C-66.83295817 543.14353495 -65.00403014 543.22724407 -62.8515625 543.2109375 C-62.09746094 543.20771484 -61.34335937 543.20449219 -60.56640625 543.20117188 C-59.78910156 543.19279297 -59.01179688 543.18441406 -58.2109375 543.17578125 C-57.02177734 543.16901367 -57.02177734 543.16901367 -55.80859375 543.16210938 C-53.85934242 543.1503669 -51.91013012 543.13243271 -49.9609375 543.11328125 C-49.6309375 541.79328125 -49.3009375 540.47328125 -48.9609375 539.11328125 C-49.5185376 539.11851807 -50.0761377 539.12375488 -50.65063477 539.12915039 C-89.90128024 539.44767129 -89.90128024 539.44767129 -98.94140625 530.61328125 C-100.69037857 528.79262701 -102.42558477 526.95867132 -104.1484375 525.11328125 C-110.03797765 518.96298861 -115.85920357 513.00601167 -122.7109375 507.92578125 C-131.61819951 501.26709099 -138.10222855 492.99672865 -144.88012695 484.2902832 C-150.92384578 476.55107956 -157.39401423 469.53734284 -164.6484375 462.92578125 C-172.04558318 456.16487003 -177.24267739 449.73063628 -182.28735352 441.0222168 C-186.737402 433.51721511 -192.32828665 426.90866229 -198.38574219 420.63842773 C-203.44727736 415.18632135 -206.51677562 408.78122847 -209.8359375 402.17578125 C-210.4533716 400.96426715 -211.07162281 399.75316916 -211.69067383 398.54248047 C-215.65384423 390.77470564 -219.56493679 382.97919845 -223.41015625 375.15234375 C-225.92724857 370.21960363 -227.65950053 366.9171578 -232.4609375 363.98828125 C-236.79427083 361.31605903 -236.79427083 361.31605903 -238.3671875 359.40234375 C-239.95989813 357.82578207 -239.95989813 357.82578207 -242.5859375 358.20703125 C-243.6996875 358.34109375 -244.8134375 358.47515625 -245.9609375 358.61328125 C-254.54127753 358.87456862 -261.51520599 355.97617924 -269.3359375 352.67578125 C-270.25874512 352.28712891 -270.25874512 352.28712891 -271.20019531 351.890625 C-281.59766711 347.47655164 -281.59766711 347.47655164 -282.9609375 346.11328125 C-282.67363695 343.77383389 -282.34156971 341.43936695 -281.9609375 339.11328125 C-280.6409375 338.78328125 -279.3209375 338.45328125 -277.9609375 338.11328125 C-278.40824219 337.62859375 -278.85554687 337.14390625 -279.31640625 336.64453125 C-286.46289523 328.72091874 -290.4109903 321.53608942 -293.84765625 311.3828125 C-295.81261893 305.61202737 -298.26443712 300.85201061 -301.5234375 295.7109375 C-304.24759673 290.78820411 -305.21294261 286.41923819 -305.19140625 280.81640625 C-305.1900769 279.02154785 -305.1900769 279.02154785 -305.1887207 277.19042969 C-305.17542725 275.9274707 -305.16213379 274.66451172 -305.1484375 273.36328125 C-305.1383667 272.05649414 -305.1282959 270.74970703 -305.11791992 269.40332031 C-305.07996622 265.63961699 -305.02302892 261.87665244 -304.9609375 258.11328125 C-304.94788574 256.77136719 -304.94788574 256.77136719 -304.93457031 255.40234375 C-304.80464179 244.7571657 -303.05761715 234.72802664 -300.83374023 224.32421875 C-299.21301465 216.70169783 -298.14965574 209.20441683 -297.515625 201.44140625 C-296.92535834 197.8998063 -296.25822682 195.87002844 -293.9609375 193.11328125 C-293.18621094 193.01015625 -292.41148437 192.90703125 -291.61328125 192.80078125 C-287.20276017 191.6575534 -285.77121779 187.86470556 -283.5234375 184.11328125 C-283.0375415 183.33742676 -282.55164551 182.56157227 -282.05102539 181.76220703 C-280.07825169 178.60986735 -278.15073163 175.43601873 -276.265625 172.23046875 C-270.16039487 162.21789133 -260.44914172 158.36369491 -250.1484375 153.74145508 C-243.34279852 150.56607167 -238.19706977 146.50129265 -232.671875 141.4921875 C-229.2805575 138.51623309 -226.09944273 136.78745917 -221.9609375 135.11328125 C-221.08308594 134.67242187 -220.20523437 134.2315625 -219.30078125 133.77734375 C-203.3772961 126.18274346 -186.08315022 131.02911787 -169.9609375 136.11328125 C-158.14090035 140.56742401 -143.18107238 146.39071936 -136.9609375 158.11328125 C-133.96515977 165.45293669 -134.31588436 173.7011178 -135.44921875 181.453125 C-135.93434279 184.92305803 -136.13129308 188.27831785 -136.2512207 191.77319336 C-136.57052456 200.82872431 -137.57663701 209.33520635 -139.9609375 218.11328125 C-140.23808594 219.16128906 -140.51523437 220.20929688 -140.80078125 221.2890625 C-142.73061855 227.80744 -145.39122522 232.66621451 -149.66796875 237.95703125 C-151.13115 240.00001726 -151.13115 240.00001726 -151.02734375 242.25 C-149.37397586 245.13885158 -147.19841743 245.41880245 -144.0859375 246.42578125 C-139.44697151 248.06632961 -135.57769681 249.82786614 -131.5234375 252.61328125 C-127.39902495 255.40509851 -123.50216864 257.11127552 -118.7734375 258.67578125 C-111.03812969 261.26829162 -106.11167622 264.79271993 -100.5859375 270.67578125 C-96.01118757 275.39576134 -90.33386385 277.60788007 -84.4140625 280.25 C-77.94497106 283.27359708 -73.0703312 287.13964439 -67.9609375 292.11328125 C-57.97825764 287.62644235 -54.78945891 276.81453432 -51.08203125 267.30859375 C-42.64662594 245.71768362 -42.64662594 245.71768362 -35.4609375 238.61328125 C-33.37807727 236.36314468 -32.94857253 235.57971527 -33.03125 232.4609375 C-33.53302868 229.94144312 -34.14753768 227.54858072 -34.9609375 225.11328125 C-35.79496094 224.97792969 -36.62898438 224.84257812 -37.48828125 224.703125 C-45.73977484 223.12466059 -50.78080061 220.71973455 -56.9609375 215.11328125 C-57.8271875 214.51515625 -58.6934375 213.91703125 -59.5859375 213.30078125 C-62.74609269 210.39011199 -64.94105043 207.0210299 -67.3125 203.453125 C-68.82846248 201.15051735 -68.82846248 201.15051735 -70.515625 199.59375 C-72.33305612 197.73211109 -73.30742079 195.81749769 -74.4609375 193.48828125 C-74.863125 192.69164062 -75.2653125 191.895 -75.6796875 191.07421875 C-77.03241112 187.94810747 -78.10168152 184.80346087 -79.15332031 181.56640625 C-79.98084698 179.05280652 -80.8574175 176.56150738 -81.75 174.0703125 C-82.05164063 173.22404297 -82.35328125 172.37777344 -82.6640625 171.50585938 C-83.2832445 169.77293686 -83.90568983 168.04117718 -84.53125 166.31054688 C-84.97984375 165.04694336 -84.97984375 165.04694336 -85.4375 163.7578125 C-85.840896 162.63403198 -85.840896 162.63403198 -86.25244141 161.48754883 C-88.0202392 155.56341598 -88.09419193 149.82192511 -88.1015625 143.69921875 C-88.11987426 141.86847698 -88.13944303 140.03774743 -88.16015625 138.20703125 C-88.18921433 135.33865375 -88.21094041 132.47107385 -88.21142578 129.60253906 C-88.21475345 126.82155632 -88.24923485 124.04238701 -88.2890625 121.26171875 C-88.27845795 119.97568253 -88.27845795 119.97568253 -88.26763916 118.66366577 C-88.31884015 113.56034391 -88.31884015 113.56034391 -91.50292969 109.66650391 C-92.31407227 109.15394043 -93.12521484 108.64137695 -93.9609375 108.11328125 C-93.9609375 107.45328125 -93.9609375 106.79328125 -93.9609375 106.11328125 C-95.08113281 106.27054687 -96.20132812 106.4278125 -97.35546875 106.58984375 C-102.12145645 107.17968852 -106.84914666 107.40494708 -111.6484375 107.48828125 C-112.47666016 107.52566406 -113.30488281 107.56304687 -114.15820312 107.6015625 C-118.58060947 107.66529614 -120.38493473 107.55414491 -124.0078125 104.78125 C-125.9609375 102.11328125 -125.9609375 102.11328125 -126.5234375 99.05078125 C-125.82553464 95.40617742 -124.77706198 94.4727369 -121.9609375 92.11328125 C-117.76038725 88.26277685 -114.59309336 83.98033447 -111.31640625 79.3203125 C-108.9609375 76.11328125 -108.9609375 76.11328125 -107.04394531 74.00878906 C-101.03807589 67.22761146 -99.09514265 61.02484891 -97.3359375 52.23828125 C-94.24856251 37.3963692 -89.49536111 27.04885013 -78.9609375 16.11328125 C-77.43798333 14.34427155 -75.91712454 12.57345561 -74.3984375 10.80078125 C-68.76948291 4.5310525 -62.94463129 0.31399685 -54.390625 -0.31640625 C-53.4934375 -0.38988281 -52.59625 -0.46335938 -51.671875 -0.5390625 C-49.80514409 -0.68562402 -47.93794881 -0.82640438 -46.0703125 -0.9609375 C-40.70503912 -1.41186504 -36.13722063 -2.38654591 -31.08300781 -4.21435547 C-20.40981512 -7.59608265 -9.65112375 -4.86529552 0 0 Z " fill="#000000" transform="translate(604.9609375,216.88671875)"/>
<path d="M0 0 C0.54527344 0.14308594 1.09054687 0.28617188 1.65234375 0.43359375 C3.29970295 0.83104314 4.96102283 1.17278419 6.62890625 1.47265625 C20.22048621 4.20545062 29.57619573 13.37105001 38.125 23.8125 C41.71853473 27.9914069 45.94408558 31.23179352 50.29858398 34.5637207 C55.067058 38.22348194 59.65384278 42.05352666 64.1875 46 C64.82300781 46.55196045 65.45851563 47.1039209 66.11328125 47.67260742 C73.9065812 54.48436486 73.9065812 54.48436486 74.3984375 57.19921875 C74.35753169 61.54205262 74.16544002 65.1037571 72.4375 69.125 C70.57072792 73.49554696 70.9219735 76.37988642 72 81 C72.50789063 81.64066406 73.01578125 82.28132812 73.5390625 82.94140625 C76.13014767 86.5924808 75.25831128 90.6906118 75 95 C74.95746094 95.84046875 74.91492188 96.6809375 74.87109375 97.546875 C74.42644236 103.33680368 74.42644236 103.33680368 72.83203125 105.81640625 C71 107 71 107 68.109375 106.92578125 C57.67556639 103.81923271 49.07161517 90.46739088 42.80078125 82.046875 C39.38574817 77.96613832 34.90513981 75.33990377 30.5 72.4375 C16.5737107 62.93559722 6.31703312 52.68028044 -2 38 C-2.474375 37.22269531 -2.94875 36.44539062 -3.4375 35.64453125 C-7.24441527 28.59909431 -7.6558461 19.58348107 -5.39355469 11.95507812 C-3.88123342 7.82840332 -2.02097784 3.90361494 0 0 Z " fill="#FCFCFC" transform="translate(430,520)"/>
</svg>
